<svg xmlns="http://www.w3.org/2000/svg" version="1.0" viewBox="0 0 3618 2511"><g fill="#FFF" stroke-width="0"><path d="M1206 1255v419h1206V836H1206zm434.7-201.4c-.3.3-1.2.4-1.9.1-.8-.3-.5-.6.6-.6 1.1-.1 1.7.2 1.3.5m71.7.3c1.9.7 1.9.8-.2 1.3-1.2.4-2.2.2-2.2-.2 0-.5-1.9-1.1-4.2-1.3l-4.3-.4 4.5-.1c2.5 0 5.4.3 6.4.7m104.9-.2c-.7.2-1.9.2-2.5 0-.7-.3-.2-.5 1.2-.5s1.9.2 1.3.5m79.2.3 2 .9h-2c-1.1 0-2.9-.4-4-.9l-2-.9h2c1.1 0 2.9.4 4 .9m-250.5 1c0 .5 1.9 1 4.2 1s3.9.3 3.5.6c-.3.3-4.1.2-8.4-.2-5.7-.5-7.1-.9-5.3-1.5 3.7-1.1 6-1 6 .1m69.9 2.9c-1.7 1.5-2 2-.9 2.1 3.4 0 4.7 5 4.2 15.2-.4 9.5-.4 9.8 1.7 9.8 2 0 2.1-.5 2.1-8 0-4.7-.4-8-1-8-1.2 0-1.3-3.7-.1-4.4 1.1-.7 2.1 5.3 2.1 13.6v6.8l7.3.1c3.9.1 7.6.1 8.2-.1.5-.1 1.5.6 2.2 1.6 1.2 1.7 1.4 1.6 3.2 0 1.1-1 2.6-1.6 3.3-1.3.8.3.6.6-.5.6-1.5.1-1.8.8-1.6 3.9.2 2.1 0 4.2-.4 4.8-.3.6-.5 7.9-.4 16.3.1 11.5.4 15.4 1.4 15.8 1.8.7 1.6 2.1-.4 2.6-1 .3 3.3.5 9.6.6l11.3.1-.4-2.5c-.6-2.9-.2-3.1 1.8-1 .9.8 1.1 1.5.5 1.5s-1.1.4-1.1 1c0 .5.9 1 2.1 1 2 0 2-.3 1.5-16.8-.5-13.7-.3-17.2.9-19.6.8-1.5 1.5-3.6 1.5-4.5 0-1.3 1-1.6 5.3-1.5 5.9.1 8-.6 5.1-1.8-1.1-.4 1.2-.5 5.2-.2 4.7.4 7.4.2 7.9-.5.3-.6 2.4-1.1 4.5-1.1 4.7 0 5.3-1.3 4.5-9.5-.3-3.1-.1-5.4.3-5.1.5.3.8-1.5.7-4-.1-3.4.2-4.4 1.2-4 .7.3 1.3 0 1.4-.7 0-.9.2-.9.5 0 .8 1.7 3.4.4 3.4-1.7 0-2.6 9.8-3.2 47-2.8l30.5.3-34.5.4c-19 .2-35.8.6-37.5 1-1.6.3 15.2.6 37.4.6 38.6 0 40.3.1 41.7 1.9 1.6 2.2 2.8 1.7 1.8-.8-.4-1-1.8-1.6-3.8-1.7-1.8-.1-2.3-.3-1.3-.6 3.5-.9 6.8.6 6.7 3-.4 3.8 0 4.7 1.6 4.7.9 0 1.8-.9 2.1-2 .4-1.7 1.4-2 5.4-2h4.9v11.9c0 11.6-.1 12-2.2 12.4s-2.1.4.3.6c1.4 0 3-.4 3.7-1.1.9-.9 1.2-.9 1.2.1 0 .9.8 1.1 2.8.7 1.7-.4 2.2-.3 1.3.2-.7.5-.9 1.1-.5 1.4 1.6.8 5.8.1 6.2-1.1.2-.6 1.1-1.1 2-1.1 1.6.1 1.6.2.1 1.3-.9.7-1.8 2.7-2.1 4.5-.5 3.8-.1 4.1 1.2.7.5-1.4 1.4-2.5 2-2.5 1.4 0 1.3.7-.6 3.4-1 1.6-1.2 2.6-.5 3.1.6.3 1.1-.2 1.1-1.2 0-1.5.2-1.6 1-.3 1.4 2.1 1.2 3-.5 3-1.3 0-1.5 6.6-1.5 53.7 0 29.6.4 53.3.8 52.7s1.8-1 3.2-.8 7.1.4 12.8.4c9.6 0 10.2.1 10.2 2 0 1.5.8 2.2 3 2.6 2.8.6 4.3 3.4 1.8 3.4-.9 0-.9.3 0 1.2 1.7 1.7 1.5 5.7-.3 6.4-1.2.5-1.5 2.5-1.5 9.5 0 7.9.2 8.9 1.8 8.9 1 0 2.2.4 2.8.9.5.5 4.9 1.1 9.7 1.4 4.9.2 8.2 0 7.5-.4s-1-1.1-.7-1.4c1.2-1.1 11.9 10.3 11.9 12.6 0 2.1.1 2.2 1.3.5.8-1.1 2.3-1.7 3.8-1.4 1.9.2 2.5 1 2.7 3.6.2 2.3-.1 3.4-1.4 3.9-1.1.4-2 .1-2.2-.6-.4-1.1-.6-1.1-1.3 0-.6 1-1 .7-1.8-1.1-.7-1.8-1 4.1-1.2 20.2-.1 12.6-.3 23.7-.3 24.8-.1 1.1.3 1.9.9 1.7.5-.1.9-.8.7-1.5-.4-1.8 1.5-1.5 2.2.4 1 2.7.7 3.3-2.1 3.7-1.6.2 5.5.3 15.7.2 18.4-.3 18.4-.3 5 .5-7.4.4-15.9.8-18.8.9-2.9 0-5.1.5-4.8.9.3.5 8.6 1 18.6 1.1 15.2.2 18.3 0 19.6-1.3.8-.9 1.2-1.6.7-1.7-.4-.1.3-.5 1.7-.9 1.5-.5-3.4-.8-12.4-.9-8.2-.1-14.7-.3-14.5-.6.3-.2 7.2-.5 15.5-.6 8.2-.1 14.1-.4 13.1-.6-1.7-.4-1.8-1.8-1.5-18.4.3-17.8.3-18 2.8-19.9 2.3-1.7 2.4-1.9.7-3.7-1.1-1.3-1.7-3.6-1.7-7.4v-8.5c0-1.9.5-3.4 1.5-3.8.8-.3 1.5-1.8 1.6-3.3 0-2.3.2-2.5.8-.9.7 1.8.8 1.8 1.4.2.4-1 .2-2.6-.3-3.6-1.3-2.4-1.3-3 .1-3 .5 0 .8.4.4.9-.8 1.3 2.4 4.3 3.8 3.4.8-.5.8-.8-.1-1.1-1.4-.4-1.6-3.2-.2-3.2.6 0 1 .6 1.1 1.2q0 1.5.6 0c.2-.6 1.1-1.2 1.9-1.2 1 0 1.4-1.2 1.4-4 0-3.9.1-3.9 1.9-2.3 7.7 7.2 7.2 6.9 8.7 4.9.9-1.2 2-1.7 3.5-1.3 3.1.8 6.2-1 5.6-3.3-.3-1.1-.1-2 .4-2.2s.9-3.3 1-7 .5-6.5 1-6.2.9.1.9-.5c0-.5-.6-1.1-1.2-1.4-.7-.3.2-.5 2-.4 1.8 0 3.8-.5 4.4-1.1 2.1-2.1 49.6-1.3 48.3.7-.7 1.2.9 2.6 4.7 4.4 2.8 1.3 3.5 2.1 3.1 3.7-.8 3.1-2.3 3.4-2.3.6 0-1.4-.3-2.6-.7-2.6-.5 0-.8 5.8-.8 13 0 7.1.3 13 .8 13 .4 0 .7-1.1.7-2.4 0-1.4.5-2.8 1-3.1.6-.4 1 .6 1 2.3 0 3.3 1.4 4.2 5.3 3.5 1.6-.3 2.7-.1 2.7.6s.8.8 2.6 0c1.5-.5 3.5-.7 4.6-.3 1.8.5 1.8.7.4 2.3-2 2.2-2.1 3.7-.1 2.1 1.2-1 1.5-.9 1.5.5 0 1 .7 2.3 1.5 2.9 1 .8 1.5 3.4 1.7 8.6.1 4.1.6 8.1 1.2 8.8.7.9.6 1.6-.3 2.2-.8.4-1.2 1.3-.9 2 .5 1.7 3.8 2.2 3.8.7 0-.9.3-.8.8 0s3.9 1.4 9.5 1.5c5.8.2 8.7.6 8.7 1.4 0 .6.9 1.4 2 1.7 1.5.4 2 0 2-1.4 0-1.5.7-1.9 3.3-1.8 3 .2 3 .2.5.6-1.9.3-2.8 1-2.8 2.3 0 1.8.2 1.8 4.1.5 5.3-1.9 4.9-2 4.9 1.4 0 2.2-.5 3-2 3.3-1.2.2-2.1.7-2.1 1.3 0 .5.9 1.1 2.1 1.3 3.3.5 2.3 3-1.4 3.8-1.9.3-3.9.3-4.4 0-.6-.3-1.1.4-1.2 1.7-.6 7.4-1 100-.4 103.7 1.5 9.4 2.2-.6 2.3-31.7.1-30.5.7-36.9 3.4-36 .9.3 1.2 8.5 1.4 35.2.2 22.4.6 35.2 1.3 35.9 1.6 1.6 1.2 5.3-.7 6.1-1.7.6-1.7.7 0 1.6 1.9 1.1 2.3 5.9.7 9-1.3 2.4-4.6 2.5-5.9.1-.9-1.4-1-1.3-1.1 1.1 0 3.3-2.6 8.7-4.1 8.7-.6 0-1.8-1.8-2.7-4-1.5-3.6-2.1-4-5.2-4-2.6 0-3.1-.3-2-1 1.3-.8 1.2-1-.4-1-1.3 0-1.7.5-1.3 2 .6 2.2-.8 2.8-1.6.7-.3-.6-.6-.2-.6 1.1-.1 1.3-.5 2-1.1 1.7-.6-.4-.9 1.2-.8 4 .2 4.4 1.1 5.8 2.1 3.2.3-.6.6.1.6 1.7.1 2.4-.1 2.6-1.4 1.6-1.2-1-1.3-.6-1 2.7.3 2.7-.1 4.5-1.5 6.3-1.6 2-2 2.2-2 .7 0-.9.5-1.7 1-1.7.6 0 1-.8 1-1.8-.1-1.6-.1-1.6-1.1 0-.5 1-1.8 1.8-2.7 1.9-1 0-1.2.3-.4.6.6.2 1.2 1 1.2 1.7 0 .9-3 1.1-12.4.8l-12.4-.4.5 2.5c.3 1.4 0 2.8-.6 3.1-.7.5-1.1 4.4-1 10.4 0 6.4.3 9 .9 7.7l.9-2v2c.1 1.6.8 2 3.8 2 3.2 0 3.9.4 4.1 2.2.3 1.7-.2 2.3-1.6 2.3-1.1 0-2.5.7-3.2 1.5-.7.9-1.9 1.4-2.6 1.1-.8-.3-1.1 0-.8.9.3.7-.4 2.3-1.5 3.4-2.5 2.5-5.6 2.8-4.7.5.4-1.2.2-1.5-.9-1.1-.8.4-1.7.2-2-.3-.8-1.2-13.5-1.3-15.4-.1s.3 1.8 9.9 2.7c7 .7 7.2.8 3.5 1.5-2.2.4-4.1.3-4.3-.2s-1-.9-1.8-.9c-1.5 0-2.2 2.4-2.6 9-.3 3.8-.6 4.5-2.5 4.8-1.3.2-2.3.8-2.3 1.3 0 .6-.4.7-1 .4-.5-.3-1 .2-1 1.3 0 2.9-3.5 5.4-8.2 5.9-2.4.3-5 1.1-5.9 1.9-2 1.8-3.3 1.8-2.5-.1.5-1.3-2.3-1.5-21.8-1.4-12.3.1-22.9.5-23.5.9-.7.4.9.6 3.6.5 4.5-.2 4.6-.2.8.4l-4 .6-.5 28c-.3 15.4-.3 30.1 0 32.7.4 2.7.3 4.8-.1 4.8-1.1 0-.6 7.4.6 8.2.6.5.4 1.2-.5 1.8-.8.5-1 1-.5 1 1.1 0 1.7 12 .6 12-.4 0-1.7-.7-2.9-1.6-1.2-.8-2.8-1.3-3.5-1.1-.7.3-.5.6.6.6 2.4.1 2.2 2.1-.3 2.1-1.1 0-2-.7-2-1.5s-.6-1.5-1.4-1.5c-1 0-1.2.7-.8 2.2.4 1.7.2 2-1.2 1.5-1-.4-4.1-.8-6.9-.8l-5.2-.1 5.3-.8c2.9-.4 5.6-1 5.9-1.3.9-.9-392.9-.7-397.2.2-2.2.5-3.1.9-2.1 1 1.5.1 1.7.4.8 1.3-1.5 1.5-20.9 2.7-24.6 1.4-2.6-.8-2.7-1-1.1-1.6 1.8-.6 1.7-.7-.3-1.2-1.2-.4-2.2-.2-2.2.4s-.9.8-2 .5-2.3-.1-2.6.4c-.3.6-1.1.5-2-.2-.9-.8-1.4-3.3-1.4-7.9 0-5.1-.4-6.9-1.5-7.4-.8-.3-1.5-1.2-1.5-1.9 0-.8.7-2 1.5-2.7 1.3-1.1 1.5-10.2 1.5-71.2v-70l-8.9.4c-4.9.1-8.4 0-7.8-.4.7-.4 4.7-.8 9-.8 4.2 0 7.7-.4 7.7-.9 0-1.4-15.4-2.5-15.8-1.2-.2.6-1.1 1.1-2 1.1-1.5 0-1.5-.2-.2-1 1.1-.7.8-1-1.5-.9-1.6 0-2.4.3-1.7.6.6.2 1.2.9 1.2 1.4 0 1.3-6.1-2.2-6.7-3.9-.3-.6-1.1-1.2-1.9-1.2-1.1 0-1.4-2-1.6-8.3l-.2-8.2-.3 6.7c-.4 7.7-2.4 9.2-4.3 3.3-1.2-3.7-.7-5.5 1.5-5.5 1.5 0 2.7-6.2 2.9-14.9l.1-5.5-11.5.2c-6.3 0-12.9.1-14.6.1-2.3.1-3.3.7-3.7 2.1-.7 2.8-6.7 2.9-7.4.1-.4-1.4-1.8-2.1-5.9-2.6-2.9-.3-5.9-.3-6.5.1-.7.4-.9 0-.5-1.4.5-1.4.1-2.1-1.3-2.5-1.5-.4-1.8-1-1.4-2.7.4-1.6.3-2.1-.5-1.6s-1.2-.5-1.2-3.3c0-2.3.5-4.1 1-4.1.6 0 .9-2.1.9-4.8-.2-4.6-.2-4.6-.9-1.2-.4 1.9-.8 2.8-.9 2-.1-1.2-.5-1.1-1.6.4-.8 1.1-1.5 1.5-1.5.9s-.8-1.3-1.9-1.6c-1.8-.4-3.6-5.7-1.9-5.7.5 0 .6-.5.3-1-.4-.6.5-1 2-1s2.4.4 2 1c-.3.5-.1 1 .4 1 .6 0 1.1-.5 1.1-1.1 0-.8.5-.8 1.5.1 1.3 1 1.5.9 1.5-.9 0-2.1-.2-2.1-16.2-1.9-16.1.3-16.2.3-17.4-2-.8-1.6-1.3-1.9-1.6-1-.3.7-.8 1-1.2.6-.4-.3-.3-1.5.3-2.6.6-1.2 1-4.7.9-7.9l-.1-5.8-.6 4.5c-1.2 7.8-2.3-26.3-1.9-57.4.2-22 .6-29 1.6-29.4.7-.2 1.2-2.2 1.2-4.8 0-2.8.4-4.3 1-3.9.6.3 1.1-.3 1.1-1.4.2-3.7.4-4 2.4-5.6 1.9-1.5 1.9-1.5-1-.9-2.3.5-2.7.4-1.9-.5.6-.7 3-1.2 5.2-1.3 2.4 0 3.9-.4 3.6-1-.4-.5-1.5-.8-2.5-.5s-2.2.1-2.5-.4c-.6-1 3-1.2 6.3-.3 1.3.4 2 1 1.7 1.5s3.5.9 8.4.9c8.7 0 9-.1 9.6-2.5.7-2.7 2.6-3.4 2.6-1 0 .8-.4 1.5-1 1.5-.5 0-1 .4-1 1 0 .5.7 1 1.6 1 1.3 0 1.5-1.8 1.2-14.3-.2-7.8-.7-14.9-1.1-15.8-.6-1.3-.2-1.8 2-2.4 2.6-.7 2.6-.8.8-1.5-1.7-.7-1.7-.9-.2-.9.9-.1 1.7-.6 1.7-1.1 0-.7 8.3-1 24.8-1l24.7.1.3-35.1c.2-27.9 0-35-1-34.5-.7.4-.2-.3 1.1-1.4 1.3-1.2 3.3-2.1 4.5-2.2 1.9-.1 1.8-.2-.4-.9-2.2-.6-2.3-.8-.7-1.5 1.1-.5 2.4-.2 3.6.9 1.4 1.2 3.9 1.6 11.2 1.6h9.4l-.3-4.8c-.3-3.5.1-5.2 1.2-6.1 2.2-1.8 2.2-10.1.1-10.1s-2.2-11.5-.1-12.7c.8-.4 1.6-1.5 1.8-2.3s1-2 1.8-2.7c1.3-1.1 1.3-1.2-.3-1.3-1 0-1.6-.4-1.2-1 .3-.5 1.2-.7 1.9-.4.8.3 1.7-.3 2-1.4.6-1.9 1.5-2 13.9-1.8 8.1.2 13.9-.1 15-.8 1.3-.8 1.7-2.4 1.7-6.8 0-3.1-.4-6-1-6.3-.5-.3-1-2.6-1-5.1 0-3.2.4-4.4 1.5-4.4.8 0 1.5-.5 1.5-1.1s.9-.9 1.9-.6c1.3.3 2.1-.1 2.3-1 .3-1.3 5.3-1.5 38.5-1.7 28.8-.1 38.5-.4 39.4-1.3.7-.7 1.5-1.1 1.7-.8.3.2-.6 1.3-1.9 2.4m9.8 9.8c-.3 1-.5.4-.5-1.2 0-1.7.2-2.4.5-1.8.2.7.2 2.1 0 3m-93.7 6.3c0 .5-.2 1-.4 1-.3 0-.8-.5-1.1-1-.3-.6-.1-1 .4-1 .6 0 1.1.4 1.1 1m150 12.2c0 .5-1.3.8-3 .8-1.6 0-3-.4-3-.9 0-.4 1.3-.8 3-.7 1.6.1 3 .4 3 .8m-181 .8c0 .5-.7.7-1.5.4-.8-.4-1.5-.8-1.5-1s.7-.4 1.5-.4 1.5.4 1.5 1m148.4 3.4c-.6 2.5-2.4 3.7-2.4 1.6 0-1.3 2.3-5 2.8-4.6.1.2 0 1.5-.4 3m17.3 4.8c-.3.8-.6.5-.6-.6-.1-1.1.2-1.7.5-1.3.3.3.4 1.2.1 1.9m3 0c-.3.8-.6.5-.6-.6-.1-1.1.2-1.7.5-1.3.3.3.4 1.2.1 1.9m-22 2c-.3.8-.6.5-.6-.6-.1-1.1.2-1.7.5-1.3.3.3.4 1.2.1 1.9m186.3 1.8c0 .5-.5 1-1.1 1-.5 0-.7-.5-.4-1 .3-.6.8-1 1.1-1 .2 0 .4.4.4 1m-164.3 19.7c-.2 3.8-.3.7-.3-6.7s.1-10.5.3-6.8c.2 3.8.2 9.8 0 13.5m-22 0c-.2 3.7-.3.9-.3-6.2 0-7.2.1-10.2.3-6.8s.2 9.3 0 13m185 57.5c-.1 13.9-.2 2.6-.2-25.2s.1-39.1.2-25.3c.2 13.9.2 36.7 0 50.5m-183-49.5c-.3 1-.5.4-.5-1.2 0-1.7.2-2.4.5-1.8.2.7.2 2.1 0 3m-180.7-.5c0 .7-.7 2.2-1.5 3.2-1.6 2.1-1.8 1.5-.9-2.2.7-2.3 2.4-3.1 2.4-1m8-.4c0 .5 1.2 1.3 2.8 1.9 2.3.9 2.4 1.1.6 1.2-1.1.1-2.9-.8-3.9-1.9s-1.3-2-.7-2c.7 0 1.2.4 1.2.8m384.7 79.8c-.3.3-1.2.4-1.9.1-.8-.3-.5-.6.6-.6 1.1-.1 1.7.2 1.3.5m172.3 2c0 .8-.4 1.2-1 .9-.5-.3-1-1-1-1.6 0-.5.5-.9 1-.9.6 0 1 .7 1 1.6m-164 4c.6 1.4 1 4.1 1 6v3.4l-2.1-2.1c-1.7-1.7-2.3-1.9-3-.8-.6.9-.9-.2-.9-3.2 0-2.5.3-4.9.7-5.2 1.4-1.5 3.4-.6 4.3 1.9m-457.3 8.6c-.3.8-.6.5-.6-.6-.1-1.1.2-1.7.5-1.3.3.3.4 1.2.1 1.9m620.3 4.8c0 2.2-.3 4-.7 4-.5 0-.8-1.8-.8-4s.3-4 .8-4c.4 0 .7 1.8.7 4m-652.1 13.9c-1.3 1.1-2.6 1.8-2.8 1.5-.7-.7 2.1-3.4 3.6-3.4 1 0 .8.6-.8 1.9m29-.3c.2.2-1.4.4-3.7.4s-4.2-.5-4.2-1c0-1 6.7-.4 7.9.6m462.9-.9c-1 .2-2.8.2-4 0-1.3-.2-.5-.4 1.7-.4 2.2-.1 3.2.1 2.3.4m17 2.1c0 2.2-.1 2.2-1.9.6-1.1-.9-1.9-2-1.9-2.3 0-.4.8-.7 1.9-.7 1.3 0 1.9.7 1.9 2.4m-490.5-1.1c-.7.2-2.1.2-3 0-1-.3-.4-.5 1.2-.5 1.7 0 2.4.2 1.8.5m-18.6 7.5c-.3.8-.6.5-.6-.6-.1-1.1.2-1.7.5-1.3.3.3.4 1.2.1 1.9m677.3-.2c0 .5-.4 1-1 1-.5 0-1-.5-1-1 0-.6.5-1 1-1 .6 0 1 .4 1 1m-679.3 6.2c-.3.8-.6.5-.6-.6-.1-1.1.2-1.7.5-1.3.3.3.4 1.2.1 1.9m678.3-.1c0 .5-.4.9-1 .9-.5 0-1-.7-1-1.6 0-.8.5-1.2 1-.9.6.3 1 1 1 1.6m.7 9.1c-.3.8-.6.5-.6-.6-.1-1.1.2-1.7.5-1.3.3.3.4 1.2.1 1.9m21.3 8.8c0 .5-.2 1-.4 1-.3 0-.8-.5-1.1-1-.3-.6-.1-1 .4-1 .6 0 1.1.4 1.1 1m-690 91.4c0 .2-.7.6-1.5 1-.8.3-1.5.1-1.5-.4 0-.6.7-1 1.5-1s1.5.2 1.5.4m5 3.6c0 3-.4 4-1.6 4-.9 0-1.8-.9-2.1-1.9-.3-1.2-1.6-2.2-3.2-2.4-2.3-.3-2.2-.4.7-.6 1.9 0 3.5-.7 3.8-1.6 1.1-2.8 2.4-1.5 2.4 2.5m18 11.2c0 1.8.3 4.4.6 5.8.6 2.1.4 2.3-.7 1.2-1.4-1.3-2-10.2-.6-10.2.4 0 .7 1.5.7 3.2m653.7 42c-.3.8-.6.5-.6-.6-.1-1.1.2-1.7.5-1.3.3.3.4 1.2.1 1.9m-597.5 8c-1.9 1.9-2.2 2-2.2.5 0-.9.5-1.7 1-1.7.6 0 1-.8 1-1.7 0-1.3.3-1.4 1.2-.5 1 1 .7 1.7-1 3.4m5.8.4c0 .8-.5 1.2-1 .9-.6-.4-.8-1.1-.5-1.6.9-1.4 1.5-1.1 1.5.7m591.7 9.6c-.3.8-.6.5-.6-.6-.1-1.1.2-1.7.5-1.3.3.3.4 1.2.1 1.9m-2.2-.3c.3.5.1 1.2-.5 1.6-.5.3-1-.1-1-.9 0-1.8.6-2.1 1.5-.7m-29.8 19.3c-.3.8-.6.5-.6-.6-.1-1.1.2-1.7.5-1.3.3.3.4 1.2.1 1.9m-12.2 17.9c1.9.5.4.6-4 .2-3.8-.3-7.2-.7-7.4-.9-.8-.7 8.4-.2 11.4.7m12.2 3.5c-.3.3-1.2.4-1.9.1-.8-.3-.5-.6.6-.6 1.1-.1 1.7.2 1.3.5m-47 23c-.3.3-1.2.4-1.9.1-.8-.3-.5-.6.6-.6 1.1-.1 1.7.2 1.3.5m10.3-.2c0 .2-.7.6-1.5 1-.8.3-1.5.1-1.5-.4 0-.6.7-1 1.5-1s1.5.2 1.5.4m-83 89.6c0 .7-63.3 1-188 1s-188-.3-188-1 63.3-1 188-1 188 .3 188 1m42 4.1c0 3.3-.3 4-1.5 3.5-.9-.3-96.7-.6-213-.6-185.6 0-211.5-.2-211.5-1.5 0-.9.9-1.5 2.3-1.5h212c209.4 0 209.7 0 209.7-2 0-1.1.5-2 1-2 .6 0 1 1.8 1 4.1m-426 12.9c0 1.8-.7 2-5.9 2-8.2 0-18.1-1.1-18.1-2.1 0-.9 5.3-1.5 16.3-1.7 7.1-.2 7.7 0 7.7 1.8"/><path d="M1642.3 1058.7c.9.2 2.3.2 3 0 .6-.3-.1-.5-1.8-.5-1.6 0-2.2.2-1.2.5M1902 1081c0 2.2.5 4 1 4 .6 0 1-1.8 1-4s-.4-4-1-4c-.5 0-1 1.8-1 4m-302.3 12.7c-.4.3-.7 1.1-.7 1.7s.5.5 1.2-.2c.6-.6.9-1.4.7-1.7-.3-.3-.9-.2-1.2.2m219.6 23.3c0 9.9.3 14.7.7 12l.7-4.5.1 4.2.2 4.3h6.4c5.5 0 6.4-.3 6.9-2 .5-1.9 1.4-2 26-2 19.5 0 25.7-.3 26-1.3.3-.6.6-.1.6 1.3l.1 2.5 1.5-2.9q1.5-2.85 1.5-11.7c0-9.1-.7-10.7-4.4-10-1 .1-1.5-.2-1.2-.7.4-.6.2-1.3-.4-1.7-.6-.3-1.3.1-1.6.9-.8 2-2.4 2.1-2.4.1 0-1.3-3.2-1.5-23.1-1.5-15.1 0-22.8.3-22.4 1 .3.5 1.3 1 2.1 1s1.4.7 1.4 1.5-.8 1.5-1.9 1.5-2.1.9-2.4 2.1c-.5 1.7-1.1 2-2.9 1.5-1.3-.3-3.8-.6-5.5-.6-3.2 0-3.3-.2-3.4-4.3-.2-3.6-.3-3.8-.7-1.2-.6 2.8-.6 2.7-1.2-1.5-.4-2.5-.7 2.9-.7 12m-177.3-10.6c0 .9.7 1.6 1.6 1.6s1.4-.5 1.2-1.2c-.6-1.8-2.8-2.1-2.8-.4m40.3 1.3c.3.5.1 1.6-.2 2.7-.7 1.7-2.1 1.9-18.8 2-14.8.1-18.3-.2-19.4-1.4-1.2-1.3-1.4-1-1.7 1.9-.2 2 .2 3.8 1 4.3 1 .8 1 1.1.1 1.5-1.4.5-1.6 3.4-.6 7.2.6 2.3.7 2.3 1.4.5.6-1.5.8-1.2.8 1.3.1 3.2.2 3.3 4.5 3.3 2.4 0 4.6.4 4.8.9.2.6 6.2 1.1 13.3 1.2l13.1.2-.1 17c0 12.4.3 17.4 1.3 18.3.6.7 1.2 3 1.2 5.1 0 2.2.6 4.5 1.3 5.2 1 1.1 1 1.4 0 1.8-.7.3-1.3 1.1-1.3 1.9 0 .9-.4 1.3-.9.9-.6-.3-1.5.4-2.1 1.5-1 1.9-2.1 2-17.8 2.2-9.2.1-14.8.3-12.4.5 2.8.3 4.2.9 4.2 1.9 0 1.1 2.2 1.4 12 1.4 11.3 0 12 .1 12 2 0 1.8-.9 1.9-20.7 2.2-12.7.2-21.1-.1-21.9-.7-.6-.6-1.5-1.9-1.8-3.1-.6-1.9-.1-2.2 4.6-3.2 4.5-.9 4.6-1 1-.6-4.2.4-4.2.4-3.6-2.2.6-2.3.4-2.6-1-2.1-1.1.5-1.6.1-1.6-1.2 0-1-.7-2.1-1.5-2.5-1.2-.4-1.5-3-1.5-14.4 0-12.5.2-14.2 2-16.5 1.1-1.4 1.7-2.8 1.3-3-.5-.2-6.1-.5-12.5-.6l-11.8-.2v5.6c0 4.5.3 5.5 1.3 4.7.9-.8 1.2 2.1 1.2 14.1 0 11.6-.3 15.1-1.2 15-1-.2-1.3 2.2-1.3 9.5 0 6.5.4 10.3 1.3 11.1 1 1.1 1 1.3 0 .7-.8-.4-1.3-.1-1.3.8s1.2 1.9 2.6 2.2c1.7.5 2.2 1 1.5 1.7s-1.4.7-2.3-.1c-.9-.7-1.8-.7-3.1.2-2.2 1.7-2.2 2.5.2 1.9 1.9-.5 1.9-.3.3 4.1-1.5 4-1.8 4.3-2.2 2.4-.6-2.2-.6-2.2-1.4-.3-.7 2-.8 2-2.2.1-.8-1.1-1.4-2.9-1.5-4-.1-1.3-.6-.6-1.3 1.7l-1.2 3.8-1.4-3.5c-1.6-4.1-4.1-4.7-5.5-1.4-.7 1.7-2 2.4-4.6 2.6-4.4.4-8.9-1.3-8.9-3.3 0-1.1-1-1.5-3.5-1.5-3.3 0-3.5.2-3.4 3.2 0 2.7.2 2.9.8 1.3.7-1.5 1-.6 1.6 3.7.4 3.1.5 6.3.2 7s-.6-.7-.7-3.2l-.3-4.5-.7 4.5c-1.1 6.5-1.1 22.3 0 23 .6.4 4.2.3 8.2-.2 4-.4 7.4-.5 7.6-.3.3.2.2 1.6-.2 3-.5 1.8-1.3 2.5-3 2.5-1.3 0-4.4 1.1-7 2.5s-5.6 2.5-6.7 2.5c-1 0-1.9.5-1.9 1 0 .6 1.1.8 2.8.4l2.7-.7-3.1 2.6c-1.8 1.5-3.7 2.7-4.3 2.7-1.3 0-1.1-5.2.4-6.2.6-.5.4-.8-.5-.8-1.3 0-1.3-.1 0-1 1.3-.8 1.2-1-.4-1-1.2 0-1.6.5-1.3 1.4.3.8.1 1.7-.6 2-.9.5-.9.7 0 1.2 1.9.9-.3 4.4-2.8 4.4-2.3 0-4.3-4.1-2.5-5.2.6-.4-3.8-.7-9.9-.7-6 .1-10.2.3-9.2.6 2.5.6 2.3 6.4-.3 8.6-2.8 2.3-5.5 2.1-7.3-.6-3.4-5-3.7-1.3-3.5 37.4l.3 37.4h15.3c8.3 0 15.2.4 15.2.8 0 .5.5.5 1.2.1.6-.4 5.4-.9 10.5-1.1l9.4-.2-3.3 3.9c-2.2 2.9-3.7 3.9-5 3.4-1.6-.5-1.8.1-1.8 4.1 0 3.9.3 4.6 1.6 4.1 1.1-.4 1.4-.1 1.2 1.2-.2.9-1 1.6-1.6 1.4-.9-.1-1.2 2.3-1.2 8.4 0 5.4.4 8.3 1 7.9.6-.3 1 .1 1 .9s.4 1.8 1 2.1.7-.1.4-.9c-.4-1-.1-1.6 1-1.6 1 0 1.3-.6 1-1.8-.5-1.4-.4-1.5.5-.2.7 1.1 3.5 1.5 10.7 1.7 13.6.4 13.1 1.3-.6 1.3-6.2 0-11.1.3-10.7.6.3.4 5.6.7 11.6.8 8.3.1 11.1-.2 11.1-1.2 0-.6.7-1.2 1.5-1.2.9 0 1.2.6.8 1.6-.5 1.3-.2 1.5 1.6.9 1.8-.5 2.4-.2 2.8 1.5.3 1.2 1.1 1.9 1.9 1.6.7-.3 1.5.3 1.7 1.2.4 1.4.5 1.3.6-.3.1-1.7.3-1.8 1.2-.5.8 1.1 1.2 1.2 1.6.2.7-1.7 4.3-1.5 4.3.2 0 .8 1.2 2.4 2.8 3.5 2 1.6 2.4 2.3 1.4 2.9-.8.6-1.2 2.6-1.1 5.3.1 2.4 0 5.1-.2 5.9-.3 1.2.8 1.6 4.9 1.8 3.6.2 5.2.7 5.2 1.7 0 .7-.8 1.6-1.7 1.8-1 .2-.6.3.8.1s3.7.4 5 1.4c2 1.3 2.2 1.4 1.1 0-1.1-1.3-.6-1.5 3.8-1.5 4.8.1 5.7 1.6 1.2 2-1.1 0-1.8.5-1.6.9.3.5 1.3.7 2.2.6 1.1-.2 1.6.3 1.4 1.4-.2 1 .2 1.8.8 1.8.5 0 1-1.1 1-2.5s.3-2.5.8-2.5c.4 0 .7 2.2.7 4.9 0 4.1-.2 4.7-1.4 3.8-1.1-1-1.2-.6-.7 2.1.4 1.7.4 3.2-.1 3.2-.4 0-.7 6.4-.6 14.2l.2 14.3h3.3c2.7 0 3.3.4 3.2 2 0 2 .5 2 21.9 1.7 17.4-.3 22.2-.1 22.8 1 .7 1 .9 1 .9 0 0-.6.6-1.2 1.4-1.2s1.7.6 1.9 1.2c.4 1 .8 1 1.5-.1.5-.7 1.5-1.1 2.1-.7.7.5.9.1.5-.8-.4-1-.1-1.6.9-1.6.8 0 1.7.7 2.1 1.5.8 2.2 2.3 1.9 4.8-1 2.1-2.4 5.2-3.3 6.1-1.8.3.5 4.6.6 9.7.3 10.4-.6 12.3-.1 16.4 4.1 3.1 3.1 4.9 3.8 4 1.4-.4-.8-1.4-1.5-2.3-1.6-.9 0-1.1-.3-.4-.5 1.9-.8 5.3 1.5 4.7 3.1-.4.8-.1 1.5.5 1.5.7 0 1.1.6 1 1.2-.3 2.7.2 3.6 2.1 4.1 1.1.3 2 1 2 1.6 0 1.8-3.1 2.5-4.1 1-.8-1.2-1-1.2-1.8 0-.7 1.1-1 1-1.4-.5-.3-1.3-.5-1.1-.6.8 0 1.6.4 2.8.9 2.8.6 0 1 11.3 1 32 0 19-.4 32-.9 32s-1.1-.8-1.3-1.8c-.2-.9-.4.9-.4 4l.1 5.7 26.3.1c23.7 0 26.2-.1 26.2-1.6 0-1.4.8-1.6 5-1.2 4.6.5 5.9 0 4.4-1.5-.3-.3-.5-13.8-.4-30.1l.1-29.6h-2.4c-1.6 0-2.6-.7-3-2-.3-1.1-1.2-2-2.1-2-1.2 0-1.6 1-1.6 4 0 2.9-.4 4-1.5 4-3.3 0-4.6-10.2-2.3-16.7 1.2-3.2 1.4-3.3 6.5-3.3 2.9 0 5.3-.4 5.3-1 0-.5.3-.9.8-.9 2.2.4 2.8-.4 2.6-3.4-.3-2.9-.3-3 .5-.7.9 2.4.9 2.4 1 .2l.1-2.2h55.9c48.8 0 56-.2 56.5-1.5.3-.8 1-1.5 1.6-1.5.5 0 1 .7 1 1.5s.5 1.5 1 1.5c.6 0 1 .8 1.1 1.7 0 1.1.3 1.3.6.5.7-1.7 2.3-1.5 2.3.3 0 .8-.7 1.5-1.5 1.5-1.7 0-1.9.9-.5 3 .8 1.3 1 1.2 1.2-.5.1-1.1.5 13.3.8 32l.5 34 .3-36.3c.1-19.9.5-36.2 1-36.2.4 0 .6 19.8.4 44l-.3 44h32.5c25 0 32.6-.3 33-1.3.5-1 .7-1 1.2 0 .7 1.5 2.4 1.7 2.4.4 0-.5-.6-1.6-1.3-2.3-2.6-2.5-3.1-9.8-.6-8.2.5.3.8-5.6.7-13.8l-.2-14.3-.6 13c-.6 12.2-.7 11.9-.6-5.7.1-10.3.4-17.9.8-17 .4 1 .7.2.7-2.3.1-2.9-.2-3.6-.9-2.5-.7 1-1-2.4-1-10.5s.3-11.5 1-10.5c.9 1.3 1 1.3 1 0-.1-.8-.7-2.4-1.5-3.4-.8-1.1-1.5-2.7-1.4-3.5 0-1.2.3-1 .9.4.8 1.9.9 1.9.9-.1.1-1.5 1-2.4 2.9-3 1.5-.4 3.1-.7 3.5-.6s1-.5 1.3-1.3c.5-1.3 5.8-1.5 40.1-1.5h39.5l-.4-13.5c-.2-8.7.1-13.4.7-13.1.6.2.9 1.4.7 2.7-.2 1.9 0 2.1.8.9.8-1.3 1-1.3 1 .2 0 .9-.4 2-1 2.3-.6.4-.9 4.9-.8 10.8l.2 10.2.3-9.8c.2-5.3.8-9.7 1.3-9.7.6 0 1-1.8 1-4 0-3 .4-4 1.6-4 1 0 1.4-.5 1-1.5-.7-1.8 4.3-4.2 5.3-2.6.4.6 1.2.6 2.1.1.8-.6 3.8-.9 6.5-.8l5 .1-5.5.7c-5.1.6-4.8.7 3 .7 5.6.1 7.6-.2 6-.7-2.4-.8-2.4-.8.7-.9 1.7-.1 3.3.4 3.5 1s.2-5.1.1-12.8c-.2-8.5-.7-13.7-1.3-13.6-.6.2-1-1.2-.9-3 .1-3 .1-3.1.9-.7 1 3 1 2.8 1.6-3.3.4-3.8.2-4.7-1-4.7-2.2 0-2-2 .2-2.1.9-.1 3.3-.2 5.2-.2 3.2-.2 3.5-.4 3.3-3.1-.1-1.6-.8-3.3-1.5-3.8-1-.8-1-1.1 0-1.5 1.5-.6 1.8-72.3.2-72.3-.5 0-1-.6-1-1.4 0-1.1-2.2-1.5-9.2-1.8-5.1-.2-9.7 0-10.3.4-.5.5-1 5.7-1.1 11.6l-.1 10.7-3.5.9c-4.9 1.2-10.9 0-11.5-2.5-.3-1-.9-1.9-1.4-1.9s-.9-1.8-.9-4 .5-4 1-4c.6 0 1-4.7 1-12s-.4-12-1-12c-.5 0-1-1.8-1-4s-.4-4-.9-4-.7 6.7-.4 16c.4 9.2.2 16-.3 16s-.9 1.7-1 3.7c0 2-.6 3.9-1.2 4.1-.7.2-1.2 2.1-1.2 4.3v3.9l-2-2c-2.2-2.2-4.5-2.6-5.6-.9-.4.7-2.4 1-5.3.6-2.5-.2-5.5-.1-6.6.3l-2 .9h2c1.3.1 1.6.4.8.9-.9.6-1.3 11.9-1.5 45.9l-.3 45.1-2.5 2c-1.8 1.5-3 1.8-4.2 1.1-1-.5-1.8-.6-1.8-.1s-1.8 1.4-4 2.1c-2.5.7-4 1.8-4 2.8 0 1.3-.3 1.3-1.5.3s-1.5-1-1.5.2c0 .7.8 2 1.8 2.9 1.5 1.3 2.3 1.3 4.7.3 3.1-1.4 6.5-.9 7.7 1 .4.6.8 2.8.8 4.8v3.8h-23.6c-15.4 0-23.3.3-22.9 1 .4.6 8.9 1 22.1 1 19.3 0 21.8.2 24.2 1.9 2.4 1.6 3.9 1.7 12.7 1.1 5.5-.4 10.3-.5 10.8-.3 1.8 1 .4 3.1-2.4 3.7-4.1.8-60.2.8-66.2 0-4.1-.6-4.5-.9-4.4-3.3.2-2.5.1-2.6-5-2.3l-5.3.4v-4.6c0-3.4.4-4.6 1.5-4.6 2 0 1.9-2.4-.1-4.5-1.3-1.2-1.5-2.7-1-6.2.3-2.5 1.2-5.3 1.9-6.1.9-1.1 1.2-8.8 1.2-30.2 0-15.9-.3-28.3-.7-27.6-.5.6-.8.1-.8-1.4 0-1.9-.3-2.1-1.2-1.2-1.8 1.8-73.4 1.7-74.1-.1q-.6-1.35-.6 0c-.1.6.4 1.5.9 1.8 2 1.2.9 3.1-2.3 4.3-4.5 1.6-4.7 1.6-4.7-1.3 0-1.4-.5-2.4-1.1-2.2-1.9.4-2.1-2.1-.2-2.6 1.4-.4 1.3-.5-.4-.6-1.6-.1-2.3-.7-2.3-2.1 0-1.1-.5-2-1.1-2s-.9.9-.6 2 .1 2.3-.4 2.6c-.8.5-1.5-5.6-.9-8.1 1.2-5 1.2-5 0-3.5-1 1.3-1.1 1.2-.6-.3.3-1 .7-5.3.8-9.5l.1-7.7.7 9.7c1.1 16.4 2.1 12.3 1.9-7.5-.3-17.5-.4-18.7-2.1-18.1-1.4.4-1.8 0-1.8-2.3 0-1.5.4-3.4.9-4.2.7-1.1 1.2-.6 1.9 2l1 3.4.2-3c.1-1.7.2-3.4.1-3.9-.6-3.1 1-4.2 6.4-4.2 5.2.1 6.9.9 4.3 1.9-.7.3 1 .5 3.7.5 3.9 0 4.5-.2 2.5-.8-2.1-.7-2.2-.8-.5-1 7.3-.7 12.5-.4 12.5.7 0 .7.5 1.3 1 1.3.6 0 .9-.5.8-1.1-.2-.6.3-1.4 1-1.6.7-.3 1.2.3 1.3 1.4 0 1.6.1 1.6.8-.2 1-2.6 1.4-24.3.5-29-1.2-6.6-1.7-2.7-1.5 12 .1 8-.1 14.5-.6 14.5-.4 0-.6-4.8-.5-10.6.4-10.9-.3-19.4-1.6-19.4-.4 0-.6 6-.4 13.4s0 14-.4 14.7c-.7 1-2.2 1.2-5.4.8l-4.5-.6 4.8-.1 4.7-.2v-10.9c0-6-.3-12.1-.6-13.7l-.5-2.9-12 .3-11.9.4v-2.6c0-1.4-.6-2.6-1.2-2.6-.9 0-.8-.4.2-1 1.1-.8.4-.9-2.5-.6-2.2.2-3.2.1-2.2-.1.9-.2 1.7-.9 1.7-1.4 0-.6-.9-.7-2-.4-1.1.4-2 .2-2-.4s2.1-1.1 4.8-1.2c3.9 0 4.3-.2 2.4-1-1.3-.5-3.6-.6-5-.3-1.9.4-2.3.3-1.3-.4 1.1-.8 1.1-1 0-1.5-.8-.3-.5-.6.8-.6 2.2-.1 2.2-.3 2.1-14.9-.1-14.4-.1-14.5-.9-5.7-.4 4.9-.5 11.1-.2 13.6.5 4.4-.8 7.2-2.5 5.4-.4-.4-.1-1 .6-1.2.6-.3 1.2-1.4 1.2-2.6 0-1.3-.3-1.7-.8-1.1-.4.7-.7-3.2-.8-8.5-.1-7.3.1-8.4.6-4.6.6 4.3.7 3.9.7-3.5 0-4.7-.1-7.7-.4-6.8-.4 1.5-1.6 1.8-6.7 1.8-3.5 0-9-.3-12.2-.6-5.6-.6-6.1-.9-9.3-5.2-2.9-3.8-3.4-5.4-3.2-8.7.1-2.2.7-4.2 1.2-4.3 1-.4 1.2-6.2.3-8.6-.5-1.2-2-1.6-5.9-1.6-3.2 0-5.5-.5-5.7-1.2-.3-.8-1.1-.5-2.5.9l-2.1 2.1-.5-5.2c-.3-3.6-.1-5.6 1-6.8s1.1-1.8.2-2.3c-.6-.4-1.5-.2-2 .6s-1.2 2-1.7 2.7c-.7 1-6 1.3-24.5 1.2-12.9 0-23.8.3-24 .7-.3.4 1.5.6 3.9.4 3.7-.2 4.4 0 4.4 1.6 0 2.4-2.7 4-8.3 4.8-4.5.7-4.6.6-5.2-2.1-.3-1.6-1-3.7-1.5-4.6s-.6-1.9-.2-2.2c.4-.2.6-9.4.4-20.4l-.3-20-7.2.4c-4 .2-9.3-.1-11.8-.8-5-1.2-11.4-.3-8.9 1.2 1.2.7 1.2 1.2.2 2.2-.8.8-1.1 3.9-1 8.7.1 5.2.3 6.2.5 3.1.6-5.9 2.2-6.7 4.6-2.2 2.5 4.6 3 16.3.9 20.6-1.1 2.2-1.6 2.6-2.3 1.5-.5-.8-.9-.9-.9-.3s-1.4 1.1-3 1c-1.7-.1-2.8-.6-2.6-1.1.4-1.1-66.2-1.3-70.6-.2-2.9.8-2.6 6-2.7-42.6l-.1-29.7h-10.1c-5.5 0-9.8.3-9.6.7m2.9 26.5c-.7.7-1.2 2.5-1.2 4s-.4 2.8-1 2.8c-.5 0-1-1.3-1-2.8 0-2.8 1.6-5.2 3.4-5.2.6 0 .5.5-.2 1.2m96.5 14.5c-.3 1-.5.4-.5-1.2 0-1.7.2-2.4.5-1.8.2.7.2 2.1 0 3m-168.7-1.6c-1.1.7 1.5.9 8.7.7 5.5-.2 9.6 0 9 .4-.7.4-5.1.8-9.9.8-8.4 0-8.8.1-8.8 2.2 0 3-1.2 1.5-1.6-2.2-.3-2.5 0-3 1.9-3 1.8 0 1.9.2.7 1.1m192.9.5c.8.7-14.4.3-18.9-.5-2.8-.5-.2-.6 7-.3 6.3.2 11.7.6 11.9.8m-121.2 7.6c-.2 1.3-.4.3-.4-2.2s.2-3.5.4-2.3c.2 1.3.2 3.3 0 4.5m-71 8c-.2 1.3-.4.3-.4-2.2s.2-3.5.4-2.3c.2 1.3.2 3.3 0 4.5m0 16c-.3.8-.6.5-.6-.6-.1-1.1.2-1.7.5-1.3.3.3.4 1.2.1 1.9m94 1.4c-.3.3-1.2.4-1.9.1-.8-.3-.5-.6.6-.6 1.1-.1 1.7.2 1.3.5m23.1.1c-2.1.2-5.5.2-7.5 0-2.1-.2-.4-.4 3.7-.4s5.8.2 3.8.4m37.9-.1c-.3.3-1.2.4-1.9.1-.8-.3-.5-.6.6-.6 1.1-.1 1.7.2 1.3.5m-92.4 8.1c-1.3.2-3.3.2-4.5 0-1.3-.2-.3-.4 2.2-.4s3.5.2 2.3.4m183.6.8c.7.7-.8 3.5-1.9 3.5-.6 0-1.4-.8-1.7-1.8-.4-.9-1.1-2.1-1.7-2.5-.6-.5.2-.6 1.9-.2 1.6.4 3.2.8 3.4 1m-246.2 14.7c-.3.8-.6.5-.6-.6-.1-1.1.2-1.7.5-1.3.3.3.4 1.2.1 1.9m160 49.2c-.4 1 0 1.2 1.4.9 1-.3 1.9 0 1.9.6s1.1 1.6 2.4 2.2c2.8 1.3 3.9 4.2 2.2 5.9-.8.8-.6.9.9.4 1.1-.4 2.3-1.2 2.6-1.7s.9-.1 1.2.8c.4.9.3 1.3-.3 1s-1-.2-1 .4c0 .5-.3 1.8-.7 2.8-.7 1.7-.6 1.7 1.1 0 2.1-2.1 2.6-2.1 2.6-.1 0 .8-.4 1.2-1 .9-.5-.3-1-.1-1 .6 0 .6.8.9 1.8.7 1.3-.4 1.7.2 1.9 2.6l.2 3.1-1.3-2.4c-1.2-2.2-1.4-1.3-1.4 7.9 0 6.6.3 9.9.9 8.9.7-1.1.9-1.1.9.4 0 1-1.1 2.2-2.5 2.7s-2.5 1.6-2.5 2.5c0 .8-.4 1.5-1 1.5-.5 0-1 .5-1 1.1 0 .5.5.7 1 .4.6-.3 1-.3 1 0 0 1.1-2.3 5-3.4 5.7-.8.5-.7.8.2.8.6 0 2-.8 3-1.8s2.4-1.6 3-1.4c1.7.5 1.5-.6-.3-2.4-.8-.9-1.5-2.5-1.5-3.7.1-1.6.7-1 2.3 2.3 1.4 2.9 2.3 3.9 2.5 2.8.2-.9-.2-2.7-.8-3.9-.9-1.6-.9-2.4.1-3.3.9-.8 1-.8.5.1-1.3 2.4.6 4.3 4.5 4.3h3.9l-.4 5.7c-.2 3.2-.1 4.1.1 2 .6-4.9 2.3-4.8 2.3.2 0 2.6-.5 4.1-1.6 4.5-2.6 1-16.4.7-16.4-.4 0-.6-.8-1-1.7-1-1.5 0-1.6.2-.3 1 1.2.7.7 1.2-2.2 2.5-2.1.8-5 1.5-6.6 1.5-2.9 0-6.1-2.4-4.9-3.7.4-.3.2-1.2-.4-1.9-.9-1.1-1.6-1.1-3.3-.2-2.1 1.2-2.7 1.4-5.8 1.6-1.1.1-1.8 1-1.8 2.1 0 4.7-4 2.7-5.9-2.8-.6-1.9-1.1-4.7-1.1-6.4 0-2.6-.2-2.8-1.7-1.6-.9.8-1.4.9-1 .3.8-1.3-1.3-8.4-2.5-8.4-1.1 0-1 1.8.2 2.5.6.3.9 1.8.9 3.3-.1 1.7-.3 2.1-.6.9-.2-.9-1.3-1.7-2.4-1.7-3.5 0-4.3-4.6-1.9-10.6 1.9-4.7 2-5.7.9-8.8-1.9-5.3-2.8-4.4-2.2 2l.6 5.7-3.9-.6c-2.7-.5-3.3-.4-1.9.3 1.6.7 1.2.9-2 .9-5.4.2-6.8 1.2-5.9 4.4.4 1.9.2 2.7-.6 2.7-.9 0-1.1-1.5-.7-5.5.3-3.2.2-5.3-.3-5s-.9 5.3-.7 11.1c.2 9.6.3 10.2 1.3 6.7l1.1-3.8.7 6.2c.5 4.5 1.1 6.3 2.1 6.3s1.5 1.1 1.5 3.2c0 1.8.3 4.3.6 5.5.8 2.9-2.1 4.1-10.2 4.4-3.3.1-6.8.4-7.9.7-1.7.5-1.5.7 1 1.3 3 .7 3 .7.3.8-1.5 0-3-.4-3.3-.9-.8-1.3-42.5-1.3-45.8-.1-1.8.7-3 .6-4.3-.4-2.5-1.9-4-1.9-2.4 0 1.1 1.3.9 1.5-1.1 1.3-1.4-.2-2.9-1.4-3.7-2.9-1.3-2.6-1.5-2.6-4.3-1.2-2.2 1.1-4.7 1.3-10.4.8-6.4-.6-7.5-1-7.5-2.6 0-1.1.4-1.9 1-1.9.5 0 .7-.6.4-1.4s-1.2-1.2-2-.9-2.1 0-2.9-.7c-.7-.6-3.3-1-5.7-.8-4 .3-4.3.1-4.6-2.5-.2-1.9-.9-2.7-2.3-2.7-1 0-1.9-.4-1.9-.9 0-.4 2.4-.7 5.3-.5 2.9.1 1.5-.2-3.1-.8-6.5-.8-8.2-1.4-7.8-2.5.3-.8.1-1.1-.4-.8-.6.3-1 .1-1-.4 0-.6-.9-1.1-2-1.1-2.2 0-2.7 2.8-1 6.1.9 1.6.7 1.9-1 1.9s-2-.4-1.5-1.9c.8-2.5-1.4-6.1-3.7-6.1-2.1 0-2.2-1-.7-4.4.9-2 .9-2.9 0-4-.7-.8-1-1.9-.7-2.5.4-.5-.1-1.7-1.1-2.6-1.6-1.6-1.7-1.6-2.4.1-.7 1.6-.8 1.7-.8.2-.1-.9.4-2 1-2.4.8-.4.7-.9-.2-1.5-1.2-.7-1.2-.9 0-.9 1.1 0 1.1-.3.1-1.5s-1-1.5.1-1.5 1.1-.2-.1-1c-1.1-.7-1.1-1-.2-1 .7 0 1-.5.7-1-1-1.6.5-5 2.1-5 1.1 0 1.3-.9.9-3.9-.4-3.4-.2-4.1 1.8-4.7l2.2-.8-2.5-.7c-2.4-.7-2.3-.7.6-.8 3.5-.1 5.4-2.7 2.6-3.5-.9-.2.1-.4 2.2-.3 2.5.1 4.1-.3 4.4-1.2.3-1-.5-1.2-3.9-.8-2.4.3-3.6.4-2.6.1.9-.3 1.7-.9 1.7-1.4 0-1.2 5.3-.8 6.3.5.4.6 1.1.4 1.7-.5.9-1.3 1.1-1.3 2.1 0 .8 1.1 1.2 1.2 1.6.2.2-.6 1.1-1.2 1.9-1.2s1.4.6 1.4 1.2c0 .9.4.8 1-.2.9-1.3 1.1-1.3 2 0 .6 1 1 1.1 1 .2 0-.6.5-1.2 1.1-1.2.5 0 .7.5.3 1.2-.5.7-.3.8.5.3.8-.4 1.8.1 2.7 1.3.8 1.2 2.1 1.9 2.8 1.6.9-.3 1.7.3 2.1 1.5.6 2 2 2.5 5.9 2.1 1.2-.1 1.6.3 1.1 1-.6.9-.2.9 1.3.1 3.2-1.7 6-1.3 6.7 1 .8 2.4-.1 3.5-3 4.1-1.5.3-1.9 1-1.7 3.3.1 1.7.2 4.8.3 7 0 4 0 4 1.4 1.5s1.4-2.4 1.5 1.7c0 2.4.5 4.3 1 4.3.6 0 1-.9 1-1.9 0-2.6 1.7-3.6 3.5-2.1 1.2 1 1.5.9 1.5-.5 0-1-.3-1.6-.6-1.2-.8.7-3.4-1.7-3.4-3.2 0-.6 1.8-2 3.9-3.1 2.2-1 4.1-2.3 4.3-2.7.3-.5.3-.2.2.4-.2.7.1 1.3.6 1.3.6 0 1-.7 1-1.6 0-1.3.2-1.3 1.8.2 1.5 1.6 1.7 1.6 2 .2s2.5-1.6 15.5-1.7c8.8-.1 15.3-.6 15.5-1.1.2-.6 2.4-1 4.8-1 5.1 0 5.8-1.5 1.2-2.6l-3.3-.7 3.8-1.3c3.6-1.2 4.2-1.2 8.8 1.3 4.5 2.3 6.3 2.6 20.3 3.1l15.3.5.7-2.7c.6-2.5 2.6-3.7 2.6-1.6 0 .5-.4 1-.9 1s-1.1 1.3-1.3 3c-.3 1.6-.1 3 .4 3 .4 0 .8-.9.8-2s.9-2.5 2-3.2 2-1.8 2-2.4c0-1.4 2.8-2.7 4-1.9.4.3.6-.5.3-1.6-.5-2-.3-2.1 3-1.7 1.9.2 3.3 0 3.1-.4-.3-.4-1.2-.8-2-.8s-1.4-.5-1.4-1.1c0-.7.9-.9 2.1-.6 1.5.4 1.9.2 1.5-.9s1-1.4 7.5-1.4 8 .3 7.6 1.4m7.3 1.2c0 .8-.4 1.2-1 .9-.5-.3-1-1-1-1.6 0-.5.5-.9 1-.9.6 0 1 .7 1 1.6m-71.3 7c-.3.3-1.2.4-1.9.1-.8-.3-.5-.6.6-.6 1.1-.1 1.7.2 1.3.5m80.2 3.4c0 1-.3.8-.9-.5-1.2-2.7-1.2-4.3 0-2.5.5.8.9 2.2.9 3m-196.6 3.3c.3.7-.3 1.3-1.3 1.3s-1.6-.6-1.3-1.3.9-1.3 1.3-1.3 1 .6 1.3 1.3m56.8 2.4c-1.2.8-2.8 1.2-3.6.9-2.6-1-1.6-2.1 2.1-2.3 3.6-.2 3.6-.1 1.5 1.4m139.9 6.3c0 .5-.2 1-.4 1-.3 0-.8-.5-1.1-1-.3-.6-.1-1 .4-1 .6 0 1.1.4 1.1 1m133.5 17c-1.1.5-2.9.9-4 .9h-2l2-.9c1.1-.5 2.9-.9 4-.9h2zm-313.1 14.7c-.7 3.5-1.2 4.3-3 4.3-2.1 0-1.8-5 .4-5.1 1.4 0 1.4-.2-.3-.9-1.8-.8-1.7-.9.7-.9 2.4-.1 2.6.2 2.2 2.6m134.6-1.2c0 .8-.4 1.5-1 1.5-.5 0-.7-.7-.4-1.5.4-.8.8-1.5 1-1.5s.4.7.4 1.5m-94.3 17.1c-.3.3-1.2.4-1.9.1-.8-.3-.5-.6.6-.6 1.1-.1 1.7.2 1.3.5m35 .1c-2 .2-5.2.2-7 0-1.7-.2 0-.4 3.8-.4 3.9 0 5.3.2 3.2.4m19.6 0c-.7.2-1.9.2-2.5 0-.7-.3-.2-.5 1.2-.5s1.9.2 1.3.5m-131.3 27c0 .5-.5 1.5-1 2.3-.8 1.2-1 1.1-1-.8 0-1.2.5-2.2 1-2.2.6 0 1 .3 1 .7m11 22.3c1.2.8 1.1 1-.7 1-1.2 0-2.5-.5-2.8-1-.8-1.3 1.5-1.3 3.5 0m18.7-.4c-.3.3-1.2.4-1.9.1-.8-.3-.5-.6.6-.6 1.1-.1 1.7.2 1.3.5M2120 1386c0 .5-.4 1-1 1-.5 0-1-.5-1-1 0-.6.5-1 1-1 .6 0 1 .4 1 1m-120.3 6.2c-.3.7-.5.2-.5-1.2s.2-1.9.5-1.3c.2.7.2 1.9 0 2.5m90.3 31.4c0 1.7-1.2 1.8-2.8.2-1.8-1.8-1.5-2.7.8-2.1 1.1.3 2 1.2 2 1.9m-445.4 5.1c-1.1 1.1-1.9-.6-1.1-2.4.8-1.7.8-1.7 1.2 0 .3 1 .2 2.1-.1 2.4m245.3 14.7c1.7 2-3.5 2.6-25.1 2.6-18.1 0-18.8-.1-18.8-2s.7-2 21.4-2c16.8 0 21.6.3 22.5 1.4M1646 1446c0 .5-.2 1-.4 1-.3 0-.8-.5-1.1-1-.3-.6-.1-1 .4-1 .6 0 1.1.4 1.1 1m161.6 10.7c-1.1 1.1-1.7-.4-.9-2.3.7-1.8.8-1.8 1.1-.1.2 1 .1 2.1-.2 2.4m195.4-2.7c0 .5-.5 1-1.1 1-.5 0-.7-.5-.4-1 .3-.6.8-1 1.1-1 .2 0 .4.4.4 1m-4.3 2.2c-.3.8-.6.5-.6-.6-.1-1.1.2-1.7.5-1.3.3.3.4 1.2.1 1.9m-4.6 6.8h3.9v10.2c0 7.9-.5 11.5-2 15.6-1.8 4.6-2 7.6-2 24.6 0 14 .3 19.5 1.2 19.8 1.4.5.3 3.8-1.2 3.8-2.3 0-3-5.9-3-25 0-14.6-.4-21.1-1.4-24.2-1.7-5-2.3-18.7-1.1-23.8.4-1.9 1-2.9 1.2-2.3.3.8 2.1 1.3 4.4 1.3m-8 24.2c0 1.3 0 12.1-.1 24-.1 15 .2 21.8.9 21.8 1.4 0 1.4 2.7 0 3.6-2.9 1.7-3.4-2-3.9-26.6-.5-23.3-.4-25 1.3-25 1.1 0 1.7.8 1.8 2.2"/><path d="M1702 1266c0 .5.5 1 1 1 .6 0 1-.5 1-1 0-.6-.4-1-1-1-.5 0-1 .4-1 1m-66 3.5c0 .8.2 1.5.4 1.5s.6-.7 1-1.5c.3-.8.1-1.5-.4-1.5-.6 0-1 .7-1 1.5m76 .3c.8.5 2.6 1.3 4 1.6 1.7.5 2 .4 1-.2-.8-.5-2.6-1.3-4-1.6-1.7-.5-2-.4-1 .2m-60.5 4.2c-.3.5.1 1 .9 1 .9 0 1.6-.5 1.6-1 0-.6-.4-1-.9-1-.6 0-1.3.4-1.6 1m-3.9 1.9c-.3.5.1 1.1.9 1.5.9.3 1.5 0 1.5-.9 0-1.6-1.6-2-2.4-.6m68.9 1.1c.3.5.8 1 1.1 1 .2 0 .4-.5.4-1 0-.6-.5-1-1.1-1-.5 0-.7.4-.4 1m3.1 3.7c.9 5.1 1.4 5.4 1.4 1 0-1.9.6-3.8 1.3-4 .6-.3.2-.6-1.1-.6-2.1-.1-2.2.2-1.6 3.6m12.9-2.7c.3.5.8 1 1.1 1 .2 0 .4-.5.4-1 0-.6-.5-1-1.1-1-.5 0-.7.4-.4 1m-93 5.2c-.4 1-1.1 1.6-1.5 1.3s-1 .4-1.3 1.5-.2 2.2.3 2.5c.4.2.5 1.7.2 3.2-.5 2.6-.4 2.7 1.1 1.1 1.9-1.8 2.2-3.8.7-3.8-.5 0-1-.7-1-1.5 0-1.8 1.7-2 2.3-.3.2.7.8 1 1.2.6s.3-1.9-.3-3.5c-.8-2.3-1.1-2.5-1.7-1.1m6.6-.2c0 .8.4 2.2.9 3 1.2 1.8 1.2.2 0-2.5-.6-1.3-.9-1.5-.9-.5m1 7.9c-.1 2-.5 2.3-3 1.8-3.5-.7-4.3-.1-2.8 2.3.8 1.4.8 2.5-.2 4.3-1.2 2.2-1.1 2.7.8 4.6 1.2 1.2 2.1 2.7 2.1 3.5 0 1.5 2.4 2.8 3.4 1.9.3-.4.6-1.3.5-2.2 0-1.2-.3-1.1-.9.4-.6 1.4-.9.4-.9-3.8-.1-3.2.3-5.7.9-5.7s1-.5 1-1.1c0-.5-.4-.7-1-.4-.5.3-1 0-1-.9 0-.8.5-1.6 1.1-1.8s.9-1.5.6-2.8l-.4-2.5zm-18.3 7.9c-1.6 1.7-1.6 1.8.2 1.8 1 0 2.1-.8 2.3-1.8.6-2.2-.3-2.2-2.5 0m-30 .9c.6.2 1.8.2 2.5 0 .6-.3.1-.5-1.3-.5s-1.9.2-1.2.5m34.2.3c0 .5.5 1 1.1 1 .5 0 .7-.5.4-1-.3-.6-.8-1-1.1-1-.2 0-.4.4-.4 1"/><path d="M1647.2 1303c0 1.4.2 1.9.5 1.2.2-.6.2-1.8 0-2.5-.3-.6-.5-.1-.5 1.3m130.4-1.1c-.4.5.3.7 1.4.4 2.3-.6 2.6-1.3.6-1.3-.8 0-1.7.4-2 .9m-167.5 1.5c.2.2 3.1.6 6.4.9 3.9.4 5 .3 3-.2-3.1-.9-10.2-1.4-9.4-.7m140.7 3.3c.7.3 1.6.2 1.9-.1.4-.3-.2-.6-1.3-.5-1.1 0-1.4.3-.6.6m5.2.3c0 .5.5 1 1 1 .6 0 1-.5 1-1 0-.6-.4-1-1-1-.5 0-1 .4-1 1m-110 5c0 .5.5 1 1 1 .6 0 1-.5 1-1 0-.6-.4-1-1-1-.5 0-1 .4-1 1m2.9 1.7c-1.7.4-3.4 4.3-2 4.3 1 0 4.6-3.9 4-4.3-.2-.2-1.1-.2-2 0m168.5-197.7c0 5.2.1 7.4.3 4.7.2-2.6.2-6.8 0-9.5-.2-2.6-.3-.4-.3 4.8m-.2 14c0 1.9.2 2.7.5 1.7.2-.9.2-2.5 0-3.5-.3-.9-.5-.1-.5 1.8m46.6 3.7c1.2.2 3 .2 4 0 .9-.3-.1-.5-2.3-.4-2.2 0-3 .2-1.7.4m23.6 27.3c0 15.7.2 22.1.3 14.2.2-7.8.2-20.6 0-28.5-.1-7.8-.3-1.4-.3 14.3m-109.4-18c0 .5.7.7 1.5.4.8-.4 1.5-.8 1.5-1s-.7-.4-1.5-.4-1.5.4-1.5 1m4.8-.3c.6.2 1.8.2 2.5 0 .6-.3.1-.5-1.3-.5s-1.9.2-1.2.5m85.6 6.6c-.2.7-.3 8.2-.2 16.7l.3 15.5.5-16.8c.3-9.2.4-16.7.2-16.7-.1 0-.5.6-.8 1.3m-5 15.7c0 9.1.2 12.8.3 8.2.2-4.5.2-11.9 0-16.5-.1-4.5-.3-.8-.3 8.3m-86.4 13c0 .5.5 1 1 1 .6 0 1-.5 1-1 0-.6-.4-1-1-1-.5 0-1 .4-1 1m92.1 5.6c0 1.1.3 1.4.6.6.3-.7.2-1.6-.1-1.9-.3-.4-.6.2-.5 1.3m32.9 30.4c0 .5 1.8 1 4 1s4-.5 4-1c0-.6-1.8-1-4-1s-4 .4-4 1m9.1.6c0 1.1.3 1.4.6.6.3-.7.2-1.6-.1-1.9-.3-.4-.6.2-.5 1.3m2.2 2.4c0 2.5.2 3.5.4 2.2.2-1.2.2-3.2 0-4.5-.2-1.2-.4-.2-.4 2.3m140.8 14.4c.2.2 2.6.6 5.3.9 3 .3 4.3.1 3.5-.4-1.3-.8-9.7-1.3-8.8-.5m90.9 7.6c0 .5.7 1 1.6 1 .8 0 1.2-.5.9-1-.3-.6-1-1-1.6-1-.5 0-.9.4-.9 1m-54.7 12.7c2.6.2 6.7.2 9 0s.2-.3-4.8-.3c-4.9 0-6.8.1-4.2.3m14.2 4c.2 3.2.1 3.5-.2 1-.2-2-.8-3.7-1.4-3.7-1.1 0-1.2 7.7 0 8.2.4.1 1.1 3.4 1.5 7.3.5 4.9.4 6.6-.3 5.5-.8-1.2-1.1-.8-1.1 1.6 0 2 .5 3.1 1.4 3.1 1.2 0 1.5-2.5 1.4-13.9 0-7.6-.4-13.8-.8-13.8s-.6 2.1-.5 4.7m-623.2 1.3c0 2.5.2 3.5.4 2.2.2-1.2.2-3.2 0-4.5-.2-1.2-.4-.2-.4 2.3m601.1 14c0 10.2.2 14.3.3 9.2.2-5 .2-13.4 0-18.5-.1-5-.3-.9-.3 9.3m-554.6-13.3c.6.2 1.8.2 2.5 0 .6-.3.1-.5-1.3-.5s-1.9.2-1.2.5m395.2 1c0 .5 2.4.7 5.2.5 8.9-.5 9.7-.9 2.1-1.1-4 0-7.3.2-7.3.6m-394.2 1c.7.3 1.6.2 1.9-.1.4-.3-.2-.6-1.3-.5-1.1 0-1.4.3-.6.6m413.9 1.8c.6 1.8 2.3 2 2.3.4 0-.8.4-.8 1.4 0 1 .9 1.5.8 1.9-.2s-.4-1.4-2.8-1.5c-2.6-.1-3.3.2-2.8 1.3m160.1 21.8c-.4 2.2-.2 2.7 1.1 2.5.9-.2 1.6-1.2 1.7-2.3.1-2 .1-2-.4 0-.5 1.8-.6 1.8-1.2-.5l-.6-2.5zm4.6 3c.3 1 .6 2.1.6 2.3s1.7.3 3.8.3c3.3-.2 3.4-.2.7-.6-1.6-.2-3.6-1.2-4.4-2.1-1.3-1.6-1.3-1.6-.7.1m-3.4 1.2c.1 1.7 2.9 4.9 3.7 4.1.4-.3-.3-1.6-1.5-2.9-1.2-1.2-2.2-1.7-2.2-1.2m7 4.1c0 .8.5 1.2 1 .9.6-.3 1-1 1-1.6 0-.5-.4-.9-1-.9-.5 0-1 .7-1 1.6m3-.1c0 .8.5 1.5 1 1.5.6 0 1-.4 1-.9s1-1.2 2.3-1.4c1.6-.3 1.3-.5-1-.6s-3.3.3-3.3 1.4m8.6 0c.4.8.7 1.5.9 1.5s.5-.7.9-1.5c.3-.9 0-1.5-.9-1.5s-1.2.6-.9 1.5m7.4-.6-4.5.7 4.7.4c2.5.3 4.4.2 4.1-.3-.2-.4.2-.7 1.1-.7.8 0 1.7.6 1.9 1.2.3.8.6.6.6-.5.1-1.8-.3-1.8-7.9-.8m-27 1.1c0 .5.5 1 1.1 1 .5 0 .7-.5.4-1-.3-.6-.8-1-1.1-1-.2 0-.4.4-.4 1m-167.2 6.7c1.2.2 3.2.2 4.5 0 1.2-.2.2-.4-2.3-.4s-3.5.2-2.2.4m149.3.9c0 1.1.3 1.4.6.6.3-.7.2-1.6-.1-1.9-.3-.4-.6.2-.5 1.3m49.9 34.5c0 21.7.3 32.8 1 32.4.6-.4 1-12.5 1-33.1 0-20.9-.4-32.4-1-32.4s-1 11.7-1 33.1m-50.8-29.6c0 1.6.2 2.2.5 1.2.2-.9.2-2.3 0-3-.3-.6-.5.1-.5 1.8m-173 1c0 1.6.2 2.2.5 1.2.2-.9.2-2.3 0-3-.3-.6-.5.1-.5 1.8m171.9 8.1c0 1.1.3 1.4.6.6.3-.7.2-1.6-.1-1.9-.3-.4-.6.2-.5 1.3m-4 2c0 1.1.3 1.4.6.6.3-.7.2-1.6-.1-1.9-.3-.4-.6.2-.5 1.3m2 0c0 1.1.3 1.4.6.6.3-.7.2-1.6-.1-1.9-.3-.4-.6.2-.5 1.3m-36.3 34.1c.1 16.4.3 33.9.5 39 .1 5-.1 8.9-.5 8.7-.4-.3-.6 4.4-.5 10.3.1 6 .3 9.6.5 8 .3-2.3.8-2.7 3.7-2.7h3.3l.6-8.3c.4-4.5.8-24.7.9-45 .2-28.8-.1-36.7-1-36.7-1.9 0-1.5-1.8.5-2.3.9-.3-.5-.5-3.3-.6l-5-.1zm2.7-27.7c-.3.5-1.1 1-1.6 1-.6 0-.7-.5-.4-1 .3-.6 1.1-1 1.6-1 .6 0 .7.4.4 1m-1.8 81.2c-.3.8-.6.5-.6-.6-.1-1.1.2-1.7.5-1.3.3.3.4 1.2.1 1.9m18.6-82.5c.9.2 2.3.2 3 0 .6-.3-.1-.5-1.8-.5-1.6 0-2.2.2-1.2.5m6.5 0c.6.2 1.8.2 2.5 0 .6-.3.1-.5-1.3-.5s-1.9.2-1.2.5m-505.2 22.2c-.3.5.2.8 1.2.7.9 0 1.6.5 1.4 1.2-.1.8.2 1.1.8.7 1.7-1.1 1.1-3.5-.9-3.5-1.1 0-2.2.4-2.5.9m378.2 10.8c10 .2 26.4.2 36.5 0 10-.1 1.8-.2-18.3-.2s-28.3.1-18.2.2m191 20c.7.3 1.6.2 1.9-.1.4-.3-.2-.6-1.3-.5-1.1 0-1.4.3-.6.6m-2.3 3.3c-.8 1.3.5 1.3 2.5 0 1.3-.8 1.3-1-.2-1-.9 0-2 .4-2.3 1m-561.4 1.6c0 1.1.3 1.4.6.6.3-.7.2-1.6-.1-1.9-.3-.4-.6.2-.5 1.3m550.9 5.5c0 .5.5.7 1 .4.6-.3 1-.8 1-1.1 0-.2-.4-.4-1-.4-.5 0-1 .5-1 1.1m-510 1c0 .5.5.7 1 .4.6-.3 1-.8 1-1.1 0-.2-.4-.4-1-.4-.5 0-1 .5-1 1.1m1.5 5.1c-1 3.6-1.1 6.8-.1 6.8.7 0 .8.3.1.8-2.4 1.6-.8 8.2 1.9 8.2.3 0 .6-3.8.6-8.5 0-5.2-.4-8.5-1-8.5s-1.2.6-1.5 1.2m568.5 9.3c0 .9.6 1.2 1.5.9.8-.4 1.2-1 .9-1.5-.8-1.4-2.4-1-2.4.6m-1.9 1.1c0 1.1.3 1.4.6.6.3-.7.2-1.6-.1-1.9-.3-.4-.6.2-.5 1.3m-1.1 4.3c0 .5.5 1.3 1 1.6.6.3 1 .2 1-.4 0-.5-.4-1.3-1-1.6-.5-.3-1-.2-1 .4m-2 1.7c0 .6.7 1.9 1.5 3 .8 1 1.4 1.4 1.4.9 0-.6-.6-1.9-1.4-2.9-.8-1.1-1.5-1.5-1.5-1m-177 10.6c0 .7.5 2 1 2.8.8 1.2 1 .9 1-1.3 0-1.5-.4-2.7-1-2.7-.5 0-1 .6-1 1.2m37.5 5.8c-.3.5-.1 1 .4 1 .6 0 1.1-.5 1.1-1 0-.6-.2-1-.4-1-.3 0-.8.4-1.1 1m-27.1 2.1c-.3.6-.1 1.5.6 1.9 1 .6.9.9-.1 1.3-.8.3-.4.6.9.6 1.2.1 2.2.5 2.2 1.1s3.3 1 8 1c6.1 0 8-.3 8-1.4 0-.9.9-1.2 2.8-.9 2.6.4 2.6.4.7-1.1-1.1-.8-2.5-2-3.2-2.6-1.7-1.4-19-1.3-19.9.1m23.2.4c.4.8 1.3 1.5 2.1 1.5 1.3 0 1.3-.3.3-1.5-.7-.8-1.6-1.5-2.1-1.5s-.6.7-.3 1.5m56.8 19c0 4.9.1 7.1.3 4.8s.2-6.4 0-9-.3-.8-.3 4.2m-350.3 10.1c0 1.1.3 1.4.6.6.3-.7.2-1.6-.1-1.9-.3-.4-.6.2-.5 1.3m260.2 18.4c0 2.5.2 3.5.4 2.2.2-1.2.2-3.2 0-4.5-.2-1.2-.4-.2-.4 2.3m-194.2 1.6c0 1.1.3 1.4.6.6.3-.7.2-1.6-.1-1.9-.3-.4-.6.2-.5 1.3m300.1.4c0 1.4.2 1.9.5 1.2.2-.6.2-1.8 0-2.5-.3-.6-.5-.1-.5 1.3m1.8 1c0 .5.5 1 1.1 1 .5 0 .7-.5.4-1-.3-.6-.8-1-1.1-1-.2 0-.4.4-.4 1m-2 5.6c0 2.1.4 4.5.9 5.3s.7-.5.4-3.5c-.7-6.1-1.3-7-1.3-1.8m-104.7 15.9c0 2.2.2 3 .4 1.7.2-1.2.2-3 0-4-.3-.9-.5.1-.4 2.3m-70 36c0 4.4.2 6.1.4 3.7.2-2.3.2-5.9 0-8-.2-2-.4-.1-.4 4.3m110.8 47.4c-2 2.7-1.9 3.3.7 4.2 1.2.5 2.2.4 2.2 0 0-.5-.7-1.2-1.6-1.5-1.3-.5-1.4-.9-.4-2.1.7-.9 1.1-1.7.8-2-.2-.2-1 .4-1.7 1.4m-440.5 4.6c-1.1.8-1.6 1.8-1.2 2.2s1.1.1 1.5-.6c.5-.7 1.4-1.1 2-.7.7.5.9.1.5-.8-.3-.9-.7-1.6-.8-1.6 0 0-1 .7-2 1.5m25.2 3.2c.6.2 1.8.2 2.5 0 .6-.3.1-.5-1.3-.5s-1.9.2-1.2.5"/></g><g fill="#BFBFBF" stroke-width="0"><path d="M1638.8 1053.7c.7.3 1.6.2 1.9-.1.4-.3-.2-.6-1.3-.5-1.1 0-1.4.3-.6.6m67 0c2.3.2 4.2.8 4.2 1.3 0 .4 1 .6 2.2.2 2.1-.5 2.1-.6.2-1.3-1-.4-3.9-.7-6.4-.7l-4.5.1zm109 0c.6.2 1.8.2 2.5 0 .6-.3.1-.5-1.3-.5s-1.9.2-1.2.5m77.7.3c1.1.5 2.9.9 4 .9h2l-2-.9c-1.1-.5-2.9-.9-4-.9h-2zm-252.5.9c-1.8.6-.4 1 5.3 1.5 4.3.4 8.1.5 8.4.2.4-.3-1.2-.6-3.5-.6s-4.2-.5-4.2-1c0-1.1-2.3-1.2-6-.1m76.1 1.4c-.9.9-10.6 1.2-39.4 1.3-33.2.2-38.2.4-38.5 1.7-.2.9-1 1.3-2.3 1-1-.3-1.9 0-1.9.6s-.7 1.1-1.5 1.1c-1.1 0-1.5 1.2-1.5 4.4 0 2.5.5 4.8 1 5.1.6.3 1 3.2 1 6.3 0 4.4-.4 6-1.7 6.8-1.1.7-6.9 1-15 .8-12.4-.2-13.3-.1-13.9 1.8-.3 1.1-1.2 1.7-2 1.4-.7-.3-1.6-.1-1.9.4-.4.6.2 1 1.2 1 1.6.1 1.6.2.3 1.3-.8.7-1.6 1.9-1.8 2.7s-1 1.9-1.8 2.3c-2.1 1.2-2 12.7.1 12.7s2.1 8.3-.1 10.1c-1.1.9-1.5 2.6-1.2 6.1l.3 4.8h-9.4c-7.3 0-9.8-.4-11.2-1.6-1.2-1.1-2.5-1.4-3.6-.9-1.6.7-1.5.9.7 1.5 2.2.7 2.3.8.4.9-1.2.1-3.2 1-4.5 2.2-1.3 1.1-1.8 1.8-1.1 1.4 1-.5 1.2 6.6 1 34.5l-.3 35.1-24.7-.1c-16.5 0-24.8.3-24.8 1 0 .5-.8 1-1.7 1.1-1.5 0-1.5.2.2.9 1.8.7 1.8.8-.8 1.5-2.2.6-2.6 1.1-2 2.4.4.9.9 8 1.1 15.8.3 12.5.1 14.3-1.2 14.3-.9 0-1.6-.5-1.6-1 0-.6.5-1 1-1 .6 0 1-.7 1-1.5 0-2.4-1.9-1.7-2.6 1-.6 2.4-.9 2.5-9.6 2.5-4.9 0-8.7-.4-8.4-.9s-.4-1.1-1.7-1.5c-3.3-.9-6.9-.7-6.3.3.3.5 1.5.7 2.5.4s2.1 0 2.5.5c.3.6-1.2 1-3.6 1-2.2.1-4.6.6-5.2 1.3-.8.9-.4 1 1.9.5 2.9-.6 2.9-.6 1 .9-2 1.6-2.2 1.9-2.4 5.6 0 1.1-.5 1.7-1.1 1.4-.6-.4-1 1.1-1 3.9 0 2.6-.5 4.6-1.2 4.8-1 .4-1.4 7.4-1.6 29.4-.4 31.1.7 65.2 1.9 57.4l.6-4.5.1 5.8c.1 3.2-.3 6.7-.9 7.9-.6 1.1-.7 2.3-.3 2.6.4.4.9.1 1.2-.6.3-.9.8-.6 1.6 1 1.2 2.3 1.3 2.3 17.4 2 16-.2 16.2-.2 16.2 1.9 0 1.8-.2 1.9-1.5.9-1-.9-1.5-.9-1.5-.1 0 .6-.5 1.1-1.1 1.1-.5 0-.7-.5-.4-1 .4-.6-.5-1-2-1s-2.4.4-2 1c.3.5.2 1-.3 1-1.7 0 .1 5.3 1.9 5.7 1.1.3 1.9 1 1.9 1.6s.7.2 1.5-.9c1.1-1.5 1.5-1.6 1.6-.4.1.8.5-.1.9-2 .7-3.4.7-3.4.9 1.2 0 2.7-.3 4.8-.9 4.8-.5 0-1 1.8-1 4.1 0 2.8.4 3.8 1.2 3.3s.9 0 .5 1.6c-.4 1.7-.1 2.3 1.4 2.7 1.4.4 1.8 1.1 1.3 2.5-.4 1.4-.2 1.8.5 1.4.6-.4 3.6-.4 6.5-.1 4.1.5 5.5 1.2 5.9 2.6.7 2.8 6.7 2.7 7.4-.1.4-1.4 1.4-2 3.7-2.1 1.7 0 8.3-.1 14.6-.1l11.5-.2-.1 5.5c-.2 8.7-1.4 14.9-2.9 14.9-2.2 0-2.7 1.8-1.5 5.5 1.9 5.9 3.9 4.4 4.3-3.3l.3-6.7.2 8.2c.2 6.3.5 8.3 1.6 8.3.8 0 1.6.6 1.9 1.2.6 1.7 6.7 5.2 6.7 3.9 0-.5-.6-1.2-1.2-1.4-.7-.3.1-.6 1.7-.6 2.3-.1 2.6.2 1.5.9-1.3.8-1.3 1 .2 1 .9 0 1.8-.5 2-1.1.4-1.3 15.8-.2 15.8 1.2 0 .5-3.5.9-7.7.9-4.3 0-8.3.4-9 .8-.6.4 2.9.5 7.8.4l8.9-.4v70c0 61-.2 70.1-1.5 71.2-.8.7-1.5 1.9-1.5 2.7 0 .7.7 1.6 1.5 1.9 1.1.5 1.5 2.3 1.5 7.4 0 4.6.5 7.1 1.4 7.9.9.7 1.7.8 2 .2.3-.5 1.5-.7 2.6-.4s2 .1 2-.5 1-.8 2.2-.4c2 .5 2.1.6.3 1.2-1.6.6-1.5.8 1.1 1.6 3.7 1.3 23.1.1 24.6-1.4.9-.9.7-1.2-.8-1.3-1-.1-.1-.5 2.1-1 4.3-.9 398.1-1.1 397.2-.2-.3.3-3 .9-5.9 1.3l-5.3.8 5.2.1c2.8 0 5.9.4 6.9.8 1.4.5 1.6.2 1.2-1.5-.4-1.5-.2-2.2.8-2.2.8 0 1.4.7 1.4 1.5s.9 1.5 2 1.5c2.5 0 2.7-2 .3-2.1-1.1 0-1.3-.3-.6-.6.7-.2 2.3.3 3.5 1.1 1.2.9 2.5 1.6 2.9 1.6 1.1 0 .5-12-.6-12-.5 0-.3-.5.5-1 .9-.6 1.1-1.3.5-1.8-1.2-.8-1.7-8.2-.6-8.2.4 0 .5-2.1.1-4.8-.3-2.6-.3-17.3 0-32.7l.5-28 4-.6c3.8-.6 3.7-.6-.8-.4-2.7.1-4.3-.1-3.6-.5.6-.4 11.2-.8 23.5-.9 19.5-.1 22.3.1 21.8 1.4-.8 1.9.5 1.9 2.5.1.9-.8 3.5-1.6 5.9-1.9 4.7-.5 8.2-3 8.2-5.9 0-1.1.5-1.6 1-1.3.6.3 1 .2 1-.4 0-.5 1-1.1 2.3-1.3 1.9-.3 2.2-1 2.5-4.8.4-6.6 1.1-9 2.6-9 .8 0 1.6.4 1.8.9s2.1.6 4.3.2c3.7-.7 3.5-.8-3.5-1.5-9.6-.9-11.8-1.5-9.9-2.7s14.6-1.1 15.4.1c.3.5 1.2.7 2 .3 1.1-.4 1.3-.1.9 1.1-.9 2.3 2.2 2 4.7-.5 1.1-1.1 1.8-2.7 1.5-3.4-.3-.9 0-1.2.8-.9.7.3 1.9-.2 2.6-1.1.7-.8 2.1-1.5 3.2-1.5 1.4 0 1.9-.6 1.6-2.3-.2-1.8-.9-2.2-4.1-2.2-3 0-3.7-.4-3.8-2v-2l-.9 2c-.6 1.3-.9-1.3-.9-7.7-.1-6 .3-9.9 1-10.4.6-.3.9-1.7.6-3.1l-.5-2.5 12.4.4c9.4.3 12.4.1 12.4-.8 0-.7-.6-1.5-1.2-1.7-.8-.3-.6-.6.4-.6.9-.1 2.2-.9 2.7-1.9 1-1.6 1-1.6 1.1 0 0 1-.4 1.8-1 1.8-.5 0-1 .8-1 1.7 0 1.5.4 1.3 2-.7 1.4-1.8 1.8-3.6 1.5-6.3-.3-3.3-.2-3.7 1-2.7 1.3 1 1.5.8 1.4-1.6 0-1.6-.3-2.3-.6-1.7-1 2.6-1.9 1.2-2.1-3.2-.1-2.8.2-4.4.8-4 .6.3 1-.4 1.1-1.7 0-1.3.3-1.7.6-1.1.8 2.1 2.2 1.5 1.6-.7-.4-1.5 0-2 1.3-2 1.6 0 1.7.2.4 1-1.1.7-.6 1 2 1 3.1 0 3.7.4 5.2 4 .9 2.2 2.1 4 2.7 4 1.5 0 4.1-5.4 4.1-8.7.1-2.4.2-2.5 1.1-1.1 1.3 2.4 4.6 2.3 5.9-.1 1.6-3.1 1.2-7.9-.7-9-1.7-.9-1.7-1 0-1.6 1.9-.8 2.3-4.5.7-6.1-.7-.7-1.1-13.5-1.3-35.9-.2-26.7-.5-34.9-1.4-35.2-2.7-.9-3.3 5.5-3.4 36-.1 31.1-.8 41.1-2.3 31.7-.6-3.7-.2-96.3.4-103.7.1-1.3.6-2 1.2-1.7.5.3 2.5.3 4.4 0 3.7-.8 4.7-3.3 1.4-3.8-1.2-.2-2.1-.8-2.1-1.3 0-.6.9-1.1 2.1-1.3 1.5-.3 2-1.1 2-3.3 0-3.4.4-3.3-4.9-1.4-3.9 1.3-4.1 1.3-4.1-.5 0-1.3.9-2 2.8-2.3 2.5-.4 2.5-.4-.5-.6-2.6-.1-3.3.3-3.3 1.8 0 1.4-.5 1.8-2 1.4-1.1-.3-2-1.1-2-1.7 0-.8-2.9-1.2-8.7-1.4-5.6-.1-9-.7-9.5-1.5s-.8-.9-.8 0c0 1.5-3.3 1-3.8-.7-.3-.7.1-1.6.9-2 .9-.6 1-1.3.3-2.2-.6-.7-1.1-4.7-1.2-8.8-.2-5.2-.7-7.8-1.7-8.6-.8-.6-1.5-1.9-1.5-2.9 0-1.4-.3-1.5-1.5-.5-2 1.6-1.9.1.1-2.1 1.4-1.6 1.4-1.8-.4-2.3-1.1-.4-3.1-.2-4.6.3-1.8.8-2.6.7-2.6 0s-1.1-.9-2.7-.6c-3.9.7-5.3-.2-5.3-3.5 0-1.7-.4-2.7-1-2.3-.5.3-1 1.7-1 3.1 0 1.3-.3 2.4-.7 2.4-.5 0-.8-5.9-.8-13 0-7.2.3-13 .8-13 .4 0 .7 1.2.7 2.6 0 2.8 1.5 2.5 2.3-.6.4-1.6-.3-2.4-3.1-3.7-3.8-1.8-5.4-3.2-4.7-4.4 1.3-2-46.2-2.8-48.3-.7-.6.6-2.6 1.1-4.4 1.1-1.8-.1-2.7.1-2 .4.6.3 1.2.9 1.2 1.4 0 .6-.4.8-.9.5s-.9 2.5-1 6.2-.5 6.8-1 7-.7 1.1-.4 2.2c.6 2.3-2.5 4.1-5.6 3.3-1.5-.4-2.6.1-3.5 1.3-1.5 2-1 2.3-8.7-4.9-1.8-1.6-1.9-1.6-1.9 2.3 0 2.8-.4 4-1.4 4-.8 0-1.7.6-1.9 1.2q-.6 1.5-.6 0c-.1-.6-.5-1.2-1.1-1.2-1.4 0-1.2 2.8.2 3.2.9.3.9.6.1 1.1-1.4.9-4.6-2.1-3.8-3.4.4-.5.1-.9-.4-.9-1.4 0-1.4.6-.1 3 .5 1 .7 2.6.3 3.6-.6 1.6-.7 1.6-1.4-.2-.6-1.6-.8-1.4-.8.9-.1 1.5-.8 3-1.6 3.3-1 .4-1.5 1.9-1.5 3.8v8.5c0 3.8.6 6.1 1.7 7.4 1.7 1.8 1.6 2-.7 3.7-2.5 1.9-2.5 2.1-2.8 19.9-.3 16.6-.2 18 1.5 18.4 1 .2-4.9.5-13.1.6-8.3.1-15.2.4-15.5.6-.2.3 6.3.5 14.5.6 9 .1 13.9.4 12.4.9-1.4.4-2.1.8-1.7.9.5.1.1.8-.7 1.7-1.3 1.3-4.4 1.5-19.6 1.3-10-.1-18.3-.6-18.6-1.1-.3-.4 1.9-.9 4.8-.9 2.9-.1 11.4-.5 18.8-.9 13.4-.8 13.4-.8-5-.5-10.2.1-17.3 0-15.7-.2 2.8-.4 3.1-1 2.1-3.7-.7-1.9-2.6-2.2-2.2-.4.2.7-.2 1.4-.7 1.5-.6.2-1-.6-.9-1.7 0-1.1.2-12.2.3-24.8.2-16.1.5-22 1.2-20.2.8 1.8 1.2 2.1 1.8 1.1.7-1.1.9-1.1 1.3 0 .2.7 1.1 1 2.2.6 1.3-.5 1.6-1.6 1.4-3.9-.2-2.6-.8-3.4-2.7-3.6-1.5-.3-3 .3-3.8 1.4-1.2 1.7-1.3 1.6-1.3-.5 0-2.3-10.7-13.7-11.9-12.6-.3.3 0 1 .7 1.4s-2.6.6-7.5.4c-4.8-.3-9.2-.9-9.7-1.4-.6-.5-1.8-.9-2.8-.9-1.6 0-1.8-1-1.8-8.9 0-7 .3-9 1.5-9.5 1.8-.7 2-4.7.3-6.4-.9-.9-.9-1.2 0-1.2 2.5 0 1-2.8-1.8-3.4-2.2-.4-3-1.1-3-2.6 0-1.9-.6-2-10.2-2-5.7 0-11.4-.2-12.8-.4s-2.8.2-3.2.8-.8-23.1-.8-52.7c0-47.1.2-53.7 1.5-53.7 1.7 0 1.9-.9.5-3-.8-1.3-1-1.2-1 .3 0 1-.5 1.5-1.1 1.2-.7-.5-.5-1.5.5-3.1 1.9-2.7 2-3.4.6-3.4-.6 0-1.5 1.1-2 2.5-1.3 3.4-1.7 3.1-1.2-.7.3-1.8 1.2-3.8 2.1-4.5 1.5-1.1 1.5-1.2-.1-1.3-.9 0-1.8.5-2 1.1-.4 1.2-4.6 1.9-6.2 1.1-.4-.3-.2-.9.5-1.4.9-.5.4-.6-1.3-.2-2 .4-2.8.2-2.8-.7 0-1-.3-1-1.2-.1-.7.7-2.3 1.1-3.7 1.1-2.4-.2-2.4-.2-.3-.6s2.2-.8 2.2-12.4V1061h-4.9c-4 0-5 .3-5.4 2-.3 1.1-1.2 2-2.1 2-1.6 0-2-.9-1.6-4.7.1-2.4-3.2-3.9-6.7-3-1 .3-.5.5 1.3.6 2 .1 3.4.7 3.8 1.7 1 2.5-.2 3-1.8.8-1.4-1.8-3.1-1.9-41.7-1.9-22.2 0-39-.3-37.4-.6 1.7-.4 18.5-.8 37.5-1l34.5-.4-30.5-.3c-37.2-.4-47 .2-47 2.8 0 2.1-2.6 3.4-3.4 1.7-.3-.9-.5-.9-.5 0-.1.7-.7 1-1.4.7-1-.4-1.3.6-1.2 4 .1 2.5-.2 4.3-.7 4-.4-.3-.6 2-.3 5.1.8 8.2.2 9.5-4.5 9.5-2.1 0-4.2.5-4.5 1.1-.5.7-3.2.9-7.9.5-4-.3-6.3-.2-5.2.2 2.9 1.2.8 1.9-5.1 1.8-4.3-.1-5.3.2-5.3 1.5 0 .9-.7 3-1.5 4.5-1.2 2.4-1.4 5.9-.9 19.6.5 16.5.5 16.8-1.5 16.8-1.2 0-2.1-.5-2.1-1 0-.6.5-1 1.1-1s.4-.7-.5-1.5c-2-2.1-2.4-1.9-1.8 1l.4 2.5-11.3-.1c-6.3-.1-10.6-.3-9.6-.6 2-.5 2.2-1.9.4-2.6-1-.4-1.3-4.3-1.4-15.8-.1-8.4.1-15.7.4-16.3.4-.6.6-2.7.4-4.8-.2-3.1.1-3.8 1.6-3.9 1.1 0 1.3-.3.5-.6-.7-.3-2.2.3-3.3 1.3-1.8 1.6-2 1.7-3.2 0-.7-1-1.7-1.7-2.2-1.6-.6.2-4.3.2-8.2.1l-7.3-.1v-6.8c0-8.3-1-14.3-2.1-13.6-1.2.7-1.1 4.4.1 4.4.6 0 1 3.3 1 8 0 7.5-.1 8-2.1 8-2.1 0-2.1-.3-1.7-9.8.5-10.2-.8-15.2-4.2-15.2-1.1-.1-.8-.6.9-2.1 1.3-1.1 2.2-2.2 1.9-2.4-.2-.3-1 .1-1.7.8m-70.8 2.4c-.7.2-2.1.2-3 0-1-.3-.4-.5 1.2-.5 1.7 0 2.4.2 1.8.5m69.8 6c2 2 2.2 3.1 2.1 11.5-.1 5.1.2 10 .7 10.8.8 1.1 3.7 1.6 11.5 2 15.1.7 14.5-.3 14.8 23.4l.3 19.1 12.5.3c18.7.4 17 2.2 17-17.4 0-24 .3-24.3 20.2-24.4 7.5 0 14.3-.3 15.2-.6 1.3-.5 1.6-2.5 1.6-11.4 0-9.1.3-11.1 1.9-13.1l1.9-2.4h81.4l2.4 2.8c2.2 2.6 2.4 3.7 2.4 12.7 0 12-.1 12 13.3 12 14.5 0 13.1-6.1 13.7 59.9l.5 55.6 12 .3c12.1.2 15.9 1.1 17 4.1.4.9.6 8 .5 15.8-.1 17.2-.8 16.4 14.8 16.2 9.9-.2 11.2 0 14 2l3.2 2.2.2 31.7.3 31.7 23.1.3c18.5.2 23.4 0 24.2-1.1.8-.9 1.3-12 1.4-35.2l.3-33.8 2.7-2c2.5-1.8 4-2 14.9-1.8 8 .1 12.6-.2 13.5-1 1-.8 1.4-3.8 1.4-11 0-17.3 1-17.9 27.9-17.9 15.4.1 19.2.4 22.1 1.8l3.5 1.7.3 14c.3 17 .6 17.5 9.7 17.5 4.8 0 7 .5 9.6 2.3 4.1 2.8 4.8 5.5 4.1 16.2-.6 11-.1 11.5 12.8 11.5 9.7 0 9.9.1 12.9 3.1l3.1 3.1v62.1c-.1 47.3-.4 62.6-1.3 63.8-1.9 2.5-5.3 3.9-9.6 3.9-6.2 0-8.5 2.7-7.6 9.2.9 6.6-.9 13.2-4.4 15.5-2 1.4-5.3 1.9-13.6 2.3l-11 .5.4 12c.2 9.5 0 12.9-1.4 16.2-1.9 4.8-3.1 5.3-14.1 5.3-10.8 0-11.9.8-12 9.7-.2 11.3-.3 12-2.3 14.4-1.9 2.4-2 2.4-30.3 2.9l-28.3.5-.6 39.5c-.8 45.9-.9 46.4-8.1 47.5-2.4.3-100.1.5-217.1.3-209.4-.3-212.9-.3-214.3-2.2-1.2-1.7-1.4-14.2-1.4-80.2 0-70.4-.2-78.2-1.6-78.8-.9-.3-6.2-.6-11.8-.6-11.8 0-15.9-1.1-17.5-4.6-1.2-2.7-1.4-25.1-.2-29.4 1.2-4.6 6-6 20.6-6 12.2 0 13.2.2 16 2.4 2.9 2.3 3 2.7 3.2 11.1.1 4.7.5 10 .8 11.6l.7 2.9h10.3c5.9 0 11.5.5 13 1.2 5.5 2.5 5.5 1.6 6.2 69.3l.6 62.5h63.7v-40.3c0-38.1.1-40.3 2-42.7 1.8-2.4 2.4-2.5 14.6-2.8 7-.2 14.1-.1 15.8.2 6.1 1.2 6.1 1.1 6.6 45.6l.5 40.5h66l.5-41.7c.3-22.9.7-41.8 1-42.1 2.8-2.5 7.4-2.7 58-2.7h53.1l2.4 2.5 2.5 2.4v82.1l37.3-.2 37.2-.3.3-40.6.2-40.6 2.6-2.4 2.6-2.4 41.9-.3 41.9-.3v-12.4c0-11.6.1-12.6 2.4-15.2 2.4-2.7 2.8-2.8 14.8-3.3l12.3-.5.3-17.4c.2-16.7.4-17.6 2.7-20.7 2.1-2.7 3.2-3.2 8.7-3.8 3.4-.4 6.6-1.3 7-1.9.4-.7.8-21 .8-45.2 0-33.5-.3-44.6-1.3-46.5-1.2-2.5-1.5-2.5-14.9-2.8-18-.3-17.3.5-16.3-21.3 1-21.7 1.6-20.9-15.5-20.9-7.1 0-13.1.4-13.5.9-.3.5-.6 16.1-.8 34.5-.2 30.7-.4 33.7-2 35.3s-3.8 1.8-18 1.8h-16.2l-.5 49c-.5 50.4-.7 52.4-4.6 53.9-.8.3-8.1.6-16 .6-13.1 0-14.6-.2-16.4-2-1.9-1.9-2-3.3-2-34.4v-32.4l-2.2-.6c-1.3-.3-20.2-.6-42.1-.6-25.5 0-40.5-.4-41.8-1-1.8-1-1.9-2.3-1.9-22.4 0-18.6.2-21.5 1.7-22.7 1.2-1 5.9-1.5 17.7-1.7 9.1-.2 16.6-.8 17.4-1.4.9-.8 1.2-6.5 1.2-22.4 0-18-.2-21.5-1.6-22.8-1.3-1.3-4.3-1.6-17-1.6-14.3 0-15.6-.2-17.2-2-1.4-1.8-1.8-4.9-2.2-21.3l-.5-19.2-10.7-.5c-6.1-.3-11.2-1-11.9-1.7-.8-.8-1.1-15.4-1-54.1.2-52.2.2-53.1-1.8-54.2-1.4-.7-13.7-.9-37.8-.8l-35.8.3-.3 21-.2 21-9.8-.6c-16.3-1.1-26.7-1-28 .3-.8.8-1.2 5.6-1.2 15.2 0 11.6-.3 14.3-1.7 15.8-1.5 1.7-3.9 1.8-32.8 1.8-25.3 0-31.5-.3-33.1-1.4-1.8-1.4-1.9-3.3-2.4-36.5-.3-22.8-.9-35.4-1.6-36.1s-11.1-.9-32-.8l-30.9.3-.3 20.2c-.2 15.2-.6 20.3-1.5 20.4-.6.1-7.9.4-16.2.8l-15 .6-.3 32.8-.2 32.8-2.6.9c-3.4 1.3-30.7 1.3-33.6 0l-2.3-1.1.3-35.7c.3-29.2.6-36.1 1.8-38 1.4-2.1 2.1-2.2 13.2-2.2 17.9 0 16.2 1.9 16.2-19 0-24-.8-23 18.1-23 13.9 0 14 0 14.9-2.4.5-1.4.7-6.2.4-10.8-.5-9 .5-11.6 5.8-13.8 1.3-.5 16.9-.8 37.5-.7 34.8.2 35.3.2 37.4 2.4M1904 1081c0 2.2-.4 4-1 4-.5 0-1-1.8-1-4s.5-4 1-4c.6 0 1 1.8 1 4m-303.8 14.2c-.7.7-1.2.8-1.2.2 0-1.4 1.2-2.6 1.9-1.9.2.3-.1 1.1-.7 1.7m221 11.3c.4-2.6.5-2.4.7 1.2.1 4.1.2 4.3 3.4 4.3 1.7 0 4.2.3 5.5.6 1.8.5 2.4.2 2.9-1.5.3-1.2 1.3-2.1 2.4-2.1s1.9-.7 1.9-1.5-.6-1.5-1.4-1.5-1.8-.5-2.1-1c-.4-.7 7.3-1 22.4-1 19.9 0 23.1.2 23.1 1.5 0 2 1.6 1.9 2.4-.1.3-.8 1-1.2 1.6-.9.6.4.8 1.1.4 1.7-.3.5.2.8 1.2.7 3.7-.7 4.4.9 4.4 10q0 8.85-1.5 11.7l-1.5 2.9-.1-2.5c0-1.4-.3-1.9-.6-1.3-.3 1-6.5 1.3-26 1.3-24.6 0-25.5.1-26 2-.5 1.7-1.4 2-6.9 2h-6.4l-.2-4.3-.1-4.2-.7 4.5c-.4 2.7-.7-2.1-.7-12 0-9.1.3-14.5.7-12 .6 4.2.6 4.3 1.2 1.5m-176.4.3c.2.7-.3 1.2-1.2 1.2s-1.6-.7-1.6-1.6c0-1.7 2.2-1.4 2.8.4m57.3 29.9c.1 48.6-.2 43.4 2.7 42.6 4.4-1.1 71-.9 70.6.2-.2.5.9 1 2.6 1.1 1.6.1 3-.4 3-1s.4-.5.9.3c.7 1.1 1.2.7 2.3-1.5 2.1-4.3 1.6-16-.9-20.6-2.4-4.5-4-3.7-4.6 2.2-.2 3.1-.4 2.1-.5-3.1-.1-4.8.2-7.9 1-8.7 1-1 1-1.5-.2-2.2-2.5-1.5 3.9-2.4 8.9-1.2 2.5.7 7.8 1 11.8.8l7.2-.4.3 20c.2 11 0 20.2-.4 20.4-.4.3-.3 1.3.2 2.2s1.2 3 1.5 4.6c.6 2.7.7 2.8 5.2 2.1 5.6-.8 8.3-2.4 8.3-4.8 0-1.6-.7-1.8-4.4-1.6-2.4.2-4.2 0-3.9-.4.2-.4 11.1-.7 24-.7 18.5.1 23.8-.2 24.5-1.2.5-.7 1.2-1.9 1.7-2.7s1.4-1 2-.6c.9.5.9 1.1-.2 2.3s-1.3 3.2-1 6.8l.5 5.2 2.1-2.1c1.4-1.4 2.2-1.7 2.5-.9.2.7 2.5 1.2 5.7 1.2 3.9 0 5.4.4 5.9 1.6.9 2.4.7 8.2-.3 8.6-.5.1-1.1 2.1-1.2 4.3-.2 3.3.3 4.9 3.2 8.7 3.2 4.3 3.7 4.6 9.3 5.2 3.2.3 8.7.6 12.2.6 5.1 0 6.3-.3 6.7-1.8.3-.9.4 2.1.4 6.8 0 7.4-.1 7.8-.7 3.5-.5-3.8-.7-2.7-.6 4.6.1 5.3.4 9.2.8 8.5.5-.6.8-.2.8 1.1 0 1.2-.6 2.3-1.2 2.6-.7.2-1 .8-.6 1.2 1.7 1.8 3-1 2.5-5.4-.3-2.5-.2-8.7.2-13.6.8-8.8.8-8.7.9 5.7.1 14.6.1 14.8-2.1 14.9-1.3 0-1.6.3-.8.6 1.1.5 1.1.7 0 1.5-1 .7-.6.8 1.3.4 1.4-.3 3.7-.2 5 .3 1.9.8 1.5 1-2.4 1-2.7.1-4.8.6-4.8 1.2s.9.8 2 .4c1.1-.3 2-.2 2 .4 0 .5-.8 1.2-1.7 1.4-1 .2 0 .3 2.2.1 2.9-.3 3.6-.2 2.5.6-1 .6-1.1 1-.2 1 .6 0 1.2 1.2 1.2 2.6v2.6l11.9-.4 12-.3.5 2.9c.3 1.6.6 7.7.6 13.7v10.9l-4.7.2-4.8.1 4.5.6c3.2.4 4.7.2 5.4-.8.4-.7.6-7.3.4-14.7s0-13.4.4-13.4c1.3 0 2 8.5 1.6 19.4-.1 5.8.1 10.6.5 10.6.5 0 .7-6.5.6-14.5-.2-14.7.3-18.6 1.5-12 .9 4.7.5 26.4-.5 29-.7 1.8-.8 1.8-.8.2-.1-1.1-.6-1.7-1.3-1.4-.7.2-1.2 1-1 1.6.1.6-.2 1.1-.8 1.1-.5 0-1-.6-1-1.3 0-1.1-5.2-1.4-12.5-.7-1.7.2-1.6.3.5 1 2 .6 1.4.8-2.5.8-2.7 0-4.4-.2-3.7-.5 2.6-1 .9-1.8-4.3-1.9-5.4 0-7 1.1-6.4 4.2.1.5 0 2.2-.1 3.9l-.2 3-1-3.4c-.7-2.6-1.2-3.1-1.9-2-.5.8-.9 2.7-.9 4.2 0 2.3.4 2.7 1.8 2.3 1.7-.6 1.8.6 2.1 18.1.2 19.8-.8 23.9-1.9 7.5l-.7-9.7-.1 7.7c-.1 4.2-.5 8.5-.8 9.5-.5 1.5-.4 1.6.6.3 1.2-1.5 1.2-1.5 0 3.5-.6 2.5.1 8.6.9 8.1.5-.3.7-1.5.4-2.6s0-2 .6-2 1.1.9 1.1 2c0 1.4.7 2 2.3 2.1 1.7.1 1.8.2.4.6-1.9.5-1.7 3 .2 2.6.6-.2 1.1.8 1.1 2.2 0 2.9.2 2.9 4.7 1.3 3.2-1.2 4.3-3.1 2.3-4.3-.5-.3-1-1.2-.9-1.8q0-1.35.6 0c.7 1.8 72.3 1.9 74.1.1.9-.9 1.2-.7 1.2 1.2 0 1.5.3 2 .8 1.4.4-.7.7 11.7.7 27.6 0 21.4-.3 29.1-1.2 30.2-.7.8-1.6 3.6-1.9 6.1-.5 3.5-.3 5 1 6.2 2 2.1 2.1 4.5.1 4.5-1.1 0-1.5 1.2-1.5 4.6v4.6l5.3-.4c5.1-.3 5.2-.2 5 2.3-.1 2.4.3 2.7 4.4 3.3 6 .8 62.1.8 66.2 0 2.8-.6 4.2-2.7 2.4-3.7-.5-.2-5.3-.1-10.8.3-8.8.6-10.3.5-12.7-1.1-2.4-1.7-4.9-1.9-24.2-1.9-13.2 0-21.7-.4-22.1-1-.4-.7 7.5-1 22.9-1h23.6v-3.8c0-2-.4-4.2-.8-4.8-1.2-1.9-4.6-2.4-7.7-1-2.4 1-3.2 1-4.7-.3-1-.9-1.8-2.2-1.8-2.9 0-1.2.3-1.2 1.5-.2s1.5 1 1.5-.3c0-1 1.5-2.1 4-2.8 2.2-.7 4-1.6 4-2.1s.8-.4 1.8.1c1.2.7 2.4.4 4.2-1.1l2.5-2 .3-45.1c.2-34 .6-45.3 1.5-45.9.8-.5.5-.8-.8-.9h-2l2-.9c1.1-.4 4.1-.5 6.6-.3 2.9.4 4.9.1 5.3-.6 1.1-1.7 3.4-1.3 5.6.9l2 2v-3.9c0-2.2.5-4.1 1.2-4.3.6-.2 1.2-2.1 1.2-4.1.1-2 .5-3.7 1-3.7s.7-6.8.3-16c-.3-9.3-.1-16 .4-16s.9 1.8.9 4 .5 4 1 4c.6 0 1 4.7 1 12s-.4 12-1 12c-.5 0-1 1.8-1 4s.4 4 .9 4 1.1.9 1.4 1.9c.6 2.5 6.6 3.7 11.5 2.5l3.5-.9.1-10.7c.1-5.9.6-11.1 1.1-11.6.6-.4 5.2-.6 10.3-.4 7 .3 9.2.7 9.2 1.8 0 .8.5 1.4 1 1.4 1.6 0 1.3 71.7-.2 72.3-1 .4-1 .7 0 1.5.7.5 1.4 2.2 1.5 3.8.2 2.7-.1 2.9-3.3 3.1-1.9 0-4.3.1-5.2.2-2.2.1-2.4 2.1-.2 2.1 1.2 0 1.4.9 1 4.7-.6 6.1-.6 6.3-1.6 3.3-.8-2.4-.8-2.3-.9.7-.1 1.8.3 3.2.9 3 .6-.1 1.1 5.1 1.3 13.6.1 7.7.1 13.4-.1 12.8s-1.8-1.1-3.5-1c-3.1.1-3.1.1-.7.9 1.6.5-.4.8-6 .7-7.8 0-8.1-.1-3-.7l5.5-.7-5-.1c-2.7-.1-5.7.2-6.5.8-.9.5-1.7.5-2.1-.1-1-1.6-6 .8-5.3 2.6.4 1 0 1.5-1 1.5-1.2 0-1.6 1-1.6 4 0 2.2-.4 4-1 4-.5 0-1.1 4.4-1.3 9.7l-.3 9.8-.2-10.2c-.1-5.9.2-10.4.8-10.8.6-.3 1-1.4 1-2.3 0-1.5-.2-1.5-1-.2-.8 1.2-1 1-.8-.9.2-1.3-.1-2.5-.7-2.7-.6-.3-.9 4.4-.7 13.1l.4 13.5h-39.5c-34.3 0-39.6.2-40.1 1.5-.3.8-.9 1.4-1.3 1.3s-2 .2-3.5.6c-1.9.6-2.8 1.5-2.9 3 0 2-.1 2-.9.1-.6-1.4-.9-1.6-.9-.4-.1.8.6 2.4 1.4 3.5.8 1 1.4 2.6 1.5 3.4 0 1.3-.1 1.3-1 0-.7-1-1 2.4-1 10.5s.3 11.5 1 10.5c.7-1.1 1-.4.9 2.5 0 2.5-.3 3.3-.7 2.3-.4-.9-.7 6.7-.8 17-.1 17.6 0 17.9.6 5.7l.6-13 .2 14.3c.1 8.2-.2 14.1-.7 13.8-2.5-1.6-2 5.7.6 8.2.7.7 1.3 1.8 1.3 2.3 0 1.3-1.7 1.1-2.4-.4-.5-1-.7-1-1.2 0-.4 1-8 1.3-33 1.3h-32.5l.3-44c.2-24.2 0-44-.4-44-.5 0-.9 16.3-1 36.2l-.3 36.3-.5-34c-.3-18.7-.7-33.1-.8-32-.2 1.7-.4 1.8-1.2.5-1.4-2.1-1.2-3 .5-3 .8 0 1.5-.7 1.5-1.5 0-1.8-1.6-2-2.3-.3-.3.8-.6.6-.6-.5-.1-.9-.5-1.7-1.1-1.7-.5 0-1-.7-1-1.5s-.5-1.5-1-1.5c-.6 0-1.3.7-1.6 1.5-.5 1.3-7.7 1.5-56.5 1.5H1811l-.1 2.2c-.1 2.2-.1 2.2-1-.2-.8-2.3-.8-2.2-.5.7.2 3-.4 3.8-2.6 3.4-.5 0-.8.4-.8.9 0 .6-2.4 1-5.3 1-5.1 0-5.3.1-6.5 3.3-2.3 6.5-1 16.7 2.3 16.7 1.1 0 1.5-1.1 1.5-4 0-3 .4-4 1.6-4 .9 0 1.8.9 2.1 2 .4 1.3 1.4 2 3 2h2.4l-.1 29.6c-.1 16.3.1 29.8.4 30.1 1.5 1.5.2 2-4.4 1.5-4.2-.4-5-.2-5 1.2 0 1.5-2.5 1.6-26.2 1.6l-26.3-.1-.1-5.7c0-3.1.2-4.9.4-4 .2 1 .8 1.8 1.3 1.8s.9-13 .9-32c0-20.7-.4-32-1-32-.5 0-.9-1.2-.9-2.8.1-1.9.3-2.1.6-.8.4 1.5.7 1.6 1.4.5.8-1.2 1-1.2 1.8 0 1 1.5 4.1.8 4.1-1 0-.6-.9-1.3-2-1.6-1.9-.5-2.4-1.4-2.1-4.1.1-.6-.3-1.2-1-1.2-.6 0-.9-.7-.5-1.5.6-1.6-2.8-3.9-4.7-3.1-.7.2-.5.5.4.5.9.1 1.9.8 2.3 1.6.9 2.4-.9 1.7-4-1.4-4.1-4.2-6-4.7-16.4-4.1-5.1.3-9.4.2-9.7-.3-.9-1.5-4-.6-6.1 1.8-2.5 2.9-4 3.2-4.8 1-.4-.8-1.3-1.5-2.1-1.5-1 0-1.3.6-.9 1.6.4.9.2 1.3-.5.8-.6-.4-1.6 0-2.1.7-.7 1.1-1.1 1.1-1.5.1-.2-.6-1.1-1.2-1.9-1.2s-1.4.6-1.4 1.2c0 1-.2 1-.9 0-.6-1.1-5.4-1.3-22.8-1-21.4.3-21.9.3-21.9-1.7.1-1.6-.5-2-3.2-2h-3.3l-.2-14.3c-.1-7.8.2-14.2.6-14.2.5 0 .5-1.5.1-3.2-.5-2.7-.4-3.1.7-2.1 1.2.9 1.4.3 1.4-3.8 0-2.7-.3-4.9-.7-4.9-.5 0-.8 1.1-.8 2.5s-.5 2.5-1 2.5c-.6 0-1-.8-.8-1.8.2-1.1-.3-1.6-1.4-1.4-.9.1-1.9-.1-2.2-.6-.2-.4.5-.9 1.6-.9 4.5-.4 3.6-1.9-1.2-2-4.4 0-4.9.2-3.8 1.5 1.1 1.4.9 1.3-1.1 0-1.3-1-3.6-1.6-5-1.4s-1.8.1-.8-.1c.9-.2 1.7-1.1 1.7-1.8 0-1-1.6-1.5-5.2-1.7-4.1-.2-5.2-.6-4.9-1.8.2-.8.3-3.5.2-5.9-.1-2.7.3-4.7 1.1-5.3 1-.6.6-1.3-1.4-2.9-1.6-1.1-2.8-2.7-2.8-3.5 0-1.7-3.6-1.9-4.3-.2-.4 1-.8.9-1.6-.2-.9-1.3-1.1-1.2-1.2.5-.1 1.6-.2 1.7-.6.3-.2-.9-1-1.5-1.7-1.2-.8.3-1.6-.4-1.9-1.6-.4-1.7-1-2-2.8-1.5-1.8.6-2.1.4-1.6-.9.4-1 .1-1.6-.8-1.6-.8 0-1.5.6-1.5 1.2 0 1-2.8 1.3-11.1 1.2-6-.1-11.3-.4-11.6-.8-.4-.3 4.5-.6 10.7-.6 13.7 0 14.2-.9.6-1.3-7.2-.2-10-.6-10.7-1.7-.9-1.3-1-1.2-.5.2.3 1.2 0 1.8-1 1.8-1.1 0-1.4.6-1 1.6.3.8.2 1.2-.4.9s-1-1.3-1-2.1-.4-1.2-1-.9c-.6.4-1-2.5-1-7.9 0-6.1.3-8.5 1.2-8.4.6.2 1.4-.5 1.6-1.4.2-1.3-.1-1.6-1.2-1.2-1.3.5-1.6-.2-1.6-4.1 0-4 .2-4.6 1.8-4.1 1.3.5 2.8-.5 5-3.4l3.3-3.9-9.4.2c-5.1.2-9.9.7-10.5 1.1-.7.4-1.2.4-1.2-.1 0-.4-6.9-.8-15.2-.8h-15.3l-.3-37.4c-.2-38.7.1-42.4 3.5-37.4 1.8 2.7 4.5 2.9 7.3.6 2.6-2.2 2.8-8 .3-8.6-1-.3 3.2-.5 9.2-.6 6.1 0 10.5.3 9.9.7-1.8 1.1.2 5.2 2.5 5.2 2.5 0 4.7-3.5 2.8-4.4-.9-.5-.9-.7 0-1.2.7-.3.9-1.2.6-2-.3-.9.1-1.4 1.3-1.4 1.6 0 1.7.2.4 1-1.3.9-1.3 1 0 1 .9 0 1.1.3.5.8-1.5 1-1.7 6.2-.4 6.2.6 0 2.5-1.2 4.3-2.7l3.1-2.6-2.7.7c-1.7.4-2.8.2-2.8-.4 0-.5.9-1 1.9-1 1.1 0 4.1-1.1 6.7-2.5s5.7-2.5 7-2.5c1.7 0 2.5-.7 3-2.5.4-1.4.5-2.8.2-3-.2-.2-3.6-.1-7.6.3-4 .5-7.6.6-8.2.2-1.1-.7-1.1-16.5 0-23l.7-4.5.3 4.5c.1 2.5.4 3.9.7 3.2s.2-3.9-.2-7c-.6-4.3-.9-5.2-1.6-3.7-.6 1.6-.8 1.4-.8-1.3-.1-3 .1-3.2 3.4-3.2 2.5 0 3.5.4 3.5 1.5 0 2 4.5 3.7 8.9 3.3 2.6-.2 3.9-.9 4.6-2.6 1.4-3.3 3.9-2.7 5.5 1.4l1.4 3.5 1.2-3.8c.7-2.3 1.2-3 1.3-1.7.1 1.1.7 2.9 1.5 4 1.4 1.9 1.5 1.9 2.2-.1.8-1.9.8-1.9 1.4.3.4 1.9.7 1.6 2.2-2.4 1.6-4.4 1.6-4.6-.3-4.1-2.4.6-2.4-.2-.2-1.9 1.3-.9 2.2-.9 3.1-.2.9.8 1.6.8 2.3.1s.2-1.2-1.5-1.7c-1.4-.3-2.6-1.3-2.6-2.2s.5-1.2 1.3-.8c1 .6 1 .4 0-.7-.9-.8-1.3-4.6-1.3-11.1 0-7.3.3-9.7 1.3-9.5.9.1 1.2-3.4 1.2-15 0-12-.3-14.9-1.2-14.1-1 .8-1.3-.2-1.3-4.7v-5.6l11.8.2c6.4.1 12 .4 12.5.6.4.2-.2 1.6-1.3 3-1.8 2.3-2 4-2 16.5 0 11.4.3 14 1.5 14.4.8.4 1.5 1.5 1.5 2.5 0 1.3.5 1.7 1.6 1.2 1.4-.5 1.6-.2 1 2.1-.6 2.6-.6 2.6 3.6 2.2 3.6-.4 3.5-.3-1 .6-4.7 1-5.2 1.3-4.6 3.2.3 1.2 1.2 2.5 1.8 3.1.8.6 9.2.9 21.9.7 19.8-.3 20.7-.4 20.7-2.2 0-1.9-.7-2-12-2-9.8 0-12-.3-12-1.4 0-1-1.4-1.6-4.2-1.9-2.4-.2 3.1-.4 12-.5l16.4-.2 3.5-3.6c2.5-2.6 3.2-3.9 2.4-4.7-.6-.6-1.1-2.8-1.1-5 0-2.1-.6-4.4-1.2-5.1-1-.9-1.3-5.9-1.3-18.3l.1-17-13.1-.2c-7.1-.1-13.1-.6-13.3-1.2-.2-.5-2.4-.9-4.8-.9-4.3 0-4.4-.1-4.5-3.3 0-2.5-.2-2.8-.8-1.3-.7 1.8-.8 1.8-1.4-.5-1-3.8-.8-6.7.6-7.2.9-.4.9-.7-.1-1.5-.8-.5-1.2-2.3-1-4.3.3-2.9.5-3.2 1.7-1.9 1.1 1.2 4.6 1.5 19.4 1.4 16.7-.1 18.1-.3 18.8-2 .3-1.1.5-2.2.2-2.7-.2-.4 4.1-.7 9.6-.7h10.1zm115.6-16c-.2 2.7-.3.5-.3-4.7s.1-7.4.3-4.8c.2 2.7.2 6.9 0 9.5m0 11c-.3 1-.5.2-.5-1.7s.2-2.7.5-1.8c.2 1 .2 2.6 0 3.5m50.1 2c-1 .2-2.8.2-4 0-1.3-.2-.5-.4 1.7-.4 2.2-.1 3.2.1 2.3.4m19.9 41.5c-.1 7.9-.3 1.5-.3-14.2s.2-22.1.3-14.3c.2 7.9.2 20.7 0 28.5m-212.7-35.4c0 .4-4.4.6-9.7.4-14-.5-14.6-.9-1.5-1.1 6.1 0 11.2.3 11.2.7m162 .2c-9.6.3-17.9.2-18.4-.3-.6-.4 7.3-.6 17.5-.5l18.4.2zm20.8 17.7-.3 18.8-.2-17.8c-.2-10.6-.7-17.7-1.3-17.7s-1-.5-1-1c0-.6.7-1 1.5-1 1.3 0 1.5 2.6 1.3 18.7M1644 1143c0 .5-.4 1-1 1-.5 0-1-.5-1-1 0-.6.5-1 1-1 .6 0 1 .4 1 1m137-.6c0 .2-.7.6-1.5 1-.8.3-1.5.1-1.5-.4 0-.6.7-1 1.5-1s1.5.2 1.5.4m4.3.3c-.7.2-1.9.2-2.5 0-.7-.3-.2-.5 1.2-.5s1.9.2 1.3.5m83.7 22-.5 16.8-.3-15.5c-.2-13.6 0-18 1-18 .2 0 .1 7.5-.2 16.7m-5.3 8.5c-.1 4.6-.3.9-.3-8.2s.2-12.8.3-8.3c.2 4.6.2 12 0 16.5m-50-4c-.2 2.4-.4.5-.4-4.2s.2-6.6.4-4.3c.2 2.4.2 6.2 0 8.5m-34.7 8.8c0 .5-.4 1-1 1-.5 0-1-.5-1-1 0-.6.5-1 1-1 .6 0 1 .4 1 1m79 1c0 1.9-.7 2-22.5 2-19.6 0-22.5-.2-22.5-1.5 0-1.2.4-1.3 1.8-.6 1 .5 10.4 1 20.9 1.1 15.8 0 19.4-.2 20.5-1.4 1.7-2 1.8-2 1.8.4m-211.5 1.3c1.2.3.4.5-1.7.6-3.6.1-4.7-.7-3.1-2.2.3-.4 1.1-.3 1.7.2s2 1.1 3.1 1.4m29.5-.8q0 1.5-3 1.5c-4.9 0-3.4-2.4 1.8-2.9.6 0 1.2.6 1.2 1.4m193.7 4.7c-.3.8-.6.5-.6-.6-.1-1.1.2-1.7.5-1.3.3.3.4 1.2.1 1.9m-303.2 23 2.5 1.1.1 18.1c0 10 .2 19 .4 20 .2 1.1-.5 3.2-1.6 4.8l-2 2.8H1523l.2 45.2.3 45.3 20 .5c24.9.6 26.4 1.3 26 11.5-.1 2.2-.2 9.2-.3 15.6-.2 11.3-.3 11.7-2.5 12.3-1.3.3-11.1.8-21.8 1.2-27.9.9-27.9.9-27.9-17.5 0-5.4-.5-9.2-1.2-9.9-.8-.8-5.4-1.2-14.1-1.2h-12.9l-2.9-3-3-2.9.7-51.8c.6-44.4.9-52.1 2.2-53.6 2.4-2.7 8.6-3.9 19.1-3.6 5.3.2 10.2-.1 10.9-.5.8-.5 1.2-5.1 1.2-15.5 0-15.3.3-16.7 4.5-18.9 2.8-1.6 41.6-1.6 45 0m343.5 6.8c0 .5-1.8 1-4 1s-4-.5-4-1c0-.6 1.8-1 4-1s4 .4 4 1m1.7 1.2c-.3.8-.6.5-.6-.6-.1-1.1.2-1.7.5-1.3.3.3.4 1.2.1 1.9m2 4c-.2 1.3-.4.3-.4-2.2s.2-3.5.4-2.3c.2 1.3.2 3.3 0 4.5m149.2 12.7c.8.5-.5.7-3.5.4-2.7-.3-5.1-.7-5.3-.9-.9-.8 7.5-.3 8.8.5m84.6 7.1c.3.5-.1 1-.9 1-.9 0-1.6-.5-1.6-1 0-.6.4-1 .9-1 .6 0 1.3.4 1.6 1m-48.2 12.7c-2.3.2-6.4.2-9 0s-.7-.3 4.2-.3c5 0 7.1.1 4.8.3m6.5 13.1c.1 11.4-.2 13.9-1.4 13.9-.9 0-1.4-1.1-1.4-3.1 0-2.4.3-2.8 1.1-1.6.7 1.1.8-.6.3-5.5-.4-3.9-1.1-7.2-1.5-7.3-1.2-.5-1.1-8.2 0-8.2.6 0 1.2 1.7 1.4 3.7.3 2.5.4 2.2.2-1-.1-2.6.1-4.7.5-4.7s.8 6.2.8 13.8m-624.1-5.6c-.2 1.3-.4.3-.4-2.2s.2-3.5.4-2.3c.2 1.3.2 3.3 0 4.5m601 21c-.1 5.1-.3 1-.3-9.2s.2-14.3.3-9.3c.2 5.1.2 13.5 0 18.5m-552.4-22.5c-.7.2-1.9.2-2.5 0-.7-.3-.2-.5 1.2-.5s1.9.2 1.3.5m405.2.9c-4.6.7-12.5.8-12.5.1 0-.4 3.3-.6 7.3-.6 3.9.1 6.3.3 5.2.5m-404.8 1c-.3.3-1.2.4-1.9.1-.8-.3-.5-.6.6-.6 1.1-.1 1.7.2 1.3.5m417.6 2.1c-.4 1-.9 1.1-1.9.2-1-.8-1.4-.8-1.4 0 0 1.6-1.7 1.4-2.3-.4-.5-1.1.2-1.4 2.8-1.3 2.4.1 3.2.5 2.8 1.5m156.9 21.8c.5-2 .5-2 .4 0-.1 1.1-.8 2.1-1.7 2.3-1.3.2-1.5-.3-1.1-2.5l.6-2.8.6 2.5c.6 2.3.7 2.3 1.2.5m7.3 4.8c2.7.4 2.6.4-.7.6-2.1 0-3.8-.1-3.8-.3s-.3-1.3-.6-2.3c-.6-1.7-.6-1.7.7-.1.8.9 2.8 1.9 4.4 2.1m-4.8 3.3c-.4.4-1.4-.1-2.2-1.2-2.2-2.9-1.8-4.1.7-1.7 1.2 1.3 1.9 2.6 1.5 2.9m5.3-.7c0 .6-.4 1.3-1 1.6-.5.3-1-.1-1-.9 0-.9.5-1.6 1-1.6.6 0 1 .4 1 .9m5.3-.2c-1.3.2-2.3.9-2.3 1.4s-.4.9-1 .9c-.5 0-1-.7-1-1.5 0-1.1 1-1.5 3.3-1.4s2.6.3 1 .6m6.1.8c-.4.8-.7 1.5-.9 1.5s-.5-.7-.9-1.5c-.3-.9 0-1.5.9-1.5s1.2.6.9 1.5m13.5.2c0 1.1-.3 1.3-.6.5-.2-.6-1.1-1.2-1.9-1.2-.9 0-1.3.3-1.1.7.3.5-1.6.6-4.1.3l-4.7-.4 4.5-.7c7.6-1 8-1 7.9.8m-33.4.3c.3.5.1 1-.4 1-.6 0-1.1-.5-1.1-1 0-.6.2-1 .4-1 .3 0 .8.4 1.1 1m-164.2 6.7c-1.3.2-3.3.2-4.5 0-1.3-.2-.3-.4 2.2-.4s3.5.2 2.3.4m145.4 1.5c-.3.8-.6.5-.6-.6-.1-1.1.2-1.7.5-1.3.3.3.4 1.2.1 1.9m51.3 33.2c0 20.6-.4 32.7-1 33.1-.7.4-1-10.7-1-32.4 0-21.4.4-33.1 1-33.1s1 11.5 1 32.4m-52.3-27.7c-.3 1-.5.4-.5-1.2 0-1.7.2-2.4.5-1.8.2.7.2 2.1 0 3m-173 1c-.3 1-.5.4-.5-1.2 0-1.7.2-2.4.5-1.8.2.7.2 2.1 0 3m172 7.5c-.3.8-.6.5-.6-.6-.1-1.1.2-1.7.5-1.3.3.3.4 1.2.1 1.9m-4 2c-.3.8-.6.5-.6-.6-.1-1.1.2-1.7.5-1.3.3.3.4 1.2.1 1.9m2 0c-.3.8-.6.5-.6-.6-.1-1.1.2-1.7.5-1.3.3.3.4 1.2.1 1.9m-28.9 4.5c-2 .5-2.4 2.3-.5 2.3.9 0 1.2 7.9 1 36.7-.1 20.3-.5 40.5-.9 45l-.6 8.3h-3.3c-2.9 0-3.4.4-3.7 2.7-.2 1.6-.4-2-.5-8-.1-5.9.1-10.6.5-10.3.4.2.6-3.7.5-8.7-.2-5.1-.4-22.6-.5-39l-.3-29.7 5 .1c2.8.1 4.2.3 3.3.6m14.5 0c-.7.2-2.1.2-3 0-1-.3-.4-.5 1.2-.5 1.7 0 2.4.2 1.8.5m6 0c-.7.2-1.9.2-2.5 0-.7-.3-.2-.5 1.2-.5s1.9.2 1.3.5m-503.3 22.7c0 .8-.5 1.8-1 2.1-.6.4-.9.1-.8-.7.2-.7-.5-1.2-1.4-1.2-1 .1-1.5-.2-1.2-.7.9-1.5 4.4-1 4.4.5m410.3 10.3c-10.1.2-26.5.2-36.5 0-10.1-.1-1.9-.2 18.2-.2s28.3.1 18.3.2m156.4 19.9c-.3.3-1.2.4-1.9.1-.8-.3-.5-.6.6-.6 1.1-.1 1.7.2 1.3.5m-1.7 3.4c-2 1.3-3.3 1.3-2.5 0 .3-.6 1.4-1 2.3-1 1.5 0 1.5.2.2 1m-563.3 2.2c-.3.8-.6.5-.6-.6-.1-1.1.2-1.7.5-1.3.3.3.4 1.2.1 1.9m552.3 4.2c0 .3-.4.8-1 1.1-.5.3-1 .1-1-.4 0-.6.5-1.1 1-1.1.6 0 1 .2 1 .4m-510 1c0 .3-.4.8-1 1.1-.5.3-1 .1-1-.4 0-.6.5-1.1 1-1.1.6 0 1 .2 1 .4m2 13.1c0 4.7-.3 8.5-.6 8.5-2.7 0-4.3-6.6-1.9-8.2.7-.5.6-.8-.1-.8s-.9-1.1-.7-2.8c.7-4.2 1.1-5.2 2.3-5.2.6 0 1 3.3 1 8.5m568.4 1.4c.3.5-.1 1.1-.9 1.5-.9.3-1.5 0-1.5-.9 0-1.6 1.6-2 2.4-.6m-3.7 2.3c-.3.8-.6.5-.6-.6-.1-1.1.2-1.7.5-1.3.3.3.4 1.2.1 1.9m.3 4.9c0 .6-.4.7-1 .4-.5-.3-1-1.1-1-1.6 0-.6.5-.7 1-.4.6.3 1 1.1 1 1.6m-1.1 4.4c0 .5-.6.1-1.4-.9-.8-1.1-1.5-2.4-1.5-3 0-.5.7-.1 1.5 1 .8 1 1.4 2.3 1.4 2.9m-177.9 8.2c0 2.2-.2 2.5-1 1.3-1.3-2-1.3-4 0-4 .6 0 1 1.2 1 2.7m37 4.3c0 .5-.5 1-1.1 1-.5 0-.7-.5-.4-1 .3-.6.8-1 1.1-1 .2 0 .4.4.4 1m-8.7 2c.7.6 2.1 1.8 3.2 2.6 1.9 1.5 1.9 1.5-.7 1.1-1.9-.3-2.8 0-2.8.9 0 1.1-1.9 1.4-8 1.4-4.7 0-8-.4-8-1s-1-1-2.2-1.1c-1.3 0-1.7-.3-.9-.6 1-.4 1.1-.7.1-1.3-.7-.4-.9-1.3-.6-1.9.9-1.4 18.2-1.5 19.9-.1m5.7.5c1 1.2 1 1.5-.3 1.5-.8 0-1.7-.7-2.1-1.5-.3-.8-.2-1.5.3-1.5s1.4.7 2.1 1.5m54.7 23.8c-.2 2.3-.3.1-.3-4.8 0-5 .1-6.8.3-4.2s.2 6.7 0 9m-350 5.9c-.3.8-.6.5-.6-.6-.1-1.1.2-1.7.5-1.3.3.3.4 1.2.1 1.9m260 20c-.2 1.3-.4.3-.4-2.2s.2-3.5.4-2.3c.2 1.3.2 3.3 0 4.5m-194 0c-.3.8-.6.5-.6-.6-.1-1.1.2-1.7.5-1.3.3.3.4 1.2.1 1.9m300 1c-.3.7-.5.2-.5-1.2s.2-1.9.5-1.3c.2.7.2 1.9 0 2.5m2.8-.2c.3.5.1 1-.4 1-.6 0-1.1-.5-1.1-1 0-.6.2-1 .4-1 .3 0 .8.4 1.1 1m-2.2 7.4c.3 3 .1 4.3-.4 3.5-.8-1.3-1.3-9.7-.5-8.8.2.2.6 2.6.9 5.3m-105.6 15.8c-.2 1.3-.4.5-.4-1.7-.1-2.2.1-3.2.4-2.3.2 1 .2 2.8 0 4m-70 38c-.2 2.4-.4.7-.4-3.7s.2-6.3.4-4.3c.2 2.1.2 5.7 0 8m111.3 44.3c-1 1.2-.9 1.6.4 2.1.9.3 1.6 1 1.6 1.5 0 .4-1 .5-2.2 0-1.3-.5-2.3-1.2-2.2-1.6.2-1.2 2.8-4.5 3.2-4 .3.3-.1 1.1-.8 2m-438.6 4.1c.4.9.2 1.3-.5.8-.6-.4-1.5 0-2 .7-.4.7-1.1 1-1.5.6-.6-.5 2-3.4 3.2-3.7.1 0 .5.7.8 1.6m24.9 3.1c-.7.2-1.9.2-2.5 0-.7-.3-.2-.5 1.2-.5s1.9.2 1.3.5"/><path d="M1683.2 1134.2c-1.4 1.4-1.6 6.8-.2 6.8.6 0 1-1.3 1-2.8s.5-3.3 1.2-4 .8-1.2.2-1.2c-.5 0-1.5.5-2.2 1.2m98 13.3c0 1.6.2 2.2.5 1.2.2-.9.2-2.3 0-3-.3-.6-.5.1-.5 1.8m-170.8 1.5c.4 3.7 1.6 5.2 1.6 2.2 0-2.1.4-2.2 8.8-2.2 4.8 0 9.2-.4 9.9-.8.6-.4-3.5-.6-9-.4-7.2.2-9.8 0-8.7-.7 1.2-.9 1.1-1.1-.7-1.1-1.9 0-2.2.5-1.9 3m176.6-1.9c4.5.8 19.7 1.2 18.9.5-.2-.2-5.6-.6-11.9-.8-7.2-.3-9.8-.2-7 .3m-102.7 5.9c0 2.5.2 3.5.4 2.2.2-1.2.2-3.2 0-4.5-.2-1.2-.4-.2-.4 2.3m-71 8c0 2.5.2 3.5.4 2.2.2-1.2.2-3.2 0-4.5-.2-1.2-.4-.2-.4 2.3m-.2 17.6c0 1.1.3 1.4.6.6.3-.7.2-1.6-.1-1.9-.3-.4-.6.2-.5 1.3m92.7 2.1c.7.3 1.6.2 1.9-.1.4-.3-.2-.6-1.3-.5-1.1 0-1.4.3-.6.6m17.5 0c2 .2 5.4.2 7.5 0 2-.2.3-.4-3.8-.4s-5.8.2-3.7.4m43.5 0c.7.3 1.6.2 1.9-.1.4-.3-.2-.6-1.3-.5-1.1 0-1.4.3-.6.6m-95 8c1.2.2 3.2.2 4.5 0 1.2-.2.2-.4-2.3-.4s-3.5.2-2.2.4m182.8 0c.6.4 1.3 1.6 1.7 2.5.8 2.2 2.6 2.3 3.4.3.7-2 .5-2.2-3.2-3-1.7-.4-2.5-.3-1.9.2m-241.5 14.9c0 1.1.3 1.4.6.6.3-.7.2-1.6-.1-1.9-.3-.4-.6.2-.5 1.3m145.5 49.8c.4 1.1 0 1.3-1.5.9-1.2-.3-2.1-.1-2.1.6 0 .6.6 1.1 1.4 1.1s1.7.4 2 .8c.2.4-1.2.6-3.1.4-3.3-.4-3.5-.3-3 1.7.3 1.1.1 1.9-.3 1.6-1.2-.8-4 .5-4 1.9 0 .6-.9 1.7-2 2.4s-2 2.1-2 3.2-.4 2-.8 2c-.5 0-.7-1.4-.4-3 .2-1.7.8-3 1.3-3s.9-.5.9-1c0-2.1-2-.9-2.6 1.6l-.7 2.7-15.3-.5c-14-.5-15.8-.8-20.3-3.1-4.6-2.5-5.2-2.5-8.8-1.3l-3.8 1.3 3.3.7c4.6 1.1 3.9 2.6-1.2 2.6-2.4 0-4.6.4-4.8 1-.2.5-6.7 1-15.5 1.1-13 .1-15.2.3-15.5 1.7s-.5 1.4-2-.2c-1.6-1.5-1.8-1.5-1.8-.2 0 .9-.4 1.6-1 1.6-.5 0-.8-.6-.6-1.3.1-.6.1-.9-.2-.4-.2.4-2.1 1.7-4.3 2.7-2.1 1.1-3.9 2.5-3.9 3.1 0 1.5 2.6 3.9 3.4 3.2.3-.4.6.2.6 1.2 0 1.4-.3 1.5-1.5.5-1.8-1.5-3.5-.5-3.5 2.1 0 1-.4 1.9-1 1.9-.5 0-1-1.9-1-4.3-.1-4.1-.1-4.2-1.5-1.7s-1.4 2.5-1.4-1.5c-.1-2.2-.2-5.3-.3-7-.2-2.3.2-3 1.7-3.3 2.9-.6 3.8-1.7 3-4.1-.7-2.3-3.5-2.7-6.7-1-1.5.8-1.9.8-1.3-.1.5-.7.1-1.1-1.1-1-3.9.4-5.3-.1-5.9-2.1-.4-1.2-1.2-1.8-2.1-1.5-.7.3-2-.4-2.8-1.6-.9-1.2-1.9-1.7-2.7-1.3-.8.5-1 .4-.5-.3.4-.7.2-1.2-.3-1.2-.6 0-1.1.6-1.1 1.2 0 .9-.4.8-1-.2-.9-1.3-1.1-1.3-2 0-.6 1-1 1.1-1 .2 0-.6-.6-1.2-1.4-1.2s-1.7.6-1.9 1.2c-.4 1-.8.9-1.6-.2-1-1.3-1.2-1.3-2.1 0-.6.9-1.3 1.1-1.7.5-1-1.3-6.3-1.7-6.3-.5 0 .5-.8 1.1-1.7 1.4-1 .3.2.2 2.6-.1 3.4-.4 4.2-.2 3.9.8-.3.9-1.9 1.3-4.4 1.2-2.1-.1-3.1.1-2.2.3 2.8.8.9 3.4-2.6 3.5-2.9.1-3 .1-.6.8l2.5.7-2.2.8c-2 .6-2.2 1.3-1.8 4.7.4 3 .2 3.9-.9 3.9-1.6 0-3.1 3.4-2.1 5 .3.5 0 1-.7 1-.9 0-.9.3.2 1 1.2.8 1.2 1 .1 1s-1.1.3-.1 1.5 1 1.5-.1 1.5c-1.2 0-1.2.2 0 .9.9.6 1 1.1.2 1.5-.6.4-1.1 1.5-1 2.4 0 1.5.1 1.4.8-.2.7-1.7.8-1.7 2.4-.1 1 .9 1.5 2.1 1.1 2.6-.3.6 0 1.7.7 2.5.9 1.1.9 2 0 4-1.5 3.4-1.4 4.4.7 4.4 2.3 0 4.5 3.6 3.7 6.1-.5 1.5-.2 1.9 1.5 1.9s1.9-.3 1-1.9c-1.7-3.3-1.2-6.1 1-6.1 1.1 0 2 .5 2 1.1 0 .5.4.7 1 .4.5-.3.7 0 .4.8-.4 1.1 1.3 1.7 7.8 2.5 4.6.6 6 .9 3.1.8-2.9-.2-5.3.1-5.3.5 0 .5.9.9 1.9.9 1.4 0 2.1.8 2.3 2.7.3 2.6.6 2.8 4.6 2.5 2.4-.2 5 .2 5.7.8.8.7 2.1 1 2.9.7s1.7.1 2 .9.1 1.4-.4 1.4c-.6 0-1 .8-1 1.9 0 1.6 1.1 2 7.5 2.6 5.7.5 8.2.3 10.4-.8 2.8-1.4 3-1.4 4.3 1.2.8 1.5 2.3 2.7 3.7 2.9 2 .2 2.2 0 1.1-1.3-1.6-1.9-.1-1.9 2.4 0 1.3 1 2.5 1.1 4.3.4 3.3-1.2 45-1.2 45.8.1.3.5 1.8.9 3.3.9 2.7-.1 2.7-.1-.3-.8-2.5-.6-2.7-.8-1-1.3 1.1-.3 4.6-.6 7.9-.7 8.1-.3 11-1.5 10.2-4.4-.3-1.2-.6-3.7-.6-5.5 0-2.1-.5-3.2-1.5-3.2s-1.6-1.8-2.1-6.3l-.7-6.2-1.1 3.8c-1 3.5-1.1 2.9-1.3-6.7-.2-5.8.2-10.8.7-11.1s.6 1.8.3 5c-.4 4-.2 5.5.7 5.5.8 0 1-.8.6-2.7-.9-3.2.5-4.2 5.9-4.4 3.2 0 3.6-.2 2-.9-1.4-.7-.8-.8 1.9-.3l3.9.6-.6-5.7c-.6-6.4.3-7.3 2.2-2 1.1 3.1 1 4.1-.9 8.8-2.4 6-1.6 10.6 1.9 10.6 1.1 0 2.2.8 2.4 1.7.3 1.2.5.8.6-.9 0-1.5-.3-3-.9-3.3-1.2-.7-1.3-2.5-.2-2.5 1.2 0 3.3 7.1 2.5 8.4-.4.6.1.5 1-.3 1.5-1.2 1.7-1 1.7 1.6 0 1.7.5 4.5 1.1 6.4 1.9 5.5 5.9 7.5 5.9 2.8 0-1.1.7-2 1.8-2.1 3.1-.2 3.7-.4 5.8-1.6 1.7-.9 2.4-.9 3.3.2.6.7.8 1.6.4 1.9-1.2 1.3 2 3.7 4.9 3.7 1.6 0 4.5-.7 6.6-1.5 2.9-1.3 3.4-1.8 2.2-2.5-1.3-.8-1.2-1 .3-1 .9 0 1.7.4 1.7 1 0 1.1 13.8 1.4 16.4.4 1.1-.4 1.6-1.9 1.6-4.5 0-5-1.7-5.1-2.3-.2-.2 2.1-.3 1.2-.1-2l.4-5.7h-3.9c-3.9 0-5.8-1.9-4.5-4.3.5-.9.4-.9-.5-.1-1 .9-1 1.7-.1 3.3.6 1.2 1 3 .8 3.9-.2 1.1-1.1.1-2.5-2.8-1.6-3.3-2.2-3.9-2.3-2.3 0 1.2.7 2.8 1.5 3.7 1.8 1.8 2 2.9.3 2.4-.6-.2-2 .4-3 1.4s-2.4 1.8-3 1.8c-.9 0-1-.3-.2-.8 1.1-.7 3.4-4.6 3.4-5.7 0-.3-.4-.3-1 0-.5.3-1 .1-1-.4 0-.6.5-1.1 1-1.1.6 0 1-.7 1-1.5 0-.9 1.1-2 2.5-2.5s2.5-1.7 2.5-2.7c0-1.5-.2-1.5-.9-.4-.6 1-.9-2.3-.9-8.9 0-9.2.2-10.1 1.4-7.9l1.3 2.4-.2-3.1c-.2-2.4-.6-3-1.9-2.6-1 .2-1.8-.1-1.8-.7 0-.7.5-.9 1-.6.6.3 1-.1 1-.9 0-2-.5-2-2.6.1-1.7 1.7-1.8 1.7-1.1 0 .4-1 .7-2.3.7-2.8 0-.6.4-.7 1-.4s.7-.1.3-1c-.3-.9-.9-1.3-1.2-.8s-1.5 1.3-2.6 1.7c-1.5.5-1.7.4-.9-.4 1.7-1.7.6-4.6-2.2-5.9-1.3-.6-2.4-1.6-2.4-2.2s-.9-.9-1.9-.6c-1.4.3-1.8.1-1.4-.9.4-1.1-1.1-1.4-7.6-1.4s-7.9.3-7.5 1.4m-139.2 4.1c11 3.3 15.6 9.9 15.6 22.1 0 6.7-.3 8-2.7 11.4-5.1 7.1-13.4 11-20.7 9.6-4.8-.9-11.3-5.6-14.1-10.2-2.5-4.1-3.3-12.2-1.9-19.4 1.2-5.7 10.1-12.9 18.4-14.9.3 0 2.7.6 5.4 1.4m155.8 3.5c5.7 3.3 9.5 9.7 10.4 17.4.5 4.3.2 6.2-1.9 10.7-5.8 12.6-17.5 18.1-27.6 12.9-4.1-2.1-10.1-8.8-10.1-11.3 0-.9-.4-1.9-1-2.2-1.5-.9-1.2-10.4.6-15.5 1.7-5 9.8-13.5 13.6-14.3 4.5-1 12.4.1 16 2.3m-71.2 5c0 .5-.4 1-1 1-.5 0-1-.5-1-1 0-.6.5-1 1-1 .6 0 1 .4 1 1m-66.6 3.5c-.4.8-.8 1.5-1 1.5s-.4-.7-.4-1.5.4-1.5 1-1.5c.5 0 .7.7.4 1.5m79.6 1.7c1 .6.7.7-1 .2-1.4-.3-3.2-1.1-4-1.6-1-.6-.7-.7 1-.2 1.4.3 3.2 1.1 4 1.6m-8.7 1.4c8 4.2 9.7 8.3 9.7 24.2 0 12.7 0 13-3 17-4.8 6.6-7.2 7.2-30.5 7.2-18 0-20.8-.2-24.7-1.9-5.4-2.5-7.6-5.5-8.9-12.8-1-5.3-.6-16.3.8-23.4.6-3.4 4.7-8 8.8-10.1 4.6-2.4 43.3-2.5 47.8-.2m-54.3 1.4c0 .5-.7 1-1.6 1-.8 0-1.2-.5-.9-1 .3-.6 1-1 1.6-1 .5 0 .9.4.9 1m-4 2.5c0 .9-.6 1.2-1.5.9-.8-.4-1.2-1-.9-1.5.8-1.4 2.4-1 2.4.6m68 .5c0 .5-.2 1-.4 1-.3 0-.8-.5-1.1-1-.3-.6-.1-1 .4-1 .6 0 1.1.4 1.1 1m4.3.7c-.7.2-1.3 2.1-1.3 4 0 4.4-.5 4.1-1.4-1-.6-3.4-.5-3.7 1.6-3.6 1.3 0 1.7.3 1.1.6m11.7.3c0 .5-.2 1-.4 1-.3 0-.8-.5-1.1-1-.3-.6-.1-1 .4-1 .6 0 1.1.4 1.1 1m-92.5 9.8c-.4.4-1 .1-1.2-.6-.6-1.7-2.3-1.5-2.3.3 0 .8.5 1.5 1 1.5 1.5 0 1.2 2-.7 3.8-1.5 1.6-1.6 1.5-1.1-1.1.3-1.5.2-3-.2-3.2-.5-.3-.6-1.4-.3-2.5s.9-1.8 1.3-1.5 1.1-.3 1.5-1.3c.6-1.4.9-1.2 1.7 1.1.6 1.6.7 3.1.3 3.5m6.4-1.3c0 .5-.4.3-.9-.5s-.9-2.2-.9-3c0-1.6 1.7 1.6 1.8 3.5m-.8 7.3c-.6.2-1.1 1-1.1 1.8 0 .9.5 1.2 1 .9.6-.3 1-.1 1 .4 0 .6-.4 1.1-1 1.1s-1 2.5-.9 5.7c0 4.2.3 5.2.9 3.8.6-1.5.9-1.6.9-.4.1.9-.2 1.8-.5 2.2-1 .9-3.4-.4-3.4-1.9 0-.8-.9-2.3-2.1-3.5-1.9-1.9-2-2.4-.8-4.6 1-1.8 1-2.9.2-4.3-1.5-2.4-.7-3 2.8-2.3 2.5.5 2.9.2 3-1.8l.2-2.4.4 2.5c.3 1.3 0 2.6-.6 2.8m-15.8 5c-.2 1-1.3 1.8-2.3 1.8-1.8 0-1.8-.1-.2-1.8 2.2-2.2 3.1-2.2 2.5 0m-30 .9c-.7.2-1.9.2-2.5 0-.7-.3-.2-.5 1.2-.5s1.9.2 1.3.5m33.2.3c.3.5.1 1-.4 1-.6 0-1.1-.5-1.1-1 0-.6.2-1 .4-1 .3 0 .8.4 1.1 1m13.2 4.2c-.3.7-.5.2-.5-1.2s.2-1.9.5-1.3c.2.7.2 1.9 0 2.5m133.3-2.8c0 .2-.9.6-2 .9s-1.8.1-1.4-.4c.5-.9 3.4-1.3 3.4-.5m-161.5 2.7c2 .5.9.6-3 .2-3.3-.3-6.2-.7-6.4-.9-.8-.7 6.3-.2 9.4.7m133.2 2.5c-.3.3-1.2.4-1.9.1-.8-.3-.5-.6.6-.6 1.1-.1 1.7.2 1.3.5m5.3.4c0 .5-.4 1-1 1-.5 0-1-.5-1-1 0-.6.5-1 1-1 .6 0 1 .4 1 1m-110 5c0 .5-.4 1-1 1-.5 0-1-.5-1-1 0-.6.5-1 1-1 .6 0 1 .4 1 1m1.5 4c-2.3 2.5-3.5 2.6-2.8.1.3-1.1 1.2-2.2 2.2-2.4 2.4-.5 2.6.1.6 2.3m129.5-62.1c0 .6.5 1.3 1 1.6.6.3 1-.1 1-.9 0-.9-.4-1.6-1-1.6-.5 0-1 .4-1 .9"/><path d="M1707.8 1261.7c.7.3 1.6.2 1.9-.1.4-.3-.2-.6-1.3-.5-1.1 0-1.4.3-.6.6m80.3-.2c.1 1.9 1.8 5.1 1.8 3.5 0-.8-.4-2.2-.9-3s-.9-1.1-.9-.5m-197.4 6.8c-.3.7.3 1.3 1.3 1.3s1.6-.6 1.3-1.3-.9-1.3-1.3-1.3-1 .6-1.3 1.3m54.3 2c0 1.6 3 1.8 5.1.4 2.1-1.5 2.1-1.6-1.5-1.4-2 .1-3.6.6-3.6 1m143.5 6.7c.3.5.8 1 1.1 1 .2 0 .4-.5.4-1 0-.6-.5-1-1.1-1-.5 0-.7.4-.4 1m131 17-2 .9h2c1.1 0 2.9-.4 4-.9l2-.9h-2c-1.1 0-2.9.4-4 .9m-312 13c1.7.7 1.7.9.3.9-2.2.1-2.5 5.1-.4 5.1 1.8 0 2.3-.8 3-4.3.4-2.4.2-2.7-2.2-2.6-2.4 0-2.5.1-.7.9m136.1.5c-.3.8-.1 1.5.4 1.5.6 0 1-.7 1-1.5s-.2-1.5-.4-1.5-.6.7-1 1.5m-94.8 17.2c.7.3 1.6.2 1.9-.1.4-.3-.2-.6-1.3-.5-1.1 0-1.4.3-.6.6m29.9 0c1.8.2 5 .2 7 0 2.1-.2.7-.4-3.2-.4-3.8 0-5.5.2-3.8.4m24.1 0c.6.2 1.8.2 2.5 0 .6-.3.1-.5-1.3-.5s-1.9.2-1.2.5m-130.8 28.5c0 1.9.2 2 1 .8 1.3-1.9 1.3-3 0-3-.5 0-1 1-1 2.2m9.5 20.8c.3.5 1.6 1 2.8 1 1.8 0 1.9-.2.7-1-2-1.3-4.3-1.3-3.5 0m20.3-.3c.7.3 1.6.2 1.9-.1.4-.3-.2-.6-1.3-.5-1.1 0-1.4.3-.6.6M2118 1386c0 .5.5 1 1 1 .6 0 1-.5 1-1 0-.6-.4-1-1-1-.5 0-1 .4-1 1m-118.8 5c0 1.4.2 1.9.5 1.2.2-.6.2-1.8 0-2.5-.3-.6-.5-.1-.5 1.3m86.8 30.9c0 1 2.2 3.1 3.2 3.1 1.7 0 .7-2.8-1.2-3.3-1.1-.3-2-.2-2 .2m-442.5 4.4c-.4 1-.5 2.1-.1 2.4 1 1 1.8-.4 1.3-2.4-.4-1.7-.4-1.7-1.2 0M1846 1444c0 1.9.7 2 18.8 2 21.6 0 26.8-.6 25.1-2.6-.9-1.1-5.7-1.4-22.5-1.4-20.7 0-21.4.1-21.4 2m-201.5 2c.3.5.8 1 1.1 1 .2 0 .4-.5.4-1 0-.6-.5-1-1.1-1-.5 0-.7.4-.4 1m162.2 8.4c-.4 1-.5 2.1-.2 2.4.9.9 1.7-.6 1.3-2.5-.3-1.7-.4-1.7-1.1.1m194.8-.4c-.3.5-.1 1 .4 1 .6 0 1.1-.5 1.1-1 0-.6-.2-1-.4-1-.3 0-.8.4-1.1 1m-3.4 1.6c0 1.1.3 1.4.6.6.3-.7.2-1.6-.1-1.9-.3-.4-.6.2-.5 1.3m-9.6 8.4c-1.2 5.1-.6 18.8 1.1 23.8 1 3.1 1.4 9.6 1.4 24.2 0 19.1.7 25 3 25 1.5 0 2.6-3.3 1.2-3.8-.9-.3-1.2-5.8-1.2-19.8 0-17 .2-20 2-24.6 1.5-4.1 2-7.7 2-15.6V1463h-3.9c-2.3 0-4.1-.5-4.4-1.3-.2-.6-.8.4-1.2 2.3m-5.5 46c.5 24.6 1 28.3 3.9 26.6 1.4-.9 1.4-3.6 0-3.6-.7 0-1-6.8-.9-21.8.2-27.8.3-26.2-1.7-26.2-1.7 0-1.8 1.7-1.3 25m62.5-188c-.3.5-.2 1 .4 1 .5 0 1.3-.5 1.6-1 .3-.6.2-1-.4-1-.5 0-1.3.4-1.6 1m-.4 80.6c0 1.1.3 1.4.6.6.3-.7.2-1.6-.1-1.9-.3-.4-.6.2-.5 1.3m-319.9-336.1c0 1.6.2 2.2.5 1.2.2-.9.2-2.3 0-3-.3-.6-.5.1-.5 1.8m-94.7 7.5c.3.5.8 1 1.1 1 .2 0 .4-.5.4-1 0-.6-.5-1-1.1-1-.5 0-.7.4-.4 1m145.5 12.1c0 .5 1.4.9 3 .9 3.9 0 3.9-1.5 0-1.6-1.7-.1-3 .3-3 .7m-178 .3c0 .2.7.6 1.5 1 .8.3 1.5.1 1.5-.4 0-.6-.7-1-1.5-1s-1.5.2-1.5.4m150.2 2.6c-1.4 2.3-1.6 4-.3 4 .9 0 2.5-4.9 1.9-5.6-.2-.2-.9.6-1.6 1.6m17.9 5.6c0 1.1.3 1.4.6.6.3-.7.2-1.6-.1-1.9-.3-.4-.6.2-.5 1.3m3 0c0 1.1.3 1.4.6.6.3-.7.2-1.6-.1-1.9-.3-.4-.6.2-.5 1.3m-22 2c0 1.1.3 1.4.6.6.3-.7.2-1.6-.1-1.9-.3-.4-.6.2-.5 1.3m185.4 2.4c-.3.5-.1 1 .4 1 .6 0 1.1-.5 1.1-1 0-.6-.2-1-.4-1-.3 0-.8.4-1.1 1m-163.1 13c0 7.4.1 10.5.3 6.7.2-3.7.2-9.7 0-13.5-.2-3.7-.3-.6-.3 6.8m-22 .5c0 7.1.1 9.9.3 6.2s.2-9.6 0-13-.3-.4-.3 6.8m185.1 38.5c0 27.8.1 39.1.2 25.2.2-13.8.2-36.6 0-50.5-.1-13.8-.2-2.5-.2 25.3m-183.3-25.5c0 1.6.2 2.2.5 1.2.2-.9.2-2.3 0-3-.3-.6-.5.1-.5 1.8m-182.6 1.7c-.9 3.7-.7 4.3.9 2.2s1.9-4.4.6-4.4c-.5 0-1.1 1-1.5 2.2m9.9-.2c1 1.1 2.8 2 3.9 1.9 1.8-.1 1.7-.3-.6-1.2-1.6-.6-2.8-1.4-2.8-1.9 0-.4-.5-.8-1.2-.8-.6 0-.3.9.7 2m383.3 78.7c.7.3 1.6.2 1.9-.1.4-.3-.2-.6-1.3-.5-1.1 0-1.4.3-.6.6m172.2 1.2c0 .6.5 1.3 1 1.6.6.3 1-.1 1-.9 0-.9-.4-1.6-1-1.6-.5 0-1 .4-1 .9m-166.3 2.8c-.4.3-.7 2.7-.7 5.2 0 3 .3 4.1.9 3.2.7-1.1 1.3-.9 3 .8l2.1 2.1v-3.4c0-6.3-2.8-10.5-5.3-7.9m-453.6 9.9c0 1.1.3 1.4.6.6.3-.7.2-1.6-.1-1.9-.3-.4-.6.2-.5 1.3m619.4 5.4c0 2.2.3 4 .8 4 .4 0 .7-1.8.7-4s-.3-4-.7-4c-.5 0-.8 1.8-.8 4m-652.5 13.5c-1.9 2.3-.8 2.6 1.9.4 1.6-1.3 1.8-1.9.8-1.9-.8 0-2 .7-2.7 1.5m23-.5c0 .5 1.9 1 4.2 1 4.9 0 4.7-.5-.4-1.4-2.4-.4-3.8-.3-3.8.4m466.8-.3c1.2.2 3 .2 4 0 .9-.3-.1-.5-2.3-.4-2.2 0-3 .2-1.7.4m17.2.4c0 .3.8 1.4 1.9 2.3 1.8 1.6 1.9 1.6 1.9-.6 0-1.7-.6-2.4-1.9-2.4-1.1 0-1.9.3-1.9.7m-489.7.6c.9.2 2.3.2 3 0 .6-.3-.1-.5-1.8-.5-1.6 0-2.2.2-1.2.5m-16.2 6.9c0 1.1.3 1.4.6.6.3-.7.2-1.6-.1-1.9-.3-.4-.6.2-.5 1.3m675.9.4c0 .5.5 1 1 1 .6 0 1-.5 1-1 0-.6-.4-1-1-1-.5 0-1 .4-1 1m-677.9 5.6c0 1.1.3 1.4.6.6.3-.7.2-1.6-.1-1.9-.3-.4-.6.2-.5 1.3m676.9-.2c0 .9.5 1.6 1 1.6.6 0 1-.4 1-.9 0-.6-.4-1.3-1-1.6-.5-.3-1 .1-1 .9m2.1 9.2c0 1.1.3 1.4.6.6.3-.7.2-1.6-.1-1.9-.3-.4-.6.2-.5 1.3m20.4 9.4c.3.5.8 1 1.1 1 .2 0 .4-.5.4-1 0-.6-.5-1-1.1-1-.5 0-.7.4-.4 1m-691.5 92c0 .5.7.7 1.5.4.8-.4 1.5-.8 1.5-1s-.7-.4-1.5-.4-1.5.4-1.5 1m5.6.5c-.3.9-1.9 1.6-3.8 1.6-2.9.2-3 .3-.7.6 1.6.2 2.9 1.2 3.2 2.4.3 1 1.2 1.9 2.1 1.9 1.2 0 1.6-1 1.6-4 0-4-1.3-5.3-2.4-2.5m18.9 15c.1 2.5.7 5 1.4 5.7 1.1 1.1 1.3.9.7-1.2-.3-1.4-.6-4-.6-5.8 0-1.7-.3-3.2-.7-3.2-.5 0-.8 2-.8 4.5m654.6 40.1c0 1.1.3 1.4.6.6.3-.7.2-1.6-.1-1.9-.3-.4-.6.2-.5 1.3m-597.1 5.7c0 .9-.4 1.7-1 1.7-.5 0-1 .8-1 1.7 0 1.5.3 1.4 2.2-.5 1.7-1.7 2-2.4 1-3.4-.9-.9-1.2-.8-1.2.5m4.5 2.6c-.3.5-.1 1.2.5 1.6.5.3 1-.1 1-.9 0-1.8-.6-2.1-1.5-.7m592.6 9.7c0 1.1.3 1.4.6.6.3-.7.2-1.6-.1-1.9-.3-.4-.6.2-.5 1.3m-3.1 1c0 .8.5 1.2 1 .9.6-.4.8-1.1.5-1.6-.9-1.4-1.5-1.1-1.5.7m-28.9 18c0 1.1.3 1.4.6.6.3-.7.2-1.6-.1-1.9-.3-.4-.6.2-.5 1.3m-23 17.8c.2.2 3.6.6 7.4.9 4.4.4 5.9.3 4-.2-3-.9-12.2-1.4-11.4-.7m21.7 4.3c.7.3 1.6.2 1.9-.1.4-.3-.2-.6-1.3-.5-1.1 0-1.4.3-.6.6m-47 23c.7.3 1.6.2 1.9-.1.4-.3-.2-.6-1.3-.5-1.1 0-1.4.3-.6.6m9.2.3c0 .5.7.7 1.5.4.8-.4 1.5-.8 1.5-1s-.7-.4-1.5-.4-1.5.4-1.5 1m-456 89c0 .7 63.3 1 188 1s188-.3 188-1-63.3-1-188-1-188 .3-188 1"/><path d="M2054 1591c0 2-.3 2-209.7 2h-212c-1.4 0-2.3.6-2.3 1.5 0 1.3 25.9 1.5 211.5 1.5 116.3 0 212.1.3 213 .6 1.2.5 1.5-.2 1.5-3.5 0-2.3-.4-4.1-1-4.1-.5 0-1 .9-1 2m-443.7 13.7c-2.4.2-4.3.8-4.3 1.2 0 1 9.9 2.1 18.1 2.1 5.2 0 5.9-.2 5.9-2s-.6-2-7.7-1.8c-4.3.1-9.7.3-12 .5"/></g><g fill="gray" stroke-width="0"><path d="M1640.2 1063c-5.3 2.2-6.3 4.8-5.8 13.8.3 4.6.1 9.4-.4 10.8-.9 2.4-1 2.4-14.9 2.4-18.9 0-18.1-1-18.1 23 0 20.9 1.7 19-16.2 19-10.9 0-11.8.1-13.2 2.2-1.4 1.9-1.6 6.9-1.6 34.3 0 35.3-.4 40.1-2.9 38.8-1.9-.9-40.5-1.7-43.9-.8-1.2.3-3.1 1.4-4.2 2.5-1.8 1.8-2 3.4-2 16.9 0 10.6-.4 15.2-1.2 15.7-.7.4-5.6.7-10.9.5-10.5-.3-16.7.9-19.1 3.6-1.3 1.5-1.6 9.2-2.2 53.6l-.7 51.8 3 2.9 2.9 3h12.9c8.7 0 13.3.4 14.1 1.2.7.7 1.2 4.5 1.2 9.9 0 18.4 0 18.4 27.9 17.5 10.7-.4 20.5-.9 21.8-1.2 2.2-.6 2.3-1 2.5-12.3.1-6.4.2-13.4.3-15.6.4-10.2-1.1-10.9-26-11.5l-20-.5-.3-45.3-.2-45.2h43l1.6-2.6c1.5-2.2 1.7-5.2 1.5-23.1-.2-19.6-.2-20.5 1.6-19.7 2.6 1.3 31.4 1.7 34.6.5l2.7-1 .2-32.8.3-32.8 13.5-.6 13.5-.5h-14l-14 .1-.3 32.5c-.2 29.1-.4 32.6-1.9 33.7-2.1 1.6-29.5 1.8-32.4.3-1.8-1-1.9-2.5-1.9-35.8 0-29.8.2-35.1 1.6-37 1.4-2.1 2.2-2.2 13.5-2.2 6.6 0 12.9-.5 14-1 1.8-1 1.9-2.3 1.9-18.9 0-23.1-.8-22.1 17.7-22.1 16.6 0 16.3.3 16.3-13 0-8.1.3-10.2 1.9-12.1l1.9-2.4h36.6c43.1 0 39.5-1.2 39.6 13 0 13 .5 13.5 12.9 13.5 14.3 0 13.5-1.1 13.9 21.6.2 11.3.8 19.4 1.4 20.1 1.2 1.4 27.3 1.9 29.5.5.8-.5 1.3-6.2 1.5-18.6l.3-17.8 2.8-2.4c2.7-2.3 3.5-2.4 16.5-2.4 7.5 0 14.2-.4 14.9-.8.6-.4-5.7-.6-14-.4-21.7.5-21.7.5-21.7 24.7 0 19.5 1.7 17.7-17 17.3l-12.5-.3-.3-19.1c-.3-23.7.3-22.7-14.8-23.4-7.8-.4-10.7-.9-11.5-2-.5-.8-.8-5.7-.7-10.8.2-14.7 3.1-13.7-39.5-13.9-20.6-.1-36.2.2-37.5.7m-73.8 145.9c1.4 1.2 1.6 4 1.6 21.1 0 17.7-.2 19.9-1.8 21.3-1.5 1.4-5 1.7-22.8 1.9l-20.9.3-.3 45.5c-.2 41.9-.1 45.6 1.5 46.7 1.2 1 7.2 1.3 21.4 1.3 24.7 0 22.9-1.5 22.9 19.5 0 10.4-.4 15.5-1.2 16.3-.9.9-7.4 1.2-23.3 1.2s-22.4-.3-23.3-1.2c-.8-.8-1.2-4.8-1.2-11.2 0-6.1-.5-11.1-1.3-12.6-1.2-2.4-1.6-2.5-14.9-3-11.5-.4-13.9-.8-15.7-2.4-2.1-1.9-2.1-2.3-2.1-53.6 0-50.6 0-51.7 2-53.8 1.9-2 3-2.2 15.3-2.2 7.3 0 13.8-.4 14.6-.9 1.1-.7 1.3-4 1.2-15.6-.2-17.7.3-19.2 7.6-19.8 2.7-.3 12.5-.4 21.9-.3 12.8.1 17.5.5 18.8 1.5m249.8-146.2c-4.3.8-5.3 4.1-4.9 15.4l.3 10.4.2-10.6c.3-15.7-3.8-14.4 44.4-14.4h40.1l1.6 2.4c1.2 1.8 1.6 4.9 1.6 11 .1 9.8.9 13.1 3.3 13.1 1.6-.1 1.5-.2 0-1.1-1.5-.8-1.8-2.5-1.8-10.9 0-9-.2-10.1-2.4-12.7l-2.4-2.8-38.9-.1c-21.3-.1-39.8 0-41.1.3m97.3 28.2c14.5.9 12.9-6 13.5 59.3l.5 56.3 13.1.5c9 .3 13.6.9 14.8 1.9 1.4 1.1 1.6 3.6 1.6 16.5 0 10.5.4 15.6 1.2 16.4s5 1.2 12.4 1.2c11.1 0 16.1 1 17.6 3.3.4.7.8 15.3.8 32.5v31.2l2.7 1.1c1.7.6 11.1.9 24.1.7 19.8-.3 21.5-.4 22.8-2.2 1.1-1.6 1.4-8.1 1.4-35.1 0-40.5-1.7-36.8 17.4-37.3 7.2-.2 13.7-.8 14.3-1.4.9-.7 1.3-4.2 1.3-11 0-11 1.4-15.4 5.3-16.3 1.3-.4 11.9-.5 23.5-.3 17.6.2 21.4.6 22.2 1.8.5.8 1 7.3 1 14.3 0 12.4.8 16.7 3.2 16.7.6 0 .4-.8-.5-1.8-1.3-1.4-1.7-4.5-1.9-15.7l-.3-14-3.5-1.7c-2.9-1.4-6.7-1.7-22.1-1.8-26.9 0-27.9.6-27.9 17.9 0 7.2-.4 10.2-1.4 11-.9.8-5.5 1.1-13.5 1-10.9-.2-12.4 0-14.9 1.8l-2.7 2-.3 33.8c-.1 23.2-.6 34.3-1.4 35.2-.8 1.1-5.7 1.3-24.2 1.1l-23.1-.3-.3-31.7-.2-31.7-3.2-2.2c-2.8-2-4.1-2.2-14-2-15.6.2-14.9 1-14.8-16.2.1-7.8-.1-14.9-.5-15.8-1.1-3-4.9-3.9-17-4.1l-12-.3-.5-55.6c-.6-66.1.8-60-13.9-59.7l-9.6.2z"/><path d="M1641.2 1100.2c-.8.8-1.2 6.6-1.2 19.4 0 17.8-.1 18.3-2.2 19.8l-2.2 1.6h5.4l.2-20.3.3-20.2 30.9-.3c20.9-.1 31.3.1 32 .8s1.3 13.3 1.6 36.1c.5 33.2.6 35.1 2.4 36.5 1.6 1.1 7.8 1.4 33.1 1.4 28.9 0 31.3-.1 32.8-1.8 1.4-1.5 1.7-4.2 1.7-15.8 0-9.8.4-14.4 1.3-15.3 1-1.1.9-1.3-.3-.9s-1.6 3.3-2 15.7c-.4 12-.8 15.4-2 16.1-2.3 1.5-62.3 1.3-63.8-.2-.9-.9-1.2-10.2-1.2-35.5 0-33-.1-34.4-2-36.3s-3.3-2-32.8-2c-22.6 0-31.1.3-32 1.2m174 0c-.8.8-1.2 6.5-1.2 19.1 0 10.4-.4 18.6-1 19.8-.9 1.6-2.3 1.9-8.3 2.1l-7.2.2 8.5.5 8.5.6.5-21 .5-21 35.8-.3c23.5-.1 36.5.1 37.7.8 1.1.6 2 .7 2 .2 0-1.9-5.2-2.2-39.5-2.2-26 0-35.4.3-36.3 1.2m75.6 55c-.2 41.4 0 52.6 1 53.8.9 1.1 4.2 1.6 12 2l10.7.5.5 19.2c.4 16.4.8 19.5 2.2 21.3 1.6 1.8 3 2 17 2 8.4 0 15.9.4 16.7.9s1.8 2.6 2.2 4.7l.8 3.9-.3-4.3c-.3-2.4-.7-4.7-1.1-5-.4-.4-8-.8-17.1-1-15.1-.3-16.5-.5-17.8-2.4-1.2-1.6-1.3-5.3-.9-19.2.8-22.3 1.1-21.6-11-21.7-5.1-.1-10.3-.4-11.6-.8l-2.3-.6.1-52.8c.1-29 0-52.7-.3-52.7s-.6 23.5-.8 52.2"/><path d="M1654 1139.6c3.5.7 21 .9 21 .2 0-.4-5.1-.7-11.2-.7-6.2.1-10.6.3-9.8.5m164.6.1c.5.5 8.8.6 18.4.3l17.5-.6-18.4-.2c-10.2-.1-18.1.1-17.5.5m36.4.3c0 .5.4 1 1 1s1.1 7.1 1.3 17.7l.2 17.8.3-18.8c.2-16.1 0-18.7-1.3-18.7-.8 0-1.5.4-1.5 1m-213 3c0 .5.5 1 1 1 .6 0 1-.5 1-1 0-.6-.4-1-1-1-.5 0-1 .4-1 1m171.3 22c0 4.7.2 6.6.4 4.2.2-2.3.2-6.1 0-8.5-.2-2.3-.4-.4-.4 4.3m42.9 13.6c-1.1 1.2-4.7 1.4-20.5 1.4-10.5-.1-19.9-.6-20.9-1.1-1.4-.7-1.8-.6-1.8.6 0 1.3 2.9 1.5 22.5 1.5 21.8 0 22.5-.1 22.5-2 0-2.4-.1-2.4-1.8-.4m-214.5.1c-1.6 1.5-.5 2.3 3.1 2.2 2.1-.1 2.9-.3 1.7-.6-1.1-.3-2.5-.9-3.1-1.4s-1.4-.6-1.7-.2m31.8 1.3c-.3.5.1 1 .9 1 .9 0 1.6-.5 1.6-1 0-.6-.4-1-.9-1-.6 0-1.3.4-1.6 1m462.5 62c5.9.7 11.6 3.2 12.3 5.2.2.8.4.7.3-.2-.1-.8-1.6-2.5-3.5-3.7-2.6-1.8-4.7-2.3-9-2.2l-5.6.2zm-55.7 1c-1.3.5-2.3 1.5-2.3 2.2 0 .9.3.9 1.2 0 .8-.8 5.4-1.2 14-1.2 16.9 0 16.3-.8 15.3 20.9-.6 14.1-.5 16.1 1 18.5 1.3 1.9 2.5 2.6 4.9 2.5l3.1-.1-3-.7c-4.8-1-5.3-3.4-4.8-21.5.5-15.1.4-16.2-1.5-18.6s-2.6-2.5-13.9-2.7c-6.5-.2-12.8.2-14 .7m-1.9 36c0 17.9.2 25.2.3 16.2.2-8.9.2-23.5 0-32.5-.1-8.9-.3-1.6-.3 16.3m70.8-25c0 1.9.2 2.7.5 1.7.2-.9.2-2.5 0-3.5-.3-.9-.5-.1-.5 1.8m-540 3.8c-4.8 1.6-13.2 9.2-13.2 11.9 0 1 1.3-.2 3.2-2.8 3.6-5.3 7.5-7.8 13.2-8.5 10.5-1.5 20.1 5.8 21.9 16.6.4 2.4.4 2.4.6-.3.2-3.9-3.3-10.1-7.2-13.1-2.9-2.2-12-5.8-13.7-5.5-.3.1-2.5.8-4.8 1.7m150 .9c-3.8.8-11.9 9.3-13.6 14.3-1.8 5.3-2.1 14.6-.5 15.6.9.5 1-.4.5-3-1-5.4 1-13.8 4.5-18.6 9.7-13.4 29-9 33.4 7.5 1.7 6 1.6 6.6 0 11.8-2.2 7-6.2 11.9-12 14.6-9.2 4.3-17.7 1.5-23.4-7.9-1.1-1.9-2.1-2.9-2.1-2.1 0 .7 1.4 3.1 3.1 5.2 10.2 12.9 27.1 9.4 34.6-7 3.6-7.9 2.7-14.7-3-23.3-3.8-5.5-13.7-8.8-21.5-7.1m389.1 3.8c0 2.2.2 3 .4 1.7.2-1.2.2-3 0-4-.3-.9-.5.1-.4 2.3m.7 6.8c0 2.1 2.2 2.7 10.7 2.7 9.6 0 14.8 1.5 16.2 4.7 1.7 3.7 1.5 121.9-.2 125.3-1 2-2.5 2.7-8.1 3.7-3.8.7-7.5 1.8-8.2 2.4-1 .8-1.4 3.7-1.4 10.1 0 8.1-.2 9.1-2.5 11.3-2.2 2.3-3.1 2.5-12.7 2.5-7 .1-10.9.5-12 1.4-1.6 1.1-1.8 3.2-1.8 15.3 0 18.2.3 17.7-13.2 18.1-13.7.5-13.8.6-13.8 13.2 0 14.6 2.4 13.6-30.5 13.1-25.3-.3-27.8-.2-29.5 1.4-1.9 1.7-2 3.4-2 41.8 0 22 .3 39.8.6 39.4.3-.3.9-18.5 1.3-40.4l.6-39.8 28.3-.5c34.9-.6 32.3.8 32.6-17.3.1-8.9 1.2-9.7 12-9.7 11 0 12.2-.5 14.1-5.3 1.4-3.3 1.6-6.7 1.4-16.2l-.4-12 11-.5c8.3-.4 11.6-.9 13.6-2.3 3.5-2.3 5.3-8.9 4.4-15.5-.9-6.5 1.4-9.2 7.6-9.2 4.3 0 7.7-1.4 9.6-3.9.9-1.2 1.2-16.5 1.3-63.8v-62.1l-3.1-3.1c-3-3-3.2-3.1-12.9-3.1-7.6 0-10.2-.4-11.4-1.6-1.4-1.3-1.6-1.3-1.6-.1m-488.5 3.5c-4.9 2.5-8.3 7-9.2 12.1-1 6-1 19.6 0 24.1.8 3.8 5.7 10 7.9 10 .7 0 .3-.7-.9-1.5-5.8-4.1-8-13.8-6.4-27.8 1-9.1 4.2-14.2 10.2-16.3 4.6-1.7 40.1-1.8 44.9-.1 2 .7 4.8 3 6.7 5.5 2.9 3.8 3.3 5.2 3.5 11l.2 6.7.3-6.2c.5-8.5-2.4-14-9.4-17.7-4.5-2.3-43.2-2.2-47.8.2m-65.3 6.2c-.1 6.3.2 8.1 2.3 11.4 4.4 7.2 13.4 11.6 20.8 10.2 7.9-1.5 16.8-10.5 16.6-16.8-.2-3.2-.2-3.2-.6-.4-1.6 10.3-13.7 18.3-23.5 15.5-10-2.9-14.1-8.2-14.9-19.4l-.6-8z"/><path d="M2139.6 1288.7c1.1 2.3 1.4 10.5 1.4 46.5 0 24-.3 44.3-.6 45.2-.4 1-1.9 1.6-3.8 1.7-1.8.1-2.3.3-1.3.6s2.9.2 4.3-.1l2.4-.6v-46.1c0-44.3-.3-49.9-3-49.9-.5 0-.2 1.2.6 2.7m-422.4 14.6c-.2 6.7-3.6 13-8 15-1.8.8-10 1.2-25.4 1.2-12.4 0-22.1.3-21.5.7.7.4 10.7.8 22.2.7 23.9 0 25.9-.5 30.8-7.5 2.5-3.5 2.8-4.7 2.4-10l-.3-5.9zm234.2-2.4c-.5.5-8.1 1.1-17 1.3-11.8.2-16.5.7-17.7 1.7-1.3 1-1.7 2.9-1.5 8.5l.2 7.1.5-7c.8-9.3 1.2-9.5 20.8-9.5 9.7 0 15.4-.4 15.8-1.1.9-1.4.1-2.1-1.1-1m125.1 12.1c-.4.6-1.7 1.5-2.9 2l-2.1.9h2.1c2.2.1 5.2-2.5 4.1-3.5-.3-.3-.8 0-1.2.6m-34.9 3.6c-1.4 1.4-1.6 7.3-1.6 49.7 0 42.1-.2 48.5-1.6 50.5-1.4 2.1-2.2 2.2-16.4 2.2s-15-.1-16.4-2.2c-1.4-1.9-1.6-6.9-1.6-33.8 0-23.2-.3-31.9-1.2-32.8s-11.7-1.2-42.3-1.2c-31.3 0-41.5-.3-42.8-1.3-1.4-1-1.7-3.4-2-13.7l-.3-12.5-.2 13.2c-.2 12.2 0 13.3 1.7 14.3 1.3.6 16.3 1 41.8 1 21.9 0 40.8.3 42.1.6l2.2.6v32.4c0 31.1.1 32.5 2 34.4 1.8 1.8 3.3 2 16.4 2 7.9 0 15.2-.3 16-.6 3.9-1.5 4.1-3.5 4.6-53.9l.5-49 3-.6c3-.7 3-.7.3-.8-1.5 0-3.4.6-4.2 1.5m13.7.1c3.2.2 8.1.2 11 0s.3-.3-5.8-.3c-6 0-8.4.1-5.2.3m-481.3 66.1c-2 1-3.7 2.7-4.1 4.2-1.2 4.3-1 26.7.2 29.4 1.6 3.5 5.7 4.6 17.5 4.6 5.6 0 10.9.3 11.8.6 1.4.6 1.6 8.4 1.6 78.8 0 66 .2 78.5 1.4 80.2 1.4 1.9 4.8 1.9 216.8 1.9h215.3l-214.8-.5c-211.2-.5-214.9-.5-216.3-2.4-1.2-1.7-1.4-14.2-1.4-79.7v-77.8l-2.2-1.5c-1.7-1.2-5-1.6-14.5-1.6-11.1 0-12.3-.2-13.3-1.9-1.2-2.3-1.3-30-.1-31.9 1.3-2.1 7.7-3.2 19.3-3.2 10.9 0 15.1 1 16.4 3.9.4.9.8 5.9.8 11.2.1 12.9.1 12.9 13.7 12.9 9.7 0 11 .2 13.4 2.2l2.6 2.3.6 63.5c.3 34.9.8 63.9 1.2 64.3.9.9 64.7 1.1 66.1.2.6-.4 1-16.6 1-41.1 0-39.1.1-40.5 2-42.4 1.8-1.8 3.3-2 15.5-2s13.7.2 15.5 2c1.9 1.9 2 3.3 2 42.3 0 30 .3 40.6 1.2 41.5s9.9 1.2 34.4 1.2c29.3 0 33.3-.2 33.8-1.6.3-.9.5-17.2.4-36.2l-.3-34.7-.5 35.5-.5 35.5h-66l-.5-40.5c-.5-44.5-.5-44.4-6.6-45.6-1.7-.3-8.8-.4-15.8-.2-12.2.3-12.8.4-14.6 2.8-1.9 2.4-2 4.6-2 42.7v40.3h-63.7l-.6-62.4c-.5-45.3-1-63.2-1.9-65.1-2-4.4-5.6-5.5-17.2-5.5h-10.4l-.7-2.9c-.3-1.6-.7-6.9-.8-11.6-.2-8.4-.3-8.8-3.2-11.1-2.8-2.2-3.8-2.4-16-2.4-10.4 0-13.7.4-16.5 1.8m550.6 3.5c-2.5 3.2-2.6 3.9-2.8 20.8l-.3 17.4-12.3.5c-12 .5-12.4.6-14.8 3.3-2.3 2.6-2.4 3.5-2.4 15.2v12.5l-41 .3-41 .2h82.5l.5-12.5c.3-6.9.9-13.2 1.3-14.1 1.4-2.9 5.6-3.9 16.5-3.9 7.1 0 11.2-.4 12-1.2s1.2-6.4 1.2-18.8c0-19.2.3-20.4 5.5-21.9l3-.9-2.7-.1c-1.9-.1-3.4.8-5.2 3.2"/><path d="M1814.2 1457.2c-2.2 1.1-4 5.3-2.8 6.5.3.4.6-.3.6-1.5 0-1.1 1-2.8 2.2-3.6 2-1.4 8.9-1.6 55.3-1.6h53.2l2.1 2.3c2.1 2.3 2.2 2.8 2.4 43.3l.3 40.9h76l.5-41.2.5-41.1 2.4-2.1c1.3-1.2 2-2.1 1.4-2.1-.5 0-1.9 1-3.1 2.3-2.1 2.3-2.2 2.8-2.4 42.8l-.3 40.4-37.2.3-37.3.2v-82.1l-2.5-2.4-2.4-2.5-53.3.1c-36.4 0-54 .4-55.6 1.1"/><path d="M1849.5 1495.6c-1.3 1-1.5 4.4-1.3 24l.3 22.9 20.9.3c12.1.1 21.2-.2 21.5-.7.5-.8.6-16.3.2-40.3l-.1-6.7-20-.3c-13.6-.2-20.5.1-21.5.8m187.8 84.1c-1.6 1.6-1.8 2.3-.8 2.3.8 0 1.9-.9 2.5-2.1 1.6-2.9.9-2.9-1.7-.2"/></g><g fill="#404040" stroke-width="0"><path d="M1640.3 1064c-3.5 1.4-4.3 4.2-4.3 14.4 0 12.8.3 12.6-16.4 12.6-18.4 0-17.6-1-17.6 22.3 0 16.4-.1 17.7-1.9 18.7-1.1.5-7.4 1-14 1-11.3 0-12.1.1-13.5 2.2-1.4 1.9-1.6 7.2-1.6 37 0 33.3.1 34.8 1.9 35.8 2.9 1.5 30.3 1.3 32.4-.3 1.5-1.1 1.7-4.6 1.9-33.7l.3-32.5 14.6-.5c10.3-.4 15.1-.9 16.3-1.9 1.4-1.2 1.6-3.9 1.6-19.5 0-12.8.4-18.6 1.2-19.4.9-.9.9-1.2 0-1.2-2.7 0-3.4 5.4-2.7 21.3.9 20.8 1.8 19.7-16.6 19.7-13.5 0-13.9.1-15.4 2.4-1.4 2.2-1.5 5.9-.9 31.8.5 21.9.4 29.9-.5 31.6-1.1 2.1-1.7 2.2-16.1 2.2-8.7 0-15.1-.4-15.5-1-.7-1.2-.7-71.2.1-71.9.3-.3 6.5-.8 13.7-1.1 7.3-.3 13.8-.9 14.5-1.3.9-.6 1.2-5.5 1.2-18.8 0-23-.9-21.8 17.5-21.9 17.3-.1 17.1.1 16.7-13.1-.3-9.4-.1-10 2.2-12.4l2.5-2.5h34.6c41.5 0 38.8-.8 37.9 12.3-.5 7.2-.3 8.6 1.5 11.4l2.1 3.3 10.7-.2 10.8-.2-10-.3c-13-.4-13.5-.9-13.5-13.7-.1-14.2 3.3-13.1-38.3-13.3-19.4-.1-36.2.2-37.4.7m176.7-.3c-2.8 1-5 3.6-5 5.7 0 1.7.4 1.4 1.6-1.1 1.2-2.3 2.5-3.4 4.8-3.8 4.7-.9 77.3-.1 78.2.8.5.4 1.1 5.7 1.4 11.8.6 12.5 1.2 13.6 8 14.3l4.5.5-4.7-1c-5.8-1.3-6.2-2.4-6.3-14 0-6.1-.4-9.2-1.6-11l-1.6-2.4-38.9-.2c-21.4-.1-39.6.1-40.4.4m-4.8 17.5c-.3 9.7-.5 9.8-17.2 9.8-13.2 0-14 .1-16.7 2.4l-2.8 2.4-.3 17.8c-.2 12.4-.7 18.1-1.5 18.6-2.2 1.4-28.3.9-29.5-.5-.6-.7-1.2-8.7-1.4-19.9-.2-10.7-.7-19.1-1.3-19.7-1.4-1.4-.8 34.6.6 38.1 1.6 4 6.2 5.1 19.5 4.6 16.1-.6 15.8-.3 15.2-18.3-.3-7.7-.3-15.7 0-17.8.7-5.7 3.5-6.7 18.4-6.7 6.8 0 13.3-.3 14.5-.6 2.7-.7 3.6-4.5 3-11.9-.3-4.5-.4-4.3-.5 1.7m108.8 10.5c.8.3 2.3 1.2 3.3 2.1 1.6 1.4 1.7 5.4 1.7 56.7 0 50.1.2 55.4 1.6 56.6 1.2 1 5.8 1.6 14.8 1.9l13.1.5.3 16.1c.2 13.5.5 16.4 1.9 17.5 1.2 1 5.1 1.4 14.3 1.4 9.3 0 13.1.4 14.3 1.4 1.5 1.2 1.7 4.7 1.7 32.7 0 27.1.2 31.5 1.6 32.8 2.2 2.2 45.9 2.4 49 .2 1.8-1.4 1.9-2.9 2-30.3v-28.8l-.5 28.2c-.5 21.2-.9 28.5-1.9 29.5-1.7 1.7-42.4 2.4-46.5.9l-2.7-1.1v-31.2c0-17.2-.4-31.8-.8-32.5-1.5-2.3-6.5-3.3-17.6-3.3-7.4 0-11.6-.4-12.4-1.2s-1.2-5.9-1.2-16.4c0-12.9-.2-15.4-1.6-16.5-1.2-1-5.8-1.6-14.8-1.9l-13.1-.5-.5-56.2c-.5-54.7-.6-56.3-2.5-57.7-1.1-.9-2.7-1.5-3.5-1.5-1.3.1-1.3.1 0 .6"/><path d="M1657.8 1098.7c8.4.2 21.9.2 30 0 8.1-.1 1.2-.3-15.3-.3s-23.1.2-14.7.3m156.8.8c-1.3 1.4-1.6 4.4-1.6 19.1 0 10.2-.4 18.3-1 19.5-1 1.8-2.3 1.9-18.4 1.9-14.9 0-17.5.2-18.7 1.6-1 1.2-1.5 6-1.9 16.3l-.5 14.6h-63l-.5-35.5c-.3-19.5-.9-36.1-1.3-36.8-.5-.6-1.5-1.2-2.3-1.2-1 0-.9.5.6 2 1.9 1.9 2 3.3 2 36.3 0 25.3.3 34.6 1.2 35.5 1.5 1.5 61.5 1.7 63.8.2 1.2-.7 1.6-4.1 2-16.2l.5-15.3 18-.3c15.5-.2 18.2-.5 19.3-1.9.8-1.2 1.2-6.9 1.2-19.9 0-14.3.3-18.4 1.4-19.3 1.6-1.4 73.9-1.1 75.3.2.4.5 1 23.7 1.3 51.5l.6 50.7-.1-50.7c0-40.2-.3-51-1.3-52s-9.6-1.4-38.1-1.6c-32.8-.2-37.1-.1-38.5 1.3m76.8 106.5c.1 3.1 2.5 3.8 14.3 3.9 12.1.1 11.8-.6 11 21.7-.7 22.9-1.9 21.4 17.1 21.4 16.2 0 18.9.4 19.5 2.9.4 1.4.5 1.4.6-.2.2-2.9-4.1-3.7-19.9-3.7-12.6 0-14.9-.2-15.4-1.6-.3-.9-.6-10-.6-20.4 0-20.7-.2-21.3-6.3-21.3-1.7.1-6.9-.1-11.4-.4-7.4-.4-8.2-.7-8.6-2.6-.3-1.8-.4-1.8-.3.3m-365.7 1.7c-7.3.6-7.8 2.1-7.6 19.7.1 8.1-.1 15-.5 15.4s-7.1.9-14.9 1.3l-14.2.5 14 .2c7.7.1 14.7-.3 15.5-.8 1.2-.7 1.6-4.3 2-17.7l.5-16.8 22.7-.3 22.7-.2.3 19.7c.2 15.8 0 20.2-1.1 21.5-1.3 1.6-3.6 1.8-21.6 1.8-14.3 0-20.4.3-21.3 1.2-1.6 1.6-1.7 89.9-.2 92.9 1 1.8 2.3 1.9 21.3 1.9 11.1 0 20.9.5 21.7 1 1.6 1 1.7 3.1 1.2 23.3l-.2 10.7-22.7-.2-22.8-.3-.5-12.3c-.7-16.5-.4-16.2-18.6-16.2-12.3 0-13.4-.2-14.4-2-1.3-2.5-1-102.5.4-105.5l.9-2-1.6 2c-1.5 1.8-1.6 7.8-1.7 53.6 0 51.2 0 51.6 2.1 53.5 1.8 1.6 4.2 2 15.7 2.4 13.3.5 13.7.6 14.9 3 .8 1.5 1.3 6.5 1.3 12.6 0 6.4.4 10.4 1.2 11.2.9.9 7.4 1.2 23.3 1.2s22.4-.3 23.3-1.2c.8-.8 1.2-5.9 1.2-16.3 0-21 1.8-19.5-22.9-19.5-14.2 0-20.2-.3-21.4-1.3-1.6-1.1-1.7-4.8-1.5-46.7l.3-45.5 20.9-.3c17.8-.2 21.3-.5 22.8-1.9 1.6-1.4 1.8-3.6 1.8-21.3 0-17.1-.2-19.9-1.6-21.1-1.3-1-6-1.4-18.8-1.5-9.4-.1-19.2 0-21.9.3m551.5.9c-2.9 1.3-4.2 6.3-4.2 16.2 0 6.8-.4 10.3-1.3 11-.6.6-7.1 1.2-14.3 1.4-11.3.3-13.5.6-15.3 2.2-1.2 1.1-2.1 2.9-2.1 4 .1 1.7.4 1.4 1.4-1 1.3-2.9 1.9-3.2 7.4-3.9 3.4-.4 9.4-.4 13.4 0 6.6.6 7.6.5 10.1-1.5 2.7-2.1 2.7-2.3 2.7-13.5 0-9 .3-11.7 1.6-12.9 1.3-1.4 4.8-1.6 22.5-1.6 12.6 0 21.8.4 23 1 1.7 1 1.9 2.2 1.9 14.8 0 9.6.4 14.3 1.3 15.4.7.9 4.8 2.2 10.1 3.2 4.9.9 9.8 2.3 10.8 3.3 1 .9 1.8 1.1 1.8.5 0-2-6.1-4.4-13.4-5.3-4.7-.6-7.5-1.5-8.3-2.6-.9-1.1-1.3-5.9-1.3-14.7 0-7.2-.5-13.8-1-14.6-.8-1.3-4.6-1.5-23.2-1.7-12.3-.1-22.9 0-23.6.3"/><path d="M2078.2 1242.2c-.9.9-1.2 10-1.2 34.8 0 32.5-.1 33.7-2 35.8-1.2 1.2-1.7 2.2-1.2 2.2s1.6-.8 2.5-1.8c1.5-1.7 1.7-5.6 1.7-35.6V1244l2.8-1.1c1.5-.6 7.7-.9 14-.7 15.9.4 15.5-.2 15 22.5-.3 15.3-.1 17.4 1.4 19 1.5 1.4 4.1 1.8 15 2.1 10.7.3 13.5.7 14.6 2 .9 1.2 1.2 12.4 1.2 47.9v46.3l-2.2.4c-1.3.3-4.5.8-7.1 1.1-8.4 1.1-8.7 1.8-8.7 22.3 0 12.5-.4 18.2-1.2 19s-4.9 1.2-12 1.2c-10.9 0-15.1 1-16.5 3.9-.4.9-1 7.2-1.3 14.1l-.5 12.5-42.1.5c-39.8.5-42.1.6-44 2.4-1.8 1.9-1.9 4.2-2.4 43l-.5 41.1h-76l-.3-40.9c-.2-40.5-.3-41-2.4-43.3l-2.1-2.3h-53.2c-46.4 0-53.3.2-55.3 1.6-1.2.8-2.2 2.2-2.2 3.1 0 1.1.6.8 2.1-1.1l2-2.6h53.3c52 0 53.2 0 54.9 2 1.5 1.8 1.7 5.6 1.7 42.3 0 30 .3 40.6 1.2 41.5 1.7 1.7 74.9 1.7 76.6 0 .9-.9 1.2-11.3 1.2-40.9 0-38.6.1-39.7 2.1-42.3l2-2.6h41.8c31.1 0 42-.3 42.9-1.2.8-.8 1.2-5.2 1.2-13.1 0-6.5.5-12.7 1-13.8 1-1.7 2.2-1.9 12.8-1.9 17.1 0 16.2 1.2 16.2-21.5V1388l2.6-1.6c1.4-1 4.9-1.9 7.7-2.2 2.9-.2 5.8-.9 6.5-1.4.9-.8 1.2-11.6 1.2-47.8 0-44-.1-46.8-1.8-48.3-1.5-1.4-4-1.7-12.3-1.7-12 0-17.9-1.3-17.9-3.8-.3-35.7-.4-35.9-3-38.1-2.2-1.8-3.8-2-15.5-2.1-8.9 0-13.5.4-14.3 1.2m70.1 11.8c0 3 .2 4.3.4 2.7.2-1.5.2-3.9 0-5.5-.2-1.5-.4-.2-.4 2.8m-538.8 4.9c-4.8 1.6-7.3 3.5-10.3 7.9-2.9 4.3-3.2 5.4-3.2 12.3 0 6.8.3 8 2.9 11.5 5.4 7.5 13.1 10.4 21.4 8 6.6-1.9 13.7-9.4 13.7-14.3 0-1-.9 0-1.9 2.2-2.8 6.1-7.5 10.2-12.7 11-9.4 1.4-16-1.4-20.7-8.7-2.8-4.4-2.4-15.8.7-20.7 3.6-5.7 8.9-8.6 15.7-8.6 8.8 0 15.1 5.1 18 14.5.6 2.2.7 2.2.8.4.1-2.9-2.5-7.8-6-11.4-4.3-4.3-12.6-6.1-18.4-4.1m147.8 2c-3.9 1.8-10.3 8.9-10.3 11.5 0 .6 1-.5 2.2-2.4 2.6-4.1 4-5.4 9-8 4.6-2.5 8.6-2.5 13.5-.3 8.3 3.8 12 11.1 10.9 21.5-.3 3.2-.4 5.8-.1 5.8.2 0 .9-1.9 1.6-4.2 1.6-5.9-1-15.4-5.4-19.6-6.3-6.1-13.9-7.6-21.4-4.3m196.1 19.1c0 9.6.2 13.6.3 8.7.2-4.8.2-12.6 0-17.5-.1-4.8-.3-.8-.3 8.8"/><path d="M2148.1 1268.2c-.2 4.2 3.9 5.8 14.7 5.8 5.6 0 9.5.5 10.6 1.3 1.6 1.2 1.7 5.2 1.6 64.1 0 34.6-.3 63.3-.6 63.7-.3.5-2.4.9-4.7.9s-6.1.9-8.4 2l-4.3 1.9v9.3c0 5.1-.4 9.8-.8 10.4-1.6 2.5-5.6 3.4-14.9 3.4-6.3.1-10.4.5-11.5 1.3-1.4 1.1-1.7 3.7-2 16.5-.2 12.2-.6 15.5-1.8 16.2-.9.6-1 1-.3 1 2.5 0 3.3-4.2 3.3-17.6 0-11.9.2-13.9 1.8-15 1.1-.9 5-1.3 12-1.4 9.6 0 10.5-.2 12.7-2.5 2.3-2.2 2.5-3.2 2.5-11.3 0-6.4.4-9.3 1.4-10.1.7-.6 4.4-1.7 8.2-2.4 5.6-1 7.1-1.7 8.1-3.7 1.7-3.4 1.9-121.6.2-125.3-1.5-3.2-6.6-4.7-16.5-4.7-8.9 0-10-.5-10.7-4-.4-2.5-.4-2.5-.6.2m-486 5.2c-6 2.1-9.2 7.2-10.2 16.3-1.7 14.5.7 24 6.9 28.1 2.3 1.5 5.6 1.7 25.2 1.7 15.3 0 23.4-.4 25.2-1.2 4.1-1.8 7.8-8.4 7.7-13.5l-.2-4.3-.7 4.5c-.9 6.1-2.6 9.4-6 11.3-2.4 1.5-6.1 1.7-26.2 1.7-25.4-.1-25 0-29.1-6.2-1.4-2.2-1.7-5-1.7-14.8 0-17.3 2.4-21.5 13.3-23.1 8-1.1 28.4-1.1 36.4 0 8.3 1.2 12.6 6 13.6 15.1.3 3 .4 2.8.5-1.2.2-3.9-.4-5.4-3.1-9-1.9-2.5-4.7-4.8-6.7-5.5-4.8-1.7-40.3-1.6-44.9.1m83.6 4.4c-2.3 12.8 6.6 25.2 18 25.2 4.7 0 11.9-3.6 15.3-7.9 4.5-5.4 3.6-5.9-1.3-.6-4.1 4.5-9.7 7.5-14.3 7.5-3.6 0-11.8-4.8-13.9-8.2-1.3-2.3-2.1-5.9-2.5-11.8-.5-7.9-.6-8.2-1.3-4.2m-111.5 1.2c0 1.4.2 1.9.5 1.2.2-.6.2-1.8 0-2.5-.3-.6-.5-.1-.5 1.3m318.6 21.7c-.6 2.2-1.1 2.3-16.4 2.6l-15.9.3 16.3.2c13.5.2 16.4 0 16.8-1.3.3-.8.4-2 .2-2.7-.3-.7-.7-.3-1 .9m-35.6 4.5c-.7.7-1.1 3.2-1 5.7l.1 4.6.4-4c.3-2.2 1.2-4.8 2-5.8 1.8-1.9.4-2.4-1.5-.5m124.1 9.8-2.3.9v49.1c0 32-.4 49.8-1 51.1-1 1.7-2.3 1.9-15.4 1.9-12.6 0-14.5-.2-15.9-1.8-1.5-1.7-1.7-5.5-1.7-33.8 0-23.6-.3-32.3-1.2-33.2s-11.8-1.2-42.7-1.2c-22.9 0-42.1-.4-42.7-.8s-1.4-1.4-1.7-2.2c-.4-1.2-.6-1.2-.6.2-.1 1 .8 2.2 1.8 2.8 1.3.6 16.6 1 42.8 1 30.5 0 41.2.3 42.1 1.2s1.2 9.6 1.2 32.8c0 26.9.2 31.9 1.6 33.8 1.4 2.1 2.2 2.2 16.4 2.2s15-.1 16.4-2.2c1.4-2 1.6-8.4 1.6-50.3 0-26.4.4-48.6.9-49.3.4-.7 2.1-1.7 3.7-2.2q2.85-.75.9-.9c-1.1 0-3 .4-4.2.9m12.5.7c3.4.2 9 .2 12.5 0 3.4-.2.6-.3-6.3-.3s-9.7.1-6.2.3m-138.7 4.9c0 1.1.3 1.4.6.6.3-.7.2-1.6-.1-1.9-.3-.4-.6.2-.5 1.3m-339 62.4c-1.8.4-3.7 1.4-4.2 2.2-1.2 1.9-1.1 29.5.1 31.9 1 1.7 2.2 1.9 13.3 1.9 9.5 0 12.8.4 14.5 1.6l2.2 1.5v78c0 76.6 0 77.9 2 79.9s3.3 2 216.5 2h214.6l2.4-2.5 2.5-2.4v-40.4c0-38.8.1-40.5 2-42.2 1.7-1.6 4.2-1.7 29.5-1.4 32.9.5 30.5 1.5 30.5-13.1 0-12.5.3-12.8 13-13.3l9.5-.3-9.7-.2c-13.4-.3-13.8.1-13.8 12.9 0 5.4-.3 10.4-.6 11.3-.5 1.4-4 1.6-28.8 1.6-23.9 0-28.5.2-30.4 1.6l-2.2 1.5v40.9c0 40.8 0 40.9-2.2 43-2.2 2-2.2 2-216.3 2-206.2 0-214.3-.1-215.8-1.8-1.6-1.7-1.7-8.7-1.7-79.5 0-76.4 0-77.7-2-79.7-1.8-1.8-3.3-2-14.9-2-12.5 0-12.9-.1-13.5-2.3-1-3.6-.7-26.4.4-29.1l1-2.6h15.4c11.1 0 15.6.3 16.4 1.2.5.7 1.2 6.2 1.4 12.2.5 13.6.5 13.6 14 13.6 6.9 0 10.8.5 12.8 1.5l3 1.6v26.7c.1 14.7 0 43.2 0 63.4-.1 35.6 0 36.8 2 38.8 1.9 1.9 3.1 2 34.3 2 17.7 0 32.8-.4 33.6-.9 1.2-.8 1.4-7.1 1.3-40.8-.2-31.1 0-40.3 1-42.3 1.3-2.4 1.7-2.5 15.3-3l14-.6-13.7-.2c-12.6-.2-14 0-15.8 1.8-1.9 1.9-2 3.3-2 42.4 0 24.5-.4 40.7-1 41.1-1.4.9-65.2.7-66.1-.2-.4-.4-.9-29.4-1.2-64.3l-.6-63.5-2.6-2.3c-2.4-2-3.7-2.2-13.4-2.2-13.6 0-13.6 0-13.7-12.9-.1-10.9-.5-12.4-4-14-2.8-1.2-23-1.3-28.3-.1"/><path d="M1740 1460.3c.6 1.7 1 18.5 1 42.7v40l2.5 1.6c2.3 1.5 5.9 1.6 34.7 1.2 29.7-.5 32.2-.6 33.5-2.3 1-1.5 1.3-8.5 1.1-34.4l-.2-32.6-.6 33.5c-.3 18.4-.7 33.6-.8 33.7-.1.2-15.2.3-33.5.3-24.6 0-33.6-.3-34.5-1.2s-1.2-11.4-1.2-41.3c0-34.2-.2-40.4-1.5-42.1-1.4-1.8-1.4-1.7-.5.9m71.3 7.7c0 2.5.2 3.5.4 2.2.2-1.2.2-3.2 0-4.5-.2-1.2-.4-.2-.4 2.3m36.9 26.2c-1.6 1.6-1.7 48.4-.1 49.3 1.3.9 42.6.8 44 0 1.3-.8 1.2-46.1-.1-48.6-1-1.8-2.3-1.9-21.8-1.9-14.9 0-21.1.3-22 1.2m42.9 7.6c.4 24 .3 39.5-.2 40.3-.3.5-9.4.8-21.5.7l-20.9-.3-.3-22.9c-.2-19.6 0-23 1.3-24 1-.7 7.9-1 21.5-.8l20 .3z"/></g><g stroke-width="0"><path d="M1639.4 1066.5c-2.3 2.4-2.5 3-2.2 12.4.4 13.2.6 13-16.7 13.1-18.4.1-17.5-1.1-17.5 21.9 0 13.3-.3 18.2-1.2 18.8-.7.4-7.2 1-14.5 1.3-7.2.3-13.4.8-13.7 1.1-.8.7-.8 70.7-.1 71.9.4.6 6.8 1 15.5 1 14.4 0 15-.1 16.1-2.2.9-1.7 1-9.7.5-31.6-.6-25.9-.5-29.6.9-31.8 1.5-2.3 1.9-2.4 15.4-2.4 12.1 0 14-.2 15.5-1.8 1.4-1.6 1.6-4.2 1.4-19.5-.2-13.4 0-17.9 1-18.9 1.9-1.9 65.5-1.9 67.4 0 1 1 1.4 9.6 1.8 37l.5 35.7h63l.5-14.6c.4-10.3.9-15.1 1.9-16.3 1.2-1.4 3.8-1.6 18.7-1.6 16.1 0 17.4-.1 18.4-1.9.6-1.2 1-9.3 1-19.5 0-14.7.3-17.7 1.6-19.1 1.4-1.4 5.7-1.5 38.5-1.3 28.6.2 37.1.6 38.1 1.6s1.3 12.2 1.3 54.7v53.4l8 .4c4.4.3 9.5.5 11.2.4 6.1 0 6.3.6 6.3 21.3 0 10.4.3 19.5.6 20.4.5 1.4 2.8 1.6 15.4 1.6 8.2 0 16 .4 17.5 1l2.5 1-.2 24.7-.3 24.8-16.6.3c-22 .3-20.4-1.5-20.4 23.3 0 15.8.3 19.1 1.5 19.9.9.6 18.5 1 43 1 31 0 41.9.3 42.8 1.2s1.2 9.7 1.2 33.3c0 29.9.1 32.3 1.8 33.8 1.5 1.4 4.2 1.7 16 1.7 12.9 0 14.2-.2 15.2-1.9.6-1.3 1-19.1 1-51 0-37.6.3-49.2 1.2-49.7.7-.5 8.3-.7 16.9-.5 21.9.4 19.9 4.2 19.9-37.9 0-24.8.3-33.9 1.2-34.8.8-.8 5.4-1.2 14.3-1.2 11.7.1 13.3.3 15.5 2.1 2.6 2.2 2.7 2.4 3 38.1 0 2.5 5.9 3.8 18.1 3.8 9 0 10.8.3 12.2 1.8 1.5 1.7 1.7 6.5 1.7 48.4 0 36-.3 46.8-1.2 47.6-.7.5-3.6 1.2-6.5 1.4-2.8.3-6.3 1.2-7.7 2.2l-2.6 1.6v18.5c0 22.7.9 21.5-16.2 21.5-10.6 0-11.8.2-12.8 1.9-.5 1.1-1 7.3-1 13.8 0 7.9-.4 12.3-1.2 13.1-.9.9-11.8 1.2-42.9 1.2h-41.8l-2 2.6c-2 2.6-2.1 3.7-2.1 42.3 0 29.6-.3 40-1.2 40.9-1.7 1.7-74.9 1.7-76.6 0-.9-.9-1.2-11.5-1.2-41.5 0-36.7-.2-40.5-1.7-42.3-1.7-2-2.9-2-54.9-2-52.7 0-53.1 0-55 2.1-1.8 2-1.9 3.9-1.6 41.8.3 33.2.1 39.9-1.1 41.5-1.3 1.8-3.4 1.9-33.5 2.4-28.8.4-32.4.3-34.7-1.2l-2.5-1.6v-40c0-23.8-.4-40.9-1-42.5l-1-2.6-14.2.3c-14.1.3-14.3.3-15.6 2.8-1 2-1.2 11.1-1 42.3.1 33.7-.1 40-1.3 40.8-.8.5-15.9.9-33.6.9-31.2 0-32.4-.1-34.3-2-2-2-2.1-3.2-2-38.8 0-20.2.1-48.7 0-63.4v-26.7l-3-1.6c-2-1-5.9-1.5-12.8-1.5-13.5 0-13.5 0-14-13.6-.2-6-.9-11.5-1.4-12.2-.8-.9-5.3-1.2-16.4-1.2H1574l-1 2.6c-1.1 2.7-1.4 25.5-.4 29.1.6 2.2 1 2.3 13.5 2.3 11.6 0 13.1.2 14.9 2 2 2 2 3.3 2 79.8 0 74.2.1 78 1.8 79.5 1.7 1.6 18.1 1.7 215.8 1.7 214 0 214 0 216.2-2 2.2-2.1 2.2-2.2 2.2-43v-40.9l2.2-1.5c1.9-1.4 6.5-1.6 30.4-1.6 24.8 0 28.3-.2 28.8-1.6.3-.9.6-5.9.6-11.3 0-12.7.4-13.1 13.8-13.1 5.3 0 10.4-.5 11.2-1 1.2-.7 1.6-4 1.8-16.2.3-12.8.6-15.4 2-16.5 1.1-.8 5.2-1.2 11.5-1.3 9.3 0 13.3-.9 14.9-3.4.4-.6.8-5.3.8-10.4v-9.3l4.3-1.9c2.3-1.1 6.1-2 8.4-2s4.4-.4 4.7-.9c.3-.4.6-29.1.6-63.7.1-58.9 0-62.9-1.6-64.1-1.1-.8-5-1.3-10.6-1.3-6 0-9.9-.5-11.8-1.5l-3-1.6v-11.3c0-13.8-.1-14-12.6-16.2-5.3-1-9.4-2.3-10.1-3.2-.9-1.1-1.3-5.8-1.3-15.4 0-12.6-.2-13.8-1.9-14.8-1.2-.6-10.4-1-23-1-17.7 0-21.2.2-22.5 1.6-1.3 1.2-1.6 3.9-1.6 12.9 0 11.2 0 11.4-2.7 13.5-2.5 2-3.5 2.1-10.1 1.5-10.7-1-18.9.2-20.4 2.8-.8 1.5-1.2 12.5-1.2 35.5-.1 31.8-.2 33.4-2 34.8-3.1 2.2-46.8 2.1-49-.2-1.4-1.3-1.6-5.7-1.6-32.8 0-28-.2-31.5-1.7-32.7-1.2-1-5-1.4-14.3-1.4-9.2 0-13.1-.4-14.3-1.4-1.4-1.1-1.7-4-1.9-17.5l-.3-16.1-13.1-.5c-9-.3-13.6-.9-14.8-1.9-1.4-1.2-1.6-6.5-1.6-56.6 0-65.4 1.5-59-14.1-59.1-13.1 0-13.2-.1-13.9-14.3-.3-6.1-.9-11.4-1.4-11.8-.9-.9-73.5-1.7-78.2-.8-4.6.8-5.8 4-5.8 15.5-.1 5.4-.5 10.2-.9 10.7-.5.4-7.5 1-15.5 1.3-8.9.3-15.5 1-16.8 1.7-2.8 1.6-3.2 5.3-2.6 22.8.6 18 .9 17.7-15.2 18.3-13 .5-17.7-.6-19.5-4.4-.7-1.6-1.1-8.8-1.1-19.4 0-9.2-.3-17.5-.6-18.4-.5-1.3-2.5-1.6-11.5-1.6H1718l-2.1-3.3c-1.8-2.8-2-4.2-1.5-11.4.9-13.1 3.6-12.3-37.9-12.3h-34.6zm252.6 428.4c1.3 2.5 1.4 47.8.1 48.6-1.4.8-42.7.9-44 0-1.6-.9-1.5-47.7.1-49.3.9-.9 7.1-1.2 22-1.2 19.5 0 20.8.1 21.8 1.9m-371.5-284.7c-.2.7-.6 8.4-.7 17.1-.2 12.7-.6 16-1.8 16.7-.8.5-7.9 1-15.7 1h-14.2l-1 3.7c-1.5 5.2-1.5 100.7-.1 103.4 1 1.7 2.2 1.9 14.4 1.9 18.2 0 17.9-.3 18.6 16.2l.5 12.3 22.8.3 22.7.2.2-10.7c.5-20.2.4-22.3-1.2-23.3-.8-.5-10.6-1-21.7-1-19 0-20.3-.1-21.3-1.9-1.5-3-1.4-91.3.2-92.9.9-.9 7-1.2 21.3-1.2 18 0 20.3-.2 21.6-1.8 1.1-1.3 1.3-5.7 1.1-21.5l-.3-19.7h-22.5c-17.1 0-22.6.3-22.9 1.2"/><path d="M1609.9 1259.9c-4.3 1.4-8 4.3-10.5 8.3-3.1 4.8-3.4 16.3-.7 20.6 4.7 7.3 11.3 10.1 20.7 8.7 8.2-1.3 15.4-11.4 14.2-20.2-.8-6.2-4.1-11.9-8.4-14.8-4.1-2.7-11.2-3.9-15.3-2.6m148.5 1.9c-8.9 5-11.4 9.3-11.4 19.6 0 10 2.4 14.6 9.4 18.1 2.8 1.4 5.9 2.5 7 2.5 7.3-.1 17.1-7.8 18.7-14.8 2.7-11.9-1.1-21.2-10.4-25.5-4.7-2.1-9.3-2.1-13.3.1m-93.1 12.2c-9.7 1.4-12.3 6.2-12.3 23 0 9.8.3 12.6 1.7 14.8 4.1 6.2 3.7 6.1 29.1 6.2 26.5 0 27.7-.3 30.8-7.3 2.6-5.6 2.6-22.7 0-28.1-2.8-6-5.1-7.7-11.9-8.7-7.3-1-30-1-37.4.1"/></g><path fill="#BFBF80" d="M1671.8 1178.7c-2 .5-2.4 2.3-.5 2.3.6 0 2.1-.7 3.1-1.5 2-1.5 1.1-1.8-2.6-.8"/></svg>